<svg width="350" height="350" viewBox="0 0 350 350" fill="none" xmlns="http://www.w3.org/2000/svg">
<path opacity="0.96" d="M145.087 234.557C142.24 234.546 139.39 234.431 136.536 234.198C105.266 231.634 69.0403 216.702 53.4709 189.516C39.8587 165.749 34.5142 134.978 40.712 108.471C46.5381 83.5548 64.6009 63.371 89.894 55.7067C118.339 47.0876 149.778 57.5603 177.768 45.7891C218.507 28.6566 269.711 42.2625 298.263 74.8594C323.577 103.76 329.704 150.361 321.758 186.468C317.742 204.716 307.178 222.292 290.361 231.48C276.982 238.79 260.808 240.231 245.508 238.326C233.206 236.794 221.88 232.782 210.046 229.48C200.561 226.833 192.777 228.211 183.068 230.132C170.573 232.604 157.868 234.611 145.087 234.557Z" fill="#ECECEC"/>
<path d="M198.517 77.4424H279.202L267.476 73.4846C267.476 73.4846 265.967 65.7958 262.02 65.7958C258.073 65.7958 255.403 70.5446 255.403 70.5446C255.403 70.5446 255.519 54.6021 245.419 54.6021C235.318 54.6021 233.113 70.2058 233.113 70.2058C233.113 70.2058 230.675 62.4043 225.219 62.4043C219.762 62.4043 217.673 72.3548 217.673 72.3548L198.517 77.4424Z" fill="white"/>
<path d="M189.937 304.577C254.799 304.577 307.381 302.255 307.381 299.391C307.381 296.526 254.799 294.204 189.937 294.204C125.075 294.204 72.4941 296.526 72.4941 299.391C72.4941 302.255 125.075 304.577 189.937 304.577Z" fill="#330202"/>
<path d="M183.383 284.404C183.383 284.404 230.022 281.289 225.817 267.997C221.612 254.705 200.733 268.404 200.733 268.404C200.733 268.404 217.118 256.576 217.679 243.05C218.24 229.524 187.251 265.027 187.251 265.027C187.251 265.027 196.574 253.34 195.859 239.239C195.144 225.137 174.047 247.08 183.383 284.404Z" fill="#FF7F00"/>
<path opacity="0.39" d="M185.629 277.04C185.629 277.04 218.764 235.197 210.537 248.255C202.31 261.313 185.629 277.04 185.629 277.04Z" fill="#FF7F00"/>
<path opacity="0.39" d="M219.371 268.91L187.309 277.362C187.309 277.362 215.584 273.943 219.371 268.91Z" fill="#FF7F00"/>
<path opacity="0.39" d="M191.183 242.5L182.835 268.268C182.835 268.268 185.8 246.794 191.183 242.5Z" fill="#FF7F00"/>
<path d="M86.4101 163.214C86.4101 163.214 71.8592 131.184 42.084 125.94C12.3088 120.695 84.5068 172.936 84.5068 172.936L86.4101 163.214Z" fill="#FF7F00"/>
<path opacity="0.39" d="M85.1627 169.587C85.1627 169.587 56.2583 136.887 46.7593 132.737C37.2603 128.587 72.2827 142.111 85.498 167.875C85.1627 169.587 85.1627 169.587 85.1627 169.587Z" fill="#FF7F00"/>
<path d="M92.6303 165.265C92.6303 165.265 92.7899 130.085 67.928 112.882C43.0661 95.6788 86.8392 173.303 86.8392 173.303L92.6303 165.265Z" fill="#FF7F00"/>
<path opacity="0.39" d="M88.8349 170.534C88.8349 170.534 76.2335 128.75 69.3371 121.011C62.44 113.272 88.6109 140.19 89.8548 169.119C88.8349 170.534 88.8349 170.534 88.8349 170.534Z" fill="#FF7F00"/>
<path d="M89.6203 217.978C89.6203 217.978 76.1859 241.558 54.152 224.764C68.2479 222.942 70.7553 215.459 70.7553 215.459C70.7553 215.459 53.1902 228.887 40.8492 212.427C55.4477 210.947 59.2039 205.414 59.2039 205.414C59.2039 205.414 44.8035 203.354 39.5563 205.671C34.3098 207.988 35.1834 194.252 35.1834 194.252C35.1834 194.252 57.4672 199.618 60.1104 196.924C62.7543 194.23 34.8159 187.757 34.8159 187.757L35.7154 181.019C35.7154 181.019 54.9479 190.033 49.4333 184.085C43.918 178.137 39.0313 177.759 39.0313 177.759L44.1714 168.021L61.4831 164.709C61.4831 164.709 65.6215 184.051 68.9808 185.597C72.3401 187.142 66.5497 163.739 66.5497 163.739L76.1257 168.035C76.1257 168.035 75.5566 185.652 77.9912 186.937C80.4258 188.222 80.6526 171.109 80.6526 171.109C80.6526 171.109 87.192 175.547 85.8963 189.364C88.3309 190.649 93.5333 183.526 91.8995 177.273C101.67 198.603 97.3378 212.562 89.6203 217.978Z" fill="#CECECE"/>
<path opacity="0.53" d="M51.2575 177.608C51.2575 177.608 80.6939 196.488 87.8689 215.687C72.0062 196.836 51.2575 177.608 51.2575 177.608Z" fill="#5A5A66"/>
<path opacity="0.53" d="M71.1102 200.598L55.8866 201.806C55.8866 201.806 69.8467 204.392 71.1102 200.598Z" fill="#5A5A66"/>
<path opacity="0.53" d="M77.1029 207.409L62.006 212.429C62.006 212.429 77.1309 211.297 77.1029 207.409Z" fill="#5A5A66"/>
<path opacity="0.53" d="M82.2143 214.815C82.2143 214.815 78.6366 221.558 70.9282 225.643C76.4701 224.156 83.6024 219.097 82.2143 214.815Z" fill="#5A5A66"/>
<path opacity="0.53" d="M86.4276 208.154C86.4276 208.154 92.6352 199.464 92.4553 194.809C92.6051 203.022 90.1698 208.689 86.4276 208.154Z" fill="#5A5A66"/>
<path opacity="0.53" d="M79.0685 198.223C79.0685 198.223 83.5135 190.41 82.4705 184.215C84.0322 193.863 81.5486 197.677 79.0685 198.223Z" fill="#5A5A66"/>
<path opacity="0.53" d="M73.9823 191.097C73.9823 191.097 76.2027 184.135 73.2144 178.17C72.9414 187.885 72.3954 190.973 73.9823 191.097Z" fill="#5A5A66"/>
<path opacity="0.53" d="M62.3784 180.954L59.7079 172.938C59.7079 172.938 58.1406 179.715 62.3784 180.954Z" fill="#5A5A66"/>
<path d="M84.0987 281.528C84.0987 281.528 20.6794 284.489 24.3117 265.905C27.9447 247.321 58.2253 262.599 58.2253 262.599C58.2253 262.599 34.2965 249.154 31.4622 230.987C28.6279 212.82 75.901 255.972 75.901 255.972C75.901 255.972 61.5251 241.632 60.3232 222.493C59.1206 203.353 90.9636 229.725 84.0987 281.528Z" fill="#FF7F00"/>
<path opacity="0.39" d="M79.9358 271.935C79.9358 271.935 28.7917 220.558 41.8999 236.916C55.0088 253.273 79.9358 271.935 79.9358 271.935Z" fill="#FF7F00"/>
<path opacity="0.39" d="M33.1506 266.147L77.7175 272.628C77.7175 272.628 39.0348 272.357 33.1506 266.147Z" fill="#FF7F00"/>
<path opacity="0.39" d="M67.1342 226.176L82.3578 259.668C82.3578 259.668 75.0575 231.144 67.1342 226.176Z" fill="#FF7F00"/>
<path d="M91.2233 298.411H179.716C187.084 298.411 193.057 292.438 193.057 285.07V82.1646C193.057 74.7964 187.084 68.8226 179.716 68.8226H91.2233C83.8551 68.8226 77.882 74.7957 77.882 82.1646V285.07C77.882 292.438 83.8551 298.411 91.2233 298.411Z" fill="#2F2F35"/>
<path d="M96.8086 297.403H185.301C192.669 297.403 198.643 291.467 198.643 284.145V82.5181C198.643 75.1961 192.669 69.2608 185.301 69.2608H96.8086C89.4404 69.2608 83.4666 75.1961 83.4666 82.5181V284.145C83.4673 291.467 89.4404 297.403 96.8086 297.403Z" stroke="#9191A3" stroke-width="0.9332" stroke-miterlimit="10"/>
<path d="M105.001 298.411H193.493C200.862 298.411 206.835 292.438 206.835 285.07V82.1646C206.835 74.7964 200.862 68.8226 193.493 68.8226H105.001C97.6325 68.8226 91.6594 74.7957 91.6594 82.1646V285.07C91.6587 292.438 97.6318 298.411 105.001 298.411Z" fill="#5A5A66"/>
<path d="M101.135 285.219H197.358C200.774 285.219 203.543 282.45 203.543 279.034V80.8745C203.543 77.4585 200.774 74.6893 197.358 74.6893H101.135C97.7186 74.6893 94.9494 77.4585 94.9494 80.8745V279.034C94.9494 282.45 97.7186 285.219 101.135 285.219Z" fill="#FFFFFD"/>
<path d="M144.846 291.631C144.846 294.062 146.817 296.032 149.247 296.032C151.677 296.032 153.648 294.062 153.648 291.631C153.648 289.201 151.677 287.23 149.247 287.23C146.816 287.23 144.846 289.2 144.846 291.631Z" fill="white"/>
<path d="M84.9534 102.101C86.5949 102.101 87.9263 103.432 87.9263 105.074V122.539C87.9263 124.181 86.5956 125.512 84.9534 125.512H81.9805V122.539V105.074V102.101H84.9534Z" fill="#5A5A66"/>
<path d="M79.0083 122.538C79.0083 124.18 80.339 125.511 81.9812 125.511C83.6227 125.511 84.9541 124.181 84.9541 122.538V105.073C84.9541 103.432 83.6227 102.101 81.9812 102.101C80.3397 102.101 79.0083 103.431 79.0083 105.073V122.538Z" fill="#A9A7AA"/>
<path d="M84.9534 129.97C86.5949 129.97 87.9263 131.301 87.9263 132.943V150.408C87.9263 152.05 86.5956 153.381 84.9534 153.381H81.9805V150.408V132.943V129.97H84.9534Z" fill="#5A5A66"/>
<path d="M79.0083 150.408C79.0083 152.05 80.339 153.381 81.9812 153.381C83.6227 153.381 84.9541 152.051 84.9541 150.408V132.943C84.9541 131.301 83.6227 129.97 81.9812 129.97C80.3397 129.97 79.0083 131.301 79.0083 132.943V150.408Z" fill="#A9A7AA"/>
<path d="M106.987 210.973H190.189C193.528 210.973 196.235 208.266 196.235 204.926V95.1461C196.235 91.8064 193.528 89.0995 190.189 89.0995H106.987C103.648 89.0995 100.941 91.8064 100.941 95.1461V204.926C100.941 208.266 103.648 210.973 106.987 210.973Z" fill="#ECECEC"/>
<path d="M104.964 278.859H192.212C194.434 278.859 196.235 277.058 196.235 274.836V218.712C196.235 216.49 194.434 214.689 192.212 214.689H104.964C102.742 214.689 100.941 216.49 100.941 218.712V274.836C100.941 277.058 102.742 278.859 104.964 278.859Z" fill="#ECECEC"/>
<path d="M181.539 75.8842C181.539 78.9089 179.087 81.3617 176.062 81.3617H122.75C119.725 81.3617 117.272 78.9096 117.272 75.8842C117.272 72.8595 119.724 70.4067 122.75 70.4067H176.062C179.087 70.4067 181.539 72.8588 181.539 75.8842Z" fill="#5A5A66"/>
<path d="M110.087 97.1817H120.985" stroke="#5A5A66" stroke-width="1.6105" stroke-miterlimit="10"/>
<path d="M110.087 101.111H120.985" stroke="#5A5A66" stroke-width="1.6105" stroke-miterlimit="10"/>
<path d="M110.087 105.04H120.985" stroke="#5A5A66" stroke-width="1.6105" stroke-miterlimit="10"/>
<path d="M162.909 98.1764C162.909 95.921 157.527 94.6575 157.527 98.1764C157.527 103.77 162.909 106.235 162.909 106.235C162.909 106.235 168.291 103.77 168.291 98.1764C168.291 94.6582 162.909 95.921 162.909 98.1764Z" fill="#5A5A66"/>
<path d="M185.398 103.832H176.743L175.972 97.1817H186.169L185.398 103.832Z" fill="#5A5A66"/>
<path d="M178.78 106.492C179.515 106.492 180.11 105.897 180.11 105.162C180.11 104.428 179.515 103.832 178.78 103.832C178.045 103.832 177.45 104.428 177.45 105.162C177.45 105.897 178.045 106.492 178.78 106.492Z" fill="#5A5A66"/>
<path d="M183.362 106.492C184.096 106.492 184.692 105.897 184.692 105.162C184.692 104.428 184.096 103.832 183.362 103.832C182.627 103.832 182.032 104.428 182.032 105.162C182.032 105.897 182.627 106.492 183.362 106.492Z" fill="#5A5A66"/>
<path d="M188.978 97.1817H184.692V98.63H188.978V97.1817Z" fill="#5A5A66"/>
<path d="M190.469 220.048H105.96V234.42H190.469V220.048Z" fill="#FF7F00"/>
<path opacity="0.53" d="M125.831 238.775H105.96V258.647H125.831V238.775Z" fill="#5A5A66"/>
<path opacity="0.28" d="M150.991 238.775H131.119V258.647H150.991V238.775Z" fill="#5A5A66"/>
<path opacity="0.13" d="M175.994 238.775H156.123V258.647H175.994V238.775Z" fill="#5A5A66"/>
<path d="M182.054 243.164V253.704L190.469 248.434L182.054 243.164Z" fill="#5A5A66"/>
<path d="M105.96 265.341H190.469" stroke="#5A5A66" stroke-width="0.9416" stroke-miterlimit="10"/>
<path d="M105.96 271.002H190.469" stroke="#5A5A66" stroke-width="0.9416" stroke-miterlimit="10"/>
<path d="M117.755 227.234H176.196" stroke="#2F2F35" stroke-width="1.8664" stroke-miterlimit="10" stroke-linecap="round"/>
<path d="M125.831 75.6427C125.831 76.9811 124.746 78.0661 123.408 78.0661C122.069 78.0661 120.984 76.9811 120.984 75.6427C120.984 74.3043 122.069 73.2193 123.408 73.2193C124.746 73.2193 125.831 74.3043 125.831 75.6427Z" fill="white"/>
<path d="M191.164 116.227H166.396V127.737H191.164V116.227Z" fill="#FF7F00"/>
<path d="M171.136 121.982H185.998" stroke="#5A5A66" stroke-width="0.9416" stroke-miterlimit="10" stroke-linecap="round"/>
<path d="M176.884 122.027C176.884 122.027 179.185 126.235 182.031 126.346C184.176 133.563 188.174 136.305 191.163 137.647C206.835 158.938 206.835 158.938 206.835 158.938V141.411L186.834 122.027H176.884Z" fill="#5A5A66"/>
<path opacity="0.33" d="M148.546 200.276C166.302 200.276 180.696 198.007 180.696 195.208C180.696 192.409 166.302 190.14 148.546 190.14C130.791 190.14 116.397 192.409 116.397 195.208C116.397 198.007 130.791 200.276 148.546 200.276Z" fill="#5A5A66"/>
<path d="M147.261 153.092C138.757 153.092 130.687 154.451 123.432 156.887C122.065 157.346 121.2 158.694 121.323 160.131L123.921 190.597C124.13 193.047 126.18 194.93 128.64 194.93H167.558C170.017 194.93 172.067 193.047 172.276 190.597L174.826 160.705C174.947 159.296 174.117 157.97 172.789 157.485C165.104 154.675 156.435 153.092 147.261 153.092Z" fill="#FF7F00"/>
<path d="M121.407 161.123C121.662 160.114 122.406 159.268 123.432 158.922C130.687 156.486 138.757 155.128 147.261 155.128C156.436 155.128 165.104 156.71 172.789 159.52C173.78 159.883 174.493 160.714 174.741 161.698L174.826 160.704C174.946 159.295 174.117 157.969 172.789 157.484C165.104 154.674 156.436 153.091 147.261 153.091C138.757 153.091 130.687 154.45 123.432 156.886C122.065 157.345 121.2 158.694 121.323 160.131L121.407 161.123Z" fill="#2F2F35"/>
<path d="M124.473 163.533C124.473 165.23 123.097 166.606 121.4 166.606C119.702 166.606 118.325 165.23 118.325 163.533C118.325 161.835 119.701 160.459 121.4 160.459C123.097 160.459 124.473 161.835 124.473 163.533Z" stroke="#2F2F35" stroke-width="1.8664" stroke-miterlimit="10"/>
<path d="M168.47 170.757H128.124V171.91H168.47V170.757Z" fill="#2F2F35"/>
<path d="M129.821 173.44C129.821 174.285 129.135 174.97 128.29 174.97C127.446 174.97 126.76 174.285 126.76 173.44C126.76 172.595 127.446 171.91 128.29 171.91C129.135 171.91 129.821 172.594 129.821 173.44Z" stroke="#2F2F35" stroke-width="1.8664" stroke-miterlimit="10"/>
<path d="M134.954 163.968C134.954 165.386 133.804 166.535 132.387 166.535C130.969 166.535 129.82 165.386 129.82 163.968V160.485C129.82 159.067 130.969 157.918 132.387 157.918C133.804 157.918 134.954 159.067 134.954 160.485V163.968Z" fill="#2F2F35"/>
<path d="M159.568 163.968C159.568 165.386 160.717 166.535 162.134 166.535C163.552 166.535 164.7 165.386 164.7 163.968V160.485C164.7 159.067 163.552 157.918 162.134 157.918C160.717 157.918 159.568 159.067 159.568 160.485V163.968Z" fill="#2F2F35"/>
<path d="M132.388 161.5C132.388 161.5 131.713 115.324 148.075 115.324C164.436 115.324 162.135 161.5 162.135 161.5" stroke="#FF7F00" stroke-width="3.7329" stroke-miterlimit="10" stroke-linecap="round"/>
<path d="M122.591 175L123.921 190.597C124.13 193.047 126.18 194.93 128.64 194.93H156.927C134.602 193.144 122.591 175 122.591 175Z" fill="#FF7F00"/>
<path d="M267.618 240.607L269.532 299.391H247.577C247.577 299.391 247.668 295.052 253.277 292.525C252.176 240.685 252.176 240.684 252.176 240.684L267.618 240.607Z" fill="#FF7E6E"/>
<path d="M247.577 240.607L243.147 299.391H220.277C220.277 299.391 222.246 293.375 228.489 292.525C232.384 234.646 232.384 234.646 232.384 234.646L247.577 240.607Z" fill="#FF7E6E"/>
<path d="M267.618 240.607L252.176 240.684C252.176 240.684 252.176 240.69 252.455 253.808C257.049 254.909 262.249 255.758 268.127 256.224L267.618 240.607Z" fill="#0F1201"/>
<path d="M231.672 245.227C235.467 247.707 240.392 250.193 246.703 252.209L247.577 240.607L232.384 234.646C232.384 234.646 232.383 234.651 231.672 245.227Z" fill="#0F1201"/>
<path d="M241.819 158.881L220.277 234.035C220.277 234.035 245.105 258.376 282.104 239.634C264.632 158.881 264.632 158.881 264.632 158.881L247.577 159.794L241.819 158.881Z" fill="#5A5A66"/>
<path d="M271.2 91.9786C271.2 91.9786 268.263 86.0391 259.118 87.0128C249.974 87.9865 243.662 100.005 244.131 111.7C244.6 123.396 252.008 133.505 252.008 133.505L274.558 127.737C274.558 127.737 279.252 117.223 274.558 108.688C269.863 100.152 270.348 93.828 270.348 93.828L271.2 91.9786Z" fill="#1C2F36"/>
<path d="M249.304 114.519C249.304 114.519 241.385 115.492 235.281 122.551C229.179 129.61 218.135 141.411 218.135 141.411L200.9 123.171C199.304 121.482 196.873 120.497 194.301 120.497H179.238C178.249 120.497 177.449 121.169 177.449 121.996V122.026C177.449 122.854 178.249 123.525 179.238 123.525H185.004C185.004 123.525 185.585 130.722 188.201 131.939C190.817 133.156 194.595 133.886 194.595 133.886L210.835 151.875C214.205 156.091 221.453 156.44 225.378 152.575L244 134.235L249.304 114.519Z" fill="#FF7E6E"/>
<path d="M257.396 101.693L255.8 115.471L261.932 116.227L262.436 107.647L259.58 101.149L257.396 101.693Z" fill="#FF7E6E"/>
<path d="M258.254 101.479L258.357 102.276C258.357 102.276 258.617 109.499 262.09 113.555L262.437 107.647L259.581 101.15L258.254 101.479Z" fill="#0F1201"/>
<path d="M258.096 99.4826C258.096 99.4826 258.096 109.339 264.48 111.691C265.936 112.027 271.424 103.739 272.096 98.2506C272.768 92.7626 271.2 91.9786 271.2 91.9786C271.2 91.9786 261.792 89.4026 258.096 99.4826Z" fill="#FF7E6E"/>
<path d="M259.091 100.471C259.15 101.755 258.158 102.844 256.873 102.904C255.59 102.963 254.5 101.97 254.441 100.686C254.381 99.4021 255.374 98.3129 256.658 98.2534C257.942 98.1939 259.031 99.1865 259.091 100.471Z" fill="#FF7E6E"/>
<path d="M265.523 102.547C265.523 102.547 265.024 101.3 263.178 100.951" stroke="#700B00" stroke-width="0.9332" stroke-miterlimit="10" stroke-linecap="round"/>
<path d="M268.716 103.395C268.716 103.395 269.537 103.286 270.348 103.815" stroke="#700B00" stroke-width="0.9332" stroke-miterlimit="10" stroke-linecap="round"/>
<path d="M267.618 104.792L267.269 106.189L265.972 105.491" stroke="#700B00" stroke-width="0.384" stroke-miterlimit="10"/>
<path d="M262.979 105.491L266.795 107.386C266.795 107.386 264.375 108.683 262.979 105.491Z" fill="white"/>
<path d="M244 134.236L245.263 129.543L245.844 120.971C245.844 120.971 239.976 126.855 239.929 138.246L244 134.236Z" fill="#0F1201"/>
<path d="M266.57 99.4042C266.57 99.4042 265.872 98.0574 263.627 98.5558" stroke="#700B00" stroke-width="0.384" stroke-miterlimit="10"/>
<path d="M269.863 100.152C269.863 100.152 271.056 100.151 271.407 101.149" stroke="#700B00" stroke-width="0.384" stroke-miterlimit="10"/>
<path d="M272.218 96.929C272.5 92.6436 271.2 91.9786 271.2 91.9786C271.2 91.9786 261.792 89.4026 258.096 99.4826C262.798 94.1976 269.822 96.0736 272.218 96.929Z" fill="white"/>
<path d="M260.084 113.258L269.181 116.162C269.181 116.162 264.809 143.18 264.633 158.88C253.138 163.444 247.843 162.714 241.819 158.88C243.828 140.99 243.828 140.99 243.828 140.99C243.828 140.99 239.811 132.957 243.462 125.655C247.113 118.353 249.304 114.519 249.304 114.519L260.084 113.258Z" fill="#FF7F00"/>
<path d="M269.181 116.162C269.181 116.162 272.854 116.709 277.6 125.107C280.811 130.787 287.862 144.733 292.09 153.166C293.94 156.855 292.288 161.335 288.49 162.946L262.356 174.033V176.772C262.356 176.772 266.861 176.406 265.019 178.78C263.287 181.013 258.141 182.761 254.361 180.072C253.916 179.755 253.616 179.267 253.513 178.731C252.04 171.119 252.087 168.497 256.194 166.731C260.439 164.905 280.521 154.865 280.521 154.865L266.849 131.497L262.356 132.775L269.181 116.162Z" fill="#FF7E6E"/>
<path opacity="0.5" d="M200.901 123.172C199.305 121.483 196.874 120.498 194.302 120.498H186.218C186.895 121.885 188.651 124.124 193.117 125.031C199.793 126.385 205.083 134.552 209.982 139.874C214.88 145.196 218.995 146.959 221.934 145C220.225 143.359 219.01 142.176 218.182 141.363C218.154 141.392 218.135 141.412 218.135 141.412L200.901 123.172Z" fill="white"/>
<path d="M260.084 113.258L252.244 114.175C251.019 117.175 247.54 126.591 251.677 127.663C255.623 128.686 262.551 118.849 265.161 114.879L260.084 113.258Z" fill="#FF7E6E"/>
<path d="M251.312 150.848C248.026 147.927 243.827 140.99 243.827 140.99C243.827 140.99 243.826 140.998 243.147 147.048C246.646 151.56 254.355 153.553 251.312 150.848Z" fill="#D19F00"/>
<path d="M264.632 158.881C264.645 157.752 264.681 156.559 264.734 155.327C261.43 157.072 252.82 160.498 242.123 156.171C242.027 157.028 241.926 157.924 241.818 158.881C247.843 162.714 253.137 163.445 264.632 158.881Z" fill="#FF7E6E"/>
<path opacity="0.49" d="M288.189 159.098C288.189 160.386 288.541 161.589 289.146 162.626C292.473 160.801 293.829 156.635 292.09 153.166C292.044 153.073 291.995 152.976 291.948 152.881C289.714 154.058 288.189 156.398 288.189 159.098Z" fill="#CD2E2B"/>
<path opacity="0.49" d="M224.453 153.355C222.98 151.64 220.583 150.52 217.867 150.52C215.433 150.52 213.256 151.421 211.768 152.843C215.111 155.847 220.766 156.089 224.453 153.355Z" fill="#CD2E2B"/>
<path d="M218.135 141.411L221.661 144.736" stroke="#7B3C38" stroke-width="0.4096" stroke-miterlimit="10" stroke-linecap="round"/>
<path d="M280.521 154.865L285.998 152.074" stroke="#7B3C38" stroke-width="0.4096" stroke-miterlimit="10" stroke-linecap="round"/>
<path d="M269.181 116.162L267.009 115.468C264.61 119.357 256.336 134.425 265.562 144.056C266.894 130.295 269.181 116.162 269.181 116.162Z" fill="#FF7E6E"/>
<path d="M251.677 127.663L252.631 125.03" stroke="#7B3C38" stroke-width="0.4096" stroke-miterlimit="10" stroke-linecap="round"/>
<path d="M255.8 99.4826L256.873 102.904" stroke="#7B3C38" stroke-width="0.4096" stroke-miterlimit="10" stroke-linecap="round"/>
<path opacity="0.5" d="M277.6 125.108C274.656 119.9 272.126 117.712 270.628 116.801C269.509 118.384 268.842 121.68 272.74 128.202C279.149 138.925 292.345 156.988 288.49 162.947C292.289 161.335 293.94 156.856 292.09 153.167C287.862 144.733 280.811 130.787 277.6 125.108Z" fill="white"/>
<path d="M266.965 131.695L264.735 128.449C264.735 128.449 264.944 132.18 266.567 134.894L266.965 131.695Z" fill="#0F1201"/>
<path d="M249.894 294.795C247.635 297.042 247.577 299.39 247.577 299.39H269.532L269.338 293.42C258.936 297.744 252.377 295.887 249.894 294.795Z" fill="#FF7F00"/>
<path d="M223.743 294.558C221.192 296.606 220.277 299.391 220.277 299.391H243.147L243.574 293.723C232.402 297.968 226.326 296.041 223.743 294.558Z" fill="#FF7F00"/>
<path d="M237.251 287.618C237.251 287.618 237.251 291.311 241.998 290.431" stroke="#7B3C38" stroke-width="0.4096" stroke-miterlimit="10" stroke-linecap="round"/>
<path d="M262.525 287.618C262.525 287.618 262.525 291.311 267.273 290.431" stroke="#7B3C38" stroke-width="0.4096" stroke-miterlimit="10" stroke-linecap="round"/>
<path d="M281.732 183.331C275.211 183.732 269.086 185.154 263.638 187.364C262.611 187.781 262.011 188.855 262.173 189.951L265.602 213.191C265.878 215.06 267.538 216.407 269.424 216.291L299.268 214.457C301.153 214.341 302.637 212.801 302.681 210.912L303.228 187.87C303.254 186.784 302.555 185.807 301.515 185.497C295.489 183.704 288.767 182.899 281.732 183.331Z" fill="#FF7F00"/>
<path d="M262.285 190.709C262.433 189.923 262.963 189.239 263.734 188.926C269.182 186.716 275.307 185.293 281.828 184.893C288.863 184.46 295.585 185.266 301.61 187.058C302.387 187.289 302.973 187.893 303.209 188.636L303.227 187.869C303.253 186.784 302.555 185.806 301.514 185.496C295.489 183.704 288.767 182.899 281.732 183.331C275.211 183.732 269.086 185.154 263.638 187.364C262.611 187.781 262.011 188.855 262.173 189.951L262.285 190.709Z" fill="#2F2F35"/>
<path d="M264.75 192.412C264.83 193.714 263.839 194.834 262.538 194.914C261.236 194.993 260.116 194.003 260.036 192.702C259.956 191.4 260.947 190.28 262.248 190.2C263.549 190.119 264.67 191.11 264.75 192.412Z" stroke="#2F2F35" stroke-width="1.4339" stroke-miterlimit="10"/>
<path d="M298.815 195.886L267.877 197.786L267.931 198.67L298.869 196.77L298.815 195.886Z" fill="#2F2F35"/>
<path d="M269.317 199.756C269.357 200.404 268.864 200.962 268.216 201.001C267.568 201.041 267.01 200.549 266.971 199.9C266.931 199.252 267.424 198.694 268.072 198.655C268.72 198.615 269.277 199.108 269.317 199.756Z" stroke="#2F2F35" stroke-width="1.4339" stroke-miterlimit="10"/>
<path d="M272.808 192.252C272.874 193.339 272.047 194.274 270.96 194.34C269.873 194.407 268.938 193.58 268.871 192.493L268.708 189.822C268.641 188.735 269.468 187.8 270.555 187.733C271.642 187.667 272.577 188.493 272.644 189.58L272.808 192.252Z" fill="#2F2F35"/>
<path d="M291.682 191.092C291.748 192.179 292.684 193.005 293.77 192.939C294.857 192.872 295.684 191.937 295.618 190.85L295.454 188.179C295.387 187.092 294.452 186.265 293.365 186.332C292.278 186.398 291.451 187.334 291.518 188.42L291.682 191.092Z" fill="#2F2F35"/>
<path d="M281.732 183.331C275.211 183.732 269.086 185.154 263.638 187.364C262.611 187.781 262.011 188.855 262.173 189.951L265.602 213.191C265.878 215.06 267.538 216.407 269.424 216.291L299.268 214.457C301.153 214.341 302.637 212.801 302.681 210.912L303.228 187.87C303.254 186.784 302.555 185.807 301.515 185.497C295.489 183.704 288.767 182.899 281.732 183.331Z" fill="#FF7F00"/>
<path d="M262.285 190.709C262.433 189.923 262.963 189.239 263.734 188.926C269.182 186.716 275.307 185.293 281.828 184.893C288.863 184.46 295.585 185.266 301.61 187.058C302.387 187.289 302.973 187.893 303.209 188.636L303.227 187.869C303.253 186.784 302.555 185.806 301.514 185.496C295.489 183.704 288.767 182.899 281.732 183.331C275.211 183.732 269.086 185.154 263.638 187.364C262.611 187.781 262.011 188.855 262.173 189.951L262.285 190.709Z" fill="#2F2F35"/>
<path d="M264.75 192.412C264.83 193.714 263.839 194.834 262.538 194.914C261.236 194.993 260.116 194.003 260.036 192.702C259.956 191.4 260.947 190.28 262.248 190.2C263.549 190.119 264.67 191.11 264.75 192.412Z" stroke="#2F2F35" stroke-width="1.4339" stroke-miterlimit="10"/>
<path d="M298.815 195.886L267.877 197.786L267.931 198.67L298.869 196.77L298.815 195.886Z" fill="#2F2F35"/>
<path d="M269.317 199.756C269.357 200.404 268.864 200.962 268.216 201.001C267.568 201.041 267.01 200.549 266.971 199.9C266.931 199.252 267.424 198.694 268.072 198.655C268.72 198.615 269.277 199.108 269.317 199.756Z" stroke="#2F2F35" stroke-width="1.4339" stroke-miterlimit="10"/>
<path d="M272.808 192.252C272.874 193.339 272.047 194.274 270.96 194.34C269.873 194.407 268.938 193.58 268.871 192.493L268.708 189.822C268.641 188.735 269.468 187.8 270.555 187.733C271.642 187.667 272.577 188.493 272.644 189.58L272.808 192.252Z" fill="#2F2F35"/>
<path d="M291.682 191.092C291.748 192.179 292.684 193.005 293.77 192.939C294.857 192.872 295.684 191.937 295.618 190.85L295.454 188.179C295.387 187.092 294.452 186.265 293.365 186.332C292.278 186.398 291.451 187.334 291.518 188.42L291.682 191.092Z" fill="#2F2F35"/>
<path d="M270.723 190.48C270.723 190.48 268.029 155.104 280.575 154.333C293.122 153.562 293.533 189.078 293.533 189.078" stroke="#FF7F00" stroke-width="2.8678" stroke-miterlimit="10" stroke-linecap="round"/>
<path d="M266.968 161.58L278.748 155.749L282.006 165.697L268.144 171.578L266.968 161.58Z" fill="#FF7E6E"/>
<path d="M303.79 177.025L307.696 169.547C307.952 169.058 308.608 168.955 309.001 169.343L311.415 171.724C311.774 172.079 311.732 172.672 311.324 172.971L304.718 177.822C304.182 178.215 303.482 177.615 303.79 177.025Z" fill="#A9A7AA"/>
<path d="M310.545 189.533L318.591 185.318C319.001 185.103 319.501 185.346 319.586 185.8L320.273 189.465C320.352 189.881 320.039 190.268 319.616 190.279L310.8 190.513C310.249 190.528 310.057 189.789 310.545 189.533Z" fill="#A9A7AA"/>
<path d="M310.487 201.299L320.217 202.948C320.62 203.015 320.842 203.454 320.658 203.818L318.895 207.333C318.728 207.667 318.301 207.772 317.997 207.554L310.214 201.952C309.903 201.727 310.108 201.235 310.487 201.299Z" fill="#A9A7AA"/>
<path d="M260.031 164.951C260.031 164.951 266.65 164.702 265.811 172.568C267.049 172.043 267.444 171.875 267.444 171.875C267.444 171.875 268.066 163.769 262.147 163.664C260.031 164.13 260.031 164.951 260.031 164.951Z" fill="#FF7F00"/>
<path opacity="0.49" d="M261.901 179.752C260.724 180.004 259.422 174.332 258.749 171.895C258.312 170.31 255.247 169.596 253.156 169.291C252.265 171.159 252.592 173.968 253.513 178.732C253.616 179.268 253.917 179.755 254.361 180.072C257.264 182.138 260.968 181.582 263.317 180.203C262.913 179.889 262.411 179.642 261.901 179.752Z" fill="#CD2E2B"/>
<path opacity="0.5" d="M302.93 200.426C291.209 202.072 283.024 212.707 281.009 215.579L299.267 214.457C301.153 214.341 302.637 212.801 302.681 210.912L302.93 200.426Z" fill="#FF7F00"/>
<path opacity="0.5" d="M228.489 292.524C222.246 293.374 220.277 299.39 220.277 299.39H227.406C229.046 297.293 231.756 295.257 235.926 293.42C237.675 281.5 233.473 262.944 231.092 253.841C230.518 262.378 229.688 274.705 228.489 292.524Z" fill="white"/>
<path opacity="0.5" d="M258.555 293.723C260.552 277.421 254.111 260.808 252.523 257.028C252.686 264.698 252.925 275.962 253.276 292.525C247.668 295.052 247.577 299.391 247.577 299.391H253.923C254.972 297.035 256.505 294.584 258.555 293.723Z" fill="white"/>
<path d="M225.772 238.236C228.492 240 232.168 242.012 236.68 243.636C238.204 235.991 240.283 224.881 241.998 213.191C245.12 191.918 245.99 172.927 241.818 183.217C238.454 191.519 229.218 225.434 225.772 238.236Z" fill="#2F2F35"/>
<path opacity="0.5" d="M259.118 87.0128C252.788 87.6869 247.817 93.6551 245.512 101.144C251.955 88.3792 265.162 92.1844 265.162 92.1844L267.619 93.9799L270.597 93.2918L271.201 91.9793C271.201 91.9793 268.263 86.0391 259.118 87.0128Z" fill="white"/>
<path d="M272.225 96.8828C272.225 96.8828 266.013 98.3311 259.605 98.0784C261.805 96.2829 265.491 94.9298 272.225 96.8828Z" fill="#1C2F36"/>
<path opacity="0.5" d="M272.127 93.9799L262.436 95.5836C262.436 95.5836 259.871 101.961 262.436 110.538C263.033 111.011 263.709 111.406 264.48 111.691C265.936 112.027 271.424 103.739 272.096 98.2506C272.338 96.2766 272.287 94.9186 272.127 93.9799Z" fill="white"/>
</svg>
