<svg width="20" height="24" viewBox="0 0 20 24" fill="none" xmlns="http://www.w3.org/2000/svg">
<g clip-path="url(#clip0_202_174)">
<path d="M19.3502 18.4829C18.9997 19.2938 18.5849 20.0402 18.1044 20.7264C17.4493 21.6619 16.9129 22.3094 16.4995 22.669C15.8587 23.2593 15.1721 23.5615 14.4369 23.5787C13.9091 23.5787 13.2726 23.4283 12.5317 23.1232C11.7884 22.8194 11.1052 22.669 10.4806 22.669C9.8255 22.669 9.12291 22.8194 8.37141 23.1232C7.61876 23.4283 7.01243 23.5873 6.54886 23.6031C5.84384 23.6332 5.14111 23.3223 4.43967 22.669C3.99197 22.2779 3.43199 21.6075 2.76115 20.6576C2.0414 19.6433 1.44967 18.4672 0.986092 17.1262C0.489618 15.6779 0.240738 14.2753 0.240738 12.9175C0.240738 11.3621 0.576298 10.0206 1.24842 8.89643C1.77665 7.99345 2.47938 7.28115 3.3589 6.75825C4.23842 6.23534 5.18874 5.96888 6.21215 5.95183C6.77213 5.95183 7.50648 6.12532 8.41904 6.46628C9.32902 6.80839 9.91332 6.98188 10.1695 6.98188C10.361 6.98188 11.0101 6.77902 12.1105 6.37459C13.1511 5.99953 14.0293 5.84424 14.7488 5.90541C16.6983 6.063 18.163 6.83274 19.1371 8.21951C17.3935 9.27765 16.531 10.7597 16.5481 12.6609C16.5639 14.1418 17.1002 15.3741 18.1544 16.3526C18.6321 16.8068 19.1657 17.1577 19.7593 17.407C19.6305 17.7809 19.4946 18.1391 19.3502 18.4829V18.4829ZM14.8789 0.86031C14.8789 2.02103 14.4555 3.10479 13.6116 4.10791C12.5932 5.30042 11.3614 5.9895 10.0256 5.88077C10.0086 5.74152 9.99871 5.59496 9.99871 5.44096C9.99871 4.32667 10.483 3.13416 11.3431 2.15912C11.7725 1.66544 12.3186 1.25495 12.9808 0.927499C13.6417 0.604931 14.2667 0.426544 14.8546 0.395996C14.8718 0.551166 14.8789 0.706346 14.8789 0.860295V0.86031Z" fill="#FBFBFB"/>
</g>
<defs>
<clipPath id="clip0_202_174">
<rect width="19.5185" height="23.2091" fill="white" transform="translate(0.240738 0.395508)"/>
</clipPath>
</defs>
</svg>
