<svg width="290" height="174" viewBox="0 0 290 174" fill="none" xmlns="http://www.w3.org/2000/svg">
<path d="M22.6213 64.1557V0" stroke="#C7C7C7" stroke-miterlimit="10"/>
<path d="M44.8988 85.6296L43.1068 89.5685H2.13021L0.343811 85.6296L17.7892 73.5546H27.4534L44.8988 85.6296Z" fill="#EBEBEB"/>
<path d="M28.6644 61.9213L27.4534 73.5546H17.7892L16.5782 61.9213H28.6644Z" fill="#DBDBDB"/>
<path d="M44.8967 85.6317L43.1054 89.5706H2.12881L0.342407 85.6317H44.8967Z" fill="#DBDBDB"/>
<path d="M70.4551 51.4479V0" stroke="#C7C7C7" stroke-miterlimit="10"/>
<path d="M92.7319 72.9225L90.9406 76.8614H49.964L48.1776 72.9225L65.623 60.8475H75.2872L92.7319 72.9225Z" fill="#EBEBEB"/>
<path d="M76.4975 49.2135L75.2872 60.8475H65.623L64.412 49.2135H76.4975Z" fill="#DBDBDB"/>
<path d="M92.7305 72.9239L90.9385 76.8628H49.9619L48.1755 72.9239H92.7305Z" fill="#DBDBDB"/>
<path d="M143.492 113.851L143.632 168.171C143.64 171.209 141.185 173.677 138.153 173.685L51.9975 173.908C48.9651 173.916 46.4976 171.461 46.4899 168.422L46.3492 114.102C46.3422 111.277 48.6263 108.98 51.4515 108.973L138.363 108.748C141.188 108.741 143.484 111.026 143.492 113.851Z" fill="#DBDBDB"/>
<path d="M129.611 160.551C129.618 163.344 127.359 165.614 124.567 165.621C121.774 165.628 119.505 163.37 119.497 160.578C119.49 157.785 121.748 155.515 124.541 155.508C127.334 155.501 129.604 157.759 129.611 160.551Z" fill="#A6A6A6"/>
<path d="M135.837 160.536C135.844 163.329 133.586 165.598 130.794 165.605C128.001 165.612 125.731 163.355 125.724 160.562C125.717 157.769 127.975 155.499 130.767 155.492C133.56 155.485 135.83 157.743 135.837 160.536Z" fill="#FF7F00"/>
<path d="M69.8496 130.855L57.4974 130.887C55.8727 130.892 54.5525 129.578 54.5483 127.954L54.5308 121.234C54.5266 119.61 55.8398 118.289 57.4645 118.285L69.8167 118.253C71.4414 118.249 72.7616 119.562 72.7658 121.187L72.7833 127.906C72.7875 129.531 71.4736 130.851 69.8496 130.855Z" fill="#FF7F00"/>
<path d="M132.289 125.003L124.039 125.025C122.13 125.03 120.579 123.486 120.574 121.578C120.569 119.669 122.112 118.118 124.02 118.113L132.271 118.091C134.18 118.086 135.731 119.629 135.736 121.538C135.741 123.447 134.198 124.998 132.289 125.003Z" fill="white"/>
<path d="M53.9155 142.387L53.1693 142.827C53.1462 142.843 53.1084 142.857 53.0783 142.857C53.0104 142.857 52.9495 142.82 52.9194 142.767C52.8662 142.669 52.8963 142.563 52.9866 142.518L54.0051 141.896C54.0884 141.85 54.2088 141.88 54.255 141.963C54.2774 142.008 54.2851 142.054 54.2774 142.099L54.29 146.959C54.2907 147.057 54.2151 147.14 54.1094 147.14C54.0114 147.14 53.9274 147.057 53.9274 146.959L53.9155 142.387Z" fill="#F8F8F8"/>
<path d="M55.5885 146.811L58.0539 144.575C58.3479 144.302 58.5054 143.939 58.5047 143.562C58.504 143.236 58.3815 142.912 58.147 142.656C57.8824 142.362 57.5114 142.212 57.1411 142.213C56.8086 142.213 56.4838 142.328 56.2199 142.563L55.9637 142.798C55.8881 142.874 55.7677 142.867 55.7068 142.791C55.6312 142.716 55.6382 142.595 55.7138 142.534L55.97 142.292C56.3018 141.996 56.7246 141.844 57.1404 141.843C57.601 141.842 58.07 142.022 58.4109 142.407C58.7217 142.738 58.8666 143.154 58.8673 143.562C58.868 144.03 58.6811 144.499 58.3038 144.848L56.1926 146.765L58.6937 146.759C58.7917 146.759 58.875 146.841 58.875 146.947C58.875 147.045 58.7924 147.128 58.6944 147.129L55.7467 147.137H55.7166C55.6634 147.137 55.6102 147.122 55.5801 147.084C55.5136 147 55.5129 146.887 55.5885 146.811Z" fill="#F8F8F8"/>
<path d="M63.236 142.159L61.8717 143.568C62.2042 143.635 62.522 143.793 62.7803 144.05C63.1282 144.396 63.3039 144.857 63.3053 145.318C63.306 145.779 63.1338 146.24 62.7796 146.588C62.4324 146.937 61.9725 147.12 61.5112 147.121C61.0576 147.122 60.5963 146.95 60.2477 146.595C60.1721 146.528 60.1714 146.406 60.247 146.331C60.3149 146.255 60.436 146.255 60.5116 146.33C60.7923 146.601 61.1479 146.736 61.5105 146.735C61.8731 146.735 62.2357 146.598 62.5143 146.325C62.7936 146.045 62.9287 145.681 62.928 145.318C62.9273 144.955 62.7901 144.593 62.5094 144.322C62.2364 144.043 61.8731 143.908 61.5105 143.909C61.4503 143.909 61.3971 143.879 61.3593 143.833H61.3516C61.2753 143.758 61.2753 143.637 61.3509 143.561L62.662 142.205L60.6369 142.21C60.5305 142.211 60.4472 142.127 60.4472 142.022C60.4472 141.916 60.5298 141.833 60.6355 141.832L63.1065 141.826C63.2122 141.825 63.2962 141.908 63.2962 142.014C63.2962 142.044 63.2885 142.075 63.2731 142.097C63.2661 142.121 63.2514 142.143 63.236 142.159Z" fill="#F8F8F8"/>
<path d="M67.6866 146.017L64.8222 146.024H64.8145H64.7991C64.762 146.024 64.7165 146.017 64.6857 145.986C64.6024 145.926 64.5947 145.805 64.6626 145.73L67.7132 141.913L67.7209 141.905C67.7888 141.822 67.8945 141.814 67.9778 141.882C68.0079 141.905 68.0233 141.942 68.038 141.973C68.038 141.988 68.0457 141.996 68.0457 142.003V142.025L68.0548 145.653L68.4104 145.652C68.5161 145.652 68.5994 145.734 68.6001 145.832C68.6001 145.931 68.5175 146.014 68.4118 146.014L68.0562 146.015L68.0583 146.922C68.059 147.02 67.9757 147.104 67.87 147.104C67.772 147.104 67.6887 147.022 67.688 146.924L67.6866 146.017ZM67.6852 145.654L67.6775 142.556L65.1841 145.66L67.6852 145.654Z" fill="#F8F8F8"/>
<path d="M74.3163 146.566C74.24 146.49 74.24 146.369 74.3156 146.301C74.3912 146.226 74.5116 146.225 74.5872 146.301C74.8679 146.572 75.2235 146.707 75.5861 146.706C75.9487 146.705 76.3036 146.568 76.5822 146.288C76.8615 146.008 76.9959 145.653 76.9952 145.289C76.9945 144.919 76.8573 144.556 76.5843 144.285C76.3113 144.013 75.948 143.878 75.5854 143.879C75.2151 143.881 74.8602 144.017 74.5816 144.298C74.506 144.374 74.3849 144.374 74.317 144.299C74.2939 144.283 74.2785 144.261 74.2715 144.238V144.231C74.2638 144.223 74.2638 144.215 74.2638 144.208C74.2561 144.193 74.2561 144.171 74.2561 144.148C74.2554 144.14 74.2631 144.124 74.2631 144.11L74.5144 141.978C74.5144 141.917 74.5445 141.872 74.5893 141.841C74.6194 141.811 74.6649 141.796 74.7104 141.796L77.1744 141.789C77.2801 141.789 77.3634 141.872 77.3641 141.978C77.3641 142.091 77.2815 142.166 77.1758 142.167L74.8707 142.173L74.6859 143.746C74.9575 143.586 75.2669 143.502 75.584 143.501C76.0446 143.5 76.4989 143.665 76.8475 144.019C77.2031 144.366 77.3704 144.82 77.3718 145.288C77.3725 145.741 77.208 146.21 76.8538 146.558C76.5066 146.9 76.039 147.082 75.5854 147.083C75.1262 147.085 74.6649 146.913 74.3163 146.566Z" fill="#F8F8F8"/>
<path d="M79.3444 142.941C79.7056 142.297 80.316 141.82 81.1924 141.788C81.2911 141.78 81.3744 141.863 81.3821 141.961C81.3821 142.066 81.2995 142.15 81.2015 142.158C80.4616 142.19 79.9933 142.569 79.6629 143.122C79.4823 143.432 79.3626 143.802 79.2877 144.181C79.6041 143.817 80.0724 143.582 80.5932 143.581C81.5683 143.578 82.3488 144.362 82.3509 145.321C82.3537 146.289 81.5767 147.069 80.6023 147.071C79.658 147.074 78.8852 146.328 78.8523 145.391C78.8369 145.277 78.8369 145.164 78.8362 145.043C78.8418 144.34 78.9832 143.569 79.3444 142.941ZM79.2219 145.359C79.2219 145.397 79.2296 145.427 79.2373 145.457C79.2373 145.48 79.2373 145.495 79.2296 145.51C79.322 146.182 79.9051 146.703 80.6002 146.7C81.3709 146.698 81.989 146.077 81.9869 145.321C81.9848 144.566 81.3632 143.948 80.5925 143.95C79.8372 143.952 79.2191 144.573 79.2212 145.329V145.359H79.2219Z" fill="#F8F8F8"/>
<path d="M84.2787 146.805L86.2233 142.16L83.669 142.166C83.571 142.166 83.4877 142.083 83.4877 141.985C83.4877 141.887 83.5703 141.804 83.6683 141.803L86.4641 141.796C86.5019 141.788 86.5397 141.789 86.5775 141.803C86.623 141.826 86.6608 141.871 86.6762 141.916C86.6839 141.939 86.6916 141.954 86.6916 141.977C86.6916 142.015 86.6839 142.045 86.6615 142.075L84.6266 146.948C84.5965 147.015 84.5286 147.061 84.4607 147.061C84.4306 147.061 84.4152 147.061 84.3851 147.046C84.2941 147.008 84.2486 146.895 84.2787 146.805Z" fill="#F8F8F8"/>
<path d="M89.4916 141.758C90.0964 141.757 90.5962 142.247 90.5976 142.852C90.599 143.222 90.4177 143.54 90.1468 143.744C90.7747 144 91.2143 144.619 91.2164 145.328C91.2192 146.28 90.4576 147.046 89.5056 147.048C88.5613 147.051 87.7885 146.289 87.7857 145.337C87.7843 144.627 88.2204 144.006 88.8399 143.748C88.5746 143.545 88.4003 143.228 88.3989 142.857C88.3975 142.252 88.8798 141.76 89.4916 141.758ZM89.5042 146.685C90.2602 146.683 90.8552 146.077 90.8531 145.329C90.851 144.589 90.2525 143.977 89.4972 143.979C88.7496 143.982 88.1462 144.596 88.1483 145.336C88.1504 146.084 88.7566 146.687 89.5042 146.685ZM89.4965 143.602C89.9046 143.593 90.2364 143.26 90.235 142.852C90.2336 142.444 89.9004 142.12 89.4923 142.121C89.0842 142.122 88.7601 142.448 88.7615 142.856C88.7629 143.264 89.0884 143.595 89.4965 143.602Z" fill="#F8F8F8"/>
<path d="M98.8933 141.734C99.8005 141.732 100.535 142.402 100.636 143.271C100.643 143.287 100.643 143.294 100.651 143.309C100.659 143.452 100.667 143.604 100.667 143.762C100.669 144.465 100.52 145.244 100.167 145.872C99.8054 146.5 99.1866 146.992 98.3179 147.025H98.3102C98.2045 147.025 98.1212 146.95 98.1205 146.852C98.1198 146.746 98.1954 146.663 98.3011 146.655C99.034 146.623 99.517 146.243 99.8404 145.691C100.021 145.373 100.148 145.01 100.216 144.632C99.8992 144.995 99.4309 145.216 98.9017 145.217C97.942 145.22 97.1545 144.451 97.1517 143.476C97.1496 142.517 97.9336 141.736 98.8933 141.734ZM100.281 143.468C100.279 142.712 99.6654 142.102 98.8947 142.104C98.1394 142.106 97.5213 142.72 97.5234 143.475C97.5255 144.246 98.1464 144.849 98.9024 144.847C99.6724 144.845 100.283 144.239 100.281 143.468Z" fill="#F8F8F8"/>
<path d="M101.996 144.371C101.994 143.66 102.173 143.01 102.497 142.518C102.821 142.048 103.281 141.723 103.817 141.721C104.353 141.719 104.816 142.043 105.141 142.511C105.46 143.002 105.658 143.651 105.66 144.361C105.662 145.072 105.467 145.722 105.151 146.206C104.827 146.683 104.367 147.009 103.83 147.011C103.293 147.012 102.831 146.689 102.505 146.213C102.18 145.73 101.997 145.081 101.996 144.371ZM102.366 144.369C102.367 145.019 102.543 145.601 102.816 146.008C103.089 146.408 103.452 146.642 103.83 146.64C104.208 146.64 104.563 146.404 104.841 146.003C105.112 145.594 105.292 145.012 105.291 144.362C105.289 143.712 105.106 143.131 104.833 142.724C104.552 142.309 104.196 142.09 103.818 142.092C103.44 142.092 103.079 142.313 102.808 142.729C102.536 143.137 102.365 143.72 102.366 144.369Z" fill="#F8F8F8"/>
<path d="M108.1 142.246L107.353 142.687C107.33 142.701 107.293 142.717 107.262 142.717C107.194 142.717 107.133 142.68 107.103 142.627C107.05 142.529 107.08 142.423 107.17 142.377L108.189 141.755C108.272 141.709 108.392 141.74 108.438 141.822C108.461 141.867 108.469 141.913 108.461 141.958L108.473 146.817C108.473 146.915 108.399 146.999 108.293 146.999C108.195 146.999 108.111 146.916 108.111 146.818L108.1 142.246Z" fill="#F8F8F8"/>
<path d="M109.773 146.67L112.238 144.435C112.532 144.162 112.69 143.799 112.689 143.421C112.688 143.095 112.566 142.771 112.331 142.514C112.067 142.22 111.696 142.071 111.325 142.071C110.993 142.072 110.668 142.187 110.404 142.421L110.148 142.657C110.072 142.732 109.951 142.724 109.891 142.65C109.815 142.574 109.822 142.453 109.898 142.393L110.154 142.15C110.486 141.854 110.909 141.702 111.325 141.702C111.785 141.701 112.254 141.881 112.595 142.265C112.906 142.597 113.051 143.013 113.051 143.421C113.052 143.889 112.865 144.358 112.488 144.707L110.377 146.624L112.879 146.618C112.977 146.617 113.06 146.7 113.06 146.807C113.061 146.905 112.977 146.988 112.879 146.988L109.932 146.996L109.902 146.997C109.849 146.997 109.796 146.982 109.766 146.944C109.697 146.859 109.697 146.746 109.773 146.67Z" fill="#F8F8F8"/>
<path d="M121.951 142.007L120.587 143.415C120.919 143.483 121.237 143.641 121.496 143.897C121.843 144.244 122.019 144.705 122.021 145.165C122.021 145.626 121.849 146.088 121.495 146.436C121.148 146.784 120.688 146.967 120.226 146.969C119.773 146.97 119.312 146.797 118.963 146.443C118.887 146.376 118.887 146.255 118.962 146.179C119.03 146.103 119.151 146.103 119.227 146.178C119.507 146.449 119.862 146.584 120.226 146.584C120.588 146.583 120.951 146.446 121.23 146.173C121.509 145.893 121.644 145.53 121.643 145.167C121.643 144.805 121.505 144.442 121.225 144.171C120.952 143.892 120.588 143.757 120.226 143.758C120.166 143.758 120.112 143.728 120.075 143.683H120.067C119.991 143.607 119.991 143.486 120.066 143.41L121.377 142.055L119.352 142.06C119.246 142.06 119.163 141.978 119.163 141.872C119.163 141.766 119.246 141.683 119.351 141.683L121.822 141.677C121.928 141.676 122.012 141.759 122.012 141.865C122.012 141.895 122.004 141.926 121.989 141.948C121.981 141.968 121.967 141.992 121.951 142.007Z" fill="#F8F8F8"/>
<path d="M126.401 145.864L123.537 145.871H123.53H123.514C123.477 145.872 123.431 145.864 123.401 145.833C123.318 145.773 123.31 145.653 123.378 145.576L126.428 141.759L126.436 141.751C126.504 141.669 126.61 141.66 126.693 141.728C126.723 141.751 126.739 141.789 126.754 141.819C126.754 141.834 126.761 141.842 126.762 141.849V141.872L126.771 145.499L127.126 145.499C127.231 145.499 127.315 145.581 127.315 145.679C127.315 145.778 127.233 145.86 127.126 145.861L126.771 145.862L126.774 146.769C126.774 146.867 126.691 146.95 126.585 146.95C126.487 146.951 126.403 146.868 126.403 146.77L126.401 145.864ZM126.4 145.501L126.393 142.403L123.899 145.508L126.4 145.501Z" fill="#F8F8F8"/>
<path d="M128.501 146.425C128.424 146.35 128.424 146.229 128.499 146.161C128.575 146.085 128.696 146.085 128.771 146.16C129.051 146.432 129.407 146.567 129.77 146.565C130.132 146.565 130.487 146.427 130.766 146.147C131.045 145.867 131.179 145.512 131.179 145.148C131.178 144.778 131.041 144.416 130.769 144.145C130.496 143.873 130.132 143.738 129.77 143.739C129.399 143.74 129.045 143.877 128.766 144.158C128.69 144.234 128.569 144.234 128.502 144.159C128.479 144.143 128.463 144.121 128.456 144.098V144.091C128.448 144.083 128.448 144.075 128.448 144.068C128.44 144.053 128.44 144.031 128.44 144.008C128.44 144 128.447 143.984 128.447 143.97L128.699 141.837C128.699 141.777 128.729 141.731 128.774 141.701C128.804 141.671 128.849 141.656 128.895 141.656L131.359 141.649C131.464 141.649 131.548 141.732 131.548 141.837C131.548 141.951 131.466 142.026 131.36 142.027L129.055 142.033L128.87 143.605C129.142 143.445 129.451 143.362 129.769 143.361C130.23 143.359 130.684 143.524 131.032 143.879C131.388 144.225 131.555 144.679 131.557 145.147C131.557 145.601 131.393 146.069 131.039 146.418C130.692 146.759 130.224 146.941 129.77 146.943C129.31 146.945 128.849 146.772 128.501 146.425Z" fill="#F8F8F8"/>
<path d="M133.529 142.8C133.89 142.157 134.5 141.679 135.377 141.646C135.475 141.639 135.559 141.721 135.566 141.82C135.566 141.926 135.484 142.009 135.386 142.017C134.646 142.049 134.177 142.428 133.847 142.981C133.666 143.291 133.547 143.661 133.472 144.04C133.788 143.676 134.257 143.44 134.777 143.439C135.752 143.436 136.533 144.22 136.535 145.18C136.538 146.147 135.762 146.928 134.786 146.931C133.842 146.933 133.069 146.187 133.036 145.25C133.021 145.137 133.021 145.024 133.021 144.903C133.026 144.2 133.167 143.428 133.529 142.8ZM133.406 145.219C133.406 145.256 133.414 145.286 133.421 145.317C133.421 145.339 133.421 145.354 133.414 145.37C133.506 146.042 134.089 146.562 134.784 146.56C135.555 146.558 136.173 145.937 136.171 145.181C136.169 144.426 135.547 143.808 134.777 143.81C134.021 143.812 133.403 144.433 133.405 145.189V145.219H133.406Z" fill="#F8F8F8"/>
<path d="M100.754 156.092L54.6226 156.212L54.6285 158.479L100.76 158.359L100.754 156.092Z" fill="#A6A6A6"/>
<path d="M87.2952 161.162L54.636 161.247L54.6419 163.514L87.3011 163.429L87.2952 161.162Z" fill="#A6A6A6"/>
<path d="M117.393 118.13L94.3855 118.19L94.3914 120.457L117.399 120.397L117.393 118.13Z" fill="#A6A6A6"/>
<path d="M289.493 24.3509H249.823V64.0206H289.493V24.3509Z" fill="#EBEBEB"/>
<path d="M270.316 30.7202C271.069 30.7202 271.665 31.3159 271.665 32.0684V32.7586C273.515 32.9777 275.083 33.5734 276.525 34.4834C277.027 34.7655 277.466 35.2359 277.466 35.9884C277.466 36.9607 276.683 37.7132 275.71 37.7132C275.397 37.7132 275.083 37.6194 274.769 37.4311C273.672 36.7731 272.605 36.302 271.539 36.0514V42.0728C276.306 43.2649 278.345 45.1773 278.345 48.5331C278.345 51.9827 275.648 54.2717 271.665 54.6483V56.5299C271.665 57.2824 271.069 57.8781 270.316 57.8781C269.564 57.8781 268.936 57.2824 268.936 56.5299V54.586C266.585 54.3354 264.42 53.4884 262.507 52.1395C261.974 51.7944 261.66 51.2925 261.66 50.6345C261.66 49.6622 262.413 48.9097 263.385 48.9097C263.762 48.9097 264.138 49.035 264.42 49.2548C265.893 50.3209 267.336 51.0426 269.061 51.3562V45.178C264.483 43.9866 262.35 42.2618 262.35 38.7177C262.35 35.3626 265.016 33.0414 268.935 32.7278V32.0691C268.936 31.3159 269.563 30.7202 270.316 30.7202ZM269.062 41.4134V35.8631C267.055 36.0514 266.051 37.1175 266.051 38.4972C266.051 39.8139 266.647 40.6294 269.062 41.4134ZM271.539 45.773V51.4801C273.546 51.261 274.644 50.2572 274.644 48.7522C274.644 47.3718 273.954 46.5255 271.539 45.773Z" fill="white"/>
</svg>
