<svg width="178" height="164" viewBox="0 0 178 164" fill="none" xmlns="http://www.w3.org/2000/svg">
<path d="M84.4034 157.741C82.8137 157.158 46.9065 128.461 46.2282 126.501C45.9671 125.759 49.8416 120.286 54.7108 113.805C55.7622 112.405 56.8563 110.967 57.9756 109.512C65.2325 100.057 73.1523 90.1952 73.1523 90.1952L97.2274 109.322L81.3878 128.113L77.9144 132.241C77.9144 132.241 86.7477 149.377 87.2601 151.606C87.7662 153.829 85.9931 158.324 84.4034 157.741Z" fill="#F7A9A0"/>
<path d="M84.4035 157.741C82.8138 157.158 46.9066 128.461 46.2283 126.501C45.9147 125.596 51.6988 117.704 57.9764 109.512L81.3886 128.113L77.9152 132.241C77.9152 132.241 86.7485 149.377 87.2609 151.606C87.7663 153.829 85.9932 158.324 84.4035 157.741Z" fill="white"/>
<path d="M84.4034 157.741C82.8137 157.158 46.9065 128.461 46.2282 126.501C45.9671 125.759 49.8416 120.286 54.7108 113.805L77.9144 132.24C77.9144 132.24 86.7477 149.376 87.2601 151.605C87.7662 153.829 85.9931 158.324 84.4034 157.741Z" fill="#FF7F00"/>
<path d="M85.0362 155.893C79.1352 150.935 54.8662 131.494 48.6565 127.041C48.6061 127.005 48.5795 127.038 48.6264 127.079C54.3678 132.121 78.7936 151.365 84.9578 155.992C85.0873 156.09 85.1608 155.998 85.0362 155.893Z" fill="#263238"/>
<path d="M85.984 148.469C84.6029 147.27 82.666 146.833 81.2086 147.061C79.8079 147.28 78.2504 147.918 77.2949 149.2C77.2676 149.236 77.3327 149.29 77.3677 149.258C79.5937 147.177 83.3898 146.82 85.9238 148.544C85.9749 148.579 86.0309 148.509 85.984 148.469Z" fill="#263238"/>
<path d="M79.7715 134.705C77.3887 132.747 73.916 131.365 70.8444 132.138C70.7254 132.169 70.7695 132.337 70.8703 132.358C73.9454 132.976 76.6845 133.793 79.5755 135.035C79.7799 135.123 79.9416 134.845 79.7715 134.705Z" fill="#263238"/>
<path d="M81.0518 136.917C78.669 134.958 75.1963 133.576 72.1247 134.35C72.0057 134.38 72.0498 134.549 72.1513 134.569C75.2264 135.187 77.9655 136.005 80.8565 137.246C81.0602 137.334 81.2226 137.057 81.0518 136.917Z" fill="#263238"/>
<path d="M82.3321 139.128C79.9493 137.169 76.4766 135.788 73.405 136.561C73.286 136.591 73.3301 136.76 73.4316 136.78C76.5067 137.398 79.2458 138.216 82.1368 139.458C82.3405 139.545 82.5029 139.268 82.3321 139.128Z" fill="#263238"/>
<path d="M83.6124 141.339C81.2296 139.381 77.7576 137.999 74.6853 138.772C74.5663 138.803 74.6104 138.971 74.7119 138.991C77.787 139.61 80.5261 140.427 83.4171 141.669C83.6208 141.757 83.7832 141.48 83.6124 141.339Z" fill="#263238"/>
<path d="M54.7591 122.549C52.0501 120.397 48.7006 124.604 51.4138 126.76C54.1228 128.912 57.473 124.705 54.7591 122.549Z" fill="white"/>
<path d="M87.5128 130.357C87.1012 128.371 84.7758 128.132 83.184 128.58C80.6073 129.308 77.8654 131.023 76.0713 132.992C76.0272 133.04 76.0496 133.092 76.0916 133.121C76.0048 133.334 76.093 133.642 76.3695 133.661C79.033 133.845 81.8575 134.373 84.4986 133.734C86.04 133.362 87.9013 132.236 87.5128 130.357ZM80.4645 133.116C79.1527 133.057 77.8507 132.934 76.5368 132.924C77.9263 132.067 79.2717 131.155 80.7473 130.439C81.4515 130.097 82.1809 129.76 82.9264 129.517C84.0863 129.14 88.0595 129.016 86.2045 131.828C85.1818 133.379 82.029 133.185 80.4645 133.116Z" fill="#263238"/>
<path d="M69.3723 129.101C71.2126 131.1 73.8537 132.232 76.17 133.559C76.4101 133.697 76.6544 133.49 76.7013 133.265C76.7517 133.264 76.7993 133.234 76.7895 133.169C76.3926 130.535 75.0668 127.585 73.3294 125.548C72.2563 124.29 70.1899 123.197 68.7437 124.618C67.3766 125.963 68.2978 127.934 69.3723 129.101ZM69.0132 126.568C69.0349 123.198 72.2696 125.511 73.0235 126.469C73.5079 127.085 73.9272 127.771 74.322 128.447C75.1501 129.862 75.7619 131.368 76.4409 132.853C75.3426 132.131 74.1932 131.51 73.0697 130.829C71.7306 130.017 69.0013 128.426 69.0132 126.568Z" fill="#263238"/>
<path d="M121.545 72.5426C119.895 85.0509 89.0703 121.159 85.508 125.3C84.983 125.911 84.6967 126.243 84.6967 126.243L59.1985 106.649L59.4918 106.27L81.9457 76.87L14.9711 76.4759L40.4 56.703C40.4 56.703 42.4629 57.893 46.7511 57.2672C61.5323 55.1035 94.8572 50.3134 102.715 50.6298C112.853 51.047 123.059 61.0668 121.545 72.5426Z" fill="#37474F"/>
<path d="M90.0097 65.9409C89.1396 66.8229 88.4438 67.9254 87.6934 68.9096C86.9003 69.9505 86.0932 70.9809 85.3008 72.0225C85.2931 72.033 85.2854 72.0435 85.2777 72.0533C85.4184 71.7481 85.5563 71.4415 85.7019 71.1398C86.2024 70.1038 86.6028 69.0335 87.1943 68.043C87.2307 67.9821 87.1383 67.9261 87.1012 67.9856C86.4936 68.9691 85.788 69.9036 85.2672 70.9389C85.0222 71.4261 84.7905 71.9189 84.5742 72.4194C84.4559 72.6938 84.3348 72.9682 84.2284 73.2475C84.1801 73.3749 84.1185 73.5107 84.0828 73.6479C83.7279 74.1309 83.3765 74.6167 83.0363 75.1102C82.2803 76.205 81.6132 77.3628 80.8474 78.4492C80.8061 78.5073 80.8992 78.5612 80.9405 78.5059C81.7154 77.4846 82.5841 76.5319 83.3716 75.5183C84.1731 74.4865 84.9333 73.4253 85.6837 72.3564C86.4159 71.3134 87.1334 70.2599 87.8649 69.2162C88.6013 68.1648 89.4756 67.1281 90.0734 65.9906C90.0937 65.9521 90.044 65.9059 90.0097 65.9409Z" fill="#263238"/>
<path d="M18.714 3.111C13.401 7.2942 8.14609 34.6264 6.08879 37.6469C4.63419 39.7826 2.81839 41.9225 2.90029 43.1223C2.98219 44.3228 8.08309 50.2462 17.7179 52.111C27.3527 53.9765 36.8594 49.374 37.8268 48.1616C38.7942 46.9492 36.249 42.7947 36.347 39.0448C36.445 35.2949 39.7784 14.8339 37.733 8.7306C35.4174 1.8202 24.7991 -1.6791 18.714 3.111Z" fill="#263238"/>
<path d="M38.503 47.001C37.4089 44.5139 37.0036 42.003 37.054 39.2667C37.1086 36.2784 37.4901 33.288 37.8205 30.3193C38.1691 27.1889 38.5191 24.0578 38.8614 20.9267C39.1638 18.161 39.5383 15.3687 39.0455 12.61C38.5653 9.92271 37.3704 7.40971 35.6344 5.35661C35.6092 5.32721 35.5595 5.35941 35.584 5.39161C37.1975 7.50981 38.3014 9.97171 38.7522 12.6345C39.2527 15.592 38.7711 18.6111 38.4379 21.5679C38.0914 24.6388 37.7526 27.7104 37.4145 30.7813C37.1037 33.6065 36.7565 36.4499 36.725 39.294C36.6956 41.912 36.9567 44.8254 38.349 47.0808C38.3994 47.1648 38.5443 47.0948 38.503 47.001Z" fill="#263238"/>
<path d="M19.5442 2.92829C17.0837 4.26529 15.8755 6.9106 14.8941 9.4523C13.5599 12.9061 12.3398 16.4061 11.1883 19.9264C9.9997 23.5587 9.0169 27.2526 7.8528 30.8912C6.688 34.5319 4.9569 37.6791 2.8345 40.8193C2.7869 40.89 2.8758 40.9768 2.9339 40.9089C7.5196 35.5448 8.93361 28.2865 11.0343 21.7149C12.197 18.077 13.4171 14.4573 14.7079 10.8635C15.7523 7.95639 16.8268 4.6587 19.5827 2.9864C19.6219 2.9633 19.5827 2.90729 19.5442 2.92829Z" fill="#263238"/>
<path d="M21.7961 1.9336C16.6434 3.9531 14.605 9.7155 12.9432 14.6386C10.9692 20.4878 9.54822 26.5022 7.81152 32.4228C6.83362 35.7562 5.95092 39.3829 3.78442 42.1549C3.71862 42.2396 3.83761 42.3481 3.90691 42.2655C5.57781 40.2845 6.42762 37.8107 7.21862 35.3656C8.16642 32.4361 8.98821 29.466 9.80651 26.498C11.427 20.6173 12.911 14.5483 15.4485 8.98679C16.7841 6.06009 18.777 3.2034 21.8157 1.9903C21.85 1.9756 21.8311 1.9196 21.7961 1.9336Z" fill="#263238"/>
<path d="M23.3508 38.9321C27.8896 45.4498 43.4534 62.3618 54.2138 64.8139C60.1435 66.1656 88.7966 70.1731 92.7236 66.6003C97.3233 62.4157 95.1897 46.6398 91.5336 46.4963C80.3735 46.0574 59.72 48.2414 54.561 47.1025C52.2272 46.5873 39.8575 38.6094 26.6485 32.2268C21.6533 29.8139 20.4213 34.7265 23.3508 38.9321Z" fill="#F7A9A0"/>
<path d="M85.4576 45.6297L83.5438 69.2463C83.5438 69.2463 57.5458 68.8361 49.6974 64.4226C41.849 60.0091 29.074 48.7545 24.1852 40.9334C19.2971 33.1123 20.9323 28.8444 30.4733 33.6555C40.0143 38.4659 52.895 46.1869 54.582 46.5943C56.2697 47.0017 85.4576 45.6297 85.4576 45.6297Z" fill="#FF7F00"/>
<path d="M81.2779 47.2712C81.2772 47.2103 81.1841 47.1858 81.1715 47.2523C80.8495 48.8728 80.7165 50.5409 80.5324 52.1831C80.342 53.8813 80.1782 55.5837 80.0256 57.2854C79.7211 60.6783 79.3634 64.0929 79.2577 67.4984C79.2528 67.6461 79.4495 67.6433 79.4712 67.5054C79.9829 64.1615 80.2538 60.7623 80.5709 57.3946C80.7277 55.7251 80.8782 54.0535 80.9979 52.3805C81.119 50.6851 81.3003 48.9722 81.2779 47.2712Z" fill="#263238"/>
<path d="M0.0722961 82.0836C1.4975 82.5428 42.0324 70.8143 42.0324 70.8143L37.2458 56.7408C37.2458 56.7408 39.609 52.2153 38.5114 47.8613C37.0456 42.0457 26.2796 32.4837 25.4347 31.9216C22.0383 29.6704 18.854 29.7089 16.0407 31.2034C4.32059 37.4306 0.0722961 82.0836 0.0722961 82.0836Z" fill="#FF7F00"/>
<path d="M30.9962 36.9889C32.0399 38.2041 33.1606 39.3591 34.2386 40.5491C33.7353 39.6622 33.2369 38.7725 32.7007 37.9045C32.6902 37.887 32.7133 37.8667 32.7266 37.8842C33.5057 38.9209 34.2204 39.9926 34.7825 41.1574C35.5812 42.0653 36.3442 43.0019 37.0169 44.0099C37.8247 45.2202 38.5009 46.5159 38.8579 47.9341C39.2149 49.3495 39.2142 50.8405 38.9811 52.2748C38.7109 53.9387 38.1768 55.541 37.6126 57.1244C37.5377 57.3344 37.2416 57.2021 37.2983 56.997C38.0599 54.2488 38.9223 51.3466 38.3119 48.4808C37.7085 45.6507 35.9326 43.2441 34.2085 40.9908C33.1704 39.6335 32.1162 38.272 30.9108 37.0568C30.8618 37.0078 30.95 36.935 30.9962 36.9889Z" fill="#263238"/>
<path d="M18.5733 31.9951C18.7343 32.7308 22.1636 37.537 25.5152 37.4285C26.6065 37.3914 26.6688 31.4246 26.6688 31.4246L26.7745 30.985L28.2431 24.8327L20.0216 19.4462C20.0216 19.4462 18.5096 31.6829 18.5733 31.9951Z" fill="#F7A9A0"/>
<path d="M28.2424 24.8306L26.7724 30.9836C25.0224 30.2976 21.2704 28.3166 19.5134 23.6266C19.7654 21.5056 19.9824 19.7416 20.0104 19.4826C20.0174 19.4616 20.0174 19.4476 20.0174 19.4476L21.0604 20.0776L28.2424 24.8306Z" fill="#263238"/>
<path d="M37.8457 17.2748C37.1499 28.3537 30.4362 29.1881 28.0471 29.0355C25.8785 28.8969 18.5124 28.15 18.0595 17.0585C17.6066 5.967 22.9777 2.78831 27.954 2.84291C32.9303 2.89681 38.5408 6.1959 37.8457 17.2748Z" fill="#F7A9A0"/>
<path d="M36.1853 16.2052C35.9312 16.1408 35.7072 16.0393 35.4629 15.949C35.1864 15.8475 34.9561 15.7957 34.7755 15.5472C34.6782 15.4142 34.7195 15.1755 34.8399 15.0698C35.1206 14.822 35.4895 14.8626 35.8269 14.9704C36.193 15.088 36.445 15.2721 36.6543 15.5941C36.8573 15.9063 36.5206 16.2906 36.1853 16.2052Z" fill="#263238"/>
<path d="M28.9424 15.2644C29.2049 15.2686 29.4471 15.2294 29.7068 15.207C30.0001 15.1818 30.236 15.1916 30.4754 14.9998C30.6035 14.8969 30.6266 14.6561 30.5384 14.5217C30.3326 14.2095 29.9658 14.1514 29.6116 14.1668C29.2273 14.1843 28.9361 14.2963 28.6491 14.5518C28.3726 14.7996 28.5966 15.2588 28.9424 15.2644Z" fill="#263238"/>
<path d="M30.2815 17.1201C30.2787 17.0907 30.2192 17.1495 30.2164 17.1803C30.1576 17.9342 29.9637 18.7875 29.2567 18.9625C29.235 18.9681 29.2329 19.0059 29.2581 19.0052C30.1009 18.9793 30.3473 17.8439 30.2815 17.1201Z" fill="#263238"/>
<path d="M29.697 16.2619C28.4986 16.0372 28.1381 18.4508 29.2483 18.6587C30.341 18.8631 30.7015 16.4502 29.697 16.2619Z" fill="#263238"/>
<path d="M29.2042 16.3186C28.9732 16.4236 28.7303 16.6336 28.4727 16.621C28.1745 16.6063 27.9897 16.32 27.8343 16.0484C27.8182 16.0204 27.7944 16.0379 27.7888 16.0701C27.7125 16.5314 27.8196 17.0326 28.3054 17.1754C28.7478 17.3056 29.1342 16.9451 29.319 16.4971C29.3533 16.4145 29.2973 16.2766 29.2042 16.3186Z" fill="#263238"/>
<path d="M34.4129 17.5527C34.4234 17.5254 34.4654 17.5975 34.4598 17.6276C34.3184 18.3703 34.282 19.2453 34.9183 19.5995C34.9379 19.6107 34.9302 19.6478 34.9057 19.6401C34.1 19.3944 34.1602 18.2338 34.4129 17.5527Z" fill="#263238"/>
<path d="M35.2025 16.8779C36.4177 16.9759 36.1328 19.3993 35.0072 19.3083C33.8991 19.2194 34.1833 16.796 35.2025 16.8779Z" fill="#263238"/>
<path d="M35.689 17.0963C35.8654 17.2475 36.0271 17.503 36.2546 17.545C36.5178 17.5933 36.7446 17.3546 36.9434 17.1229C36.9644 17.0991 36.9805 17.1215 36.9777 17.1537C36.9357 17.6185 36.7264 18.0826 36.2707 18.1197C35.8549 18.1533 35.6036 17.7207 35.5476 17.2461C35.5371 17.1586 35.6176 17.0361 35.689 17.0963Z" fill="#263238"/>
<path d="M29.2392 23.5986C29.3827 23.8072 29.5129 24.0809 29.7775 24.1565C30.0316 24.2286 30.3564 24.1719 30.6112 24.1264C30.6364 24.1215 30.6553 24.1516 30.6357 24.1705C30.3872 24.4176 29.9476 24.5163 29.6151 24.3889C29.291 24.2643 29.1818 23.9416 29.1608 23.6182C29.158 23.5727 29.2182 23.5678 29.2392 23.5986Z" fill="#263238"/>
<path d="M32.7413 21.3222C32.7413 21.3222 32.742 22.4618 32.6699 22.9896C32.6629 23.0393 32.532 23.0449 32.3514 23.0309C32.3423 23.0323 32.3374 23.0351 32.3304 23.0288C31.3791 23.0463 30.4852 22.5955 30.0239 21.7576C29.9945 21.7009 30.0687 21.6561 30.1121 21.6953C30.7372 22.3015 31.4876 22.5388 32.3122 22.6662C32.3696 22.5255 32.2457 20.7146 32.3297 20.7195C32.6216 20.7342 33.1627 21.0086 33.4903 21.1556C33.5575 18.7819 33.2432 16.4166 33.3454 14.0541C33.3503 13.9701 33.4735 13.9617 33.4875 14.0387C33.9922 16.4943 33.9747 19.2278 33.9691 21.6813C33.9719 21.9858 32.9401 21.4405 32.7413 21.3222Z" fill="#263238"/>
<path d="M17.9727 17.657C20.6215 17.0375 21.2662 14.5413 21.2662 14.5413C24.5282 13.9022 26.6422 11.9226 26.8599 11.7224C26.7388 11.931 25.8652 13.4381 25.3962 14.1927C32.5789 14.381 35.8479 9.5538 35.8479 9.5538C37.6091 12.2684 37.7498 13.7944 37.9213 14.577C37.9213 14.577 38.8789 10.3504 37.3081 7.04709C35.3859 3.00249 31.6066 2.8828 31.6066 2.8828C31.6066 2.8828 26.5834 0.136696 21.4461 3.7753C15.9133 7.7009 17.9727 17.657 17.9727 17.657Z" fill="#263238"/>
<path d="M30.8905 14.1724C29.6578 14.556 28.3446 14.7121 27.0692 14.7149C27.0587 14.7149 27.0594 14.6988 27.0699 14.6988C29.1342 14.5644 31.0991 13.919 32.7959 12.7192C33.5127 12.2124 34.1623 11.6237 34.7321 10.9552C35.3278 10.2566 35.9452 9.40471 36.214 8.51851C36.2343 8.45131 36.3393 8.48281 36.319 8.55071C36.0348 9.48731 35.7632 10.3483 35.1885 11.1547C34.6425 11.9205 33.9495 12.5939 33.1648 13.1126C32.462 13.576 31.6934 13.9225 30.8905 14.1724Z" fill="#263238"/>
<path d="M19.7668 18.0196C19.7668 18.0196 17.8866 14.2326 16.2031 14.8535C14.5203 15.4744 15.5745 20.7118 17.2979 21.6659C19.0213 22.62 19.9355 21.0422 19.9355 21.0422L19.7668 18.0196Z" fill="#F7A9A0"/>
<path d="M16.5426 16.3473C16.5139 16.3403 16.502 16.3809 16.5258 16.3949C17.7277 17.1061 18.2233 18.3941 18.5096 19.6954C18.2002 19.1648 17.7207 18.8274 17.0186 19.1844C16.9815 19.2033 17.006 19.26 17.0431 19.2579C17.5842 19.2243 17.9489 19.372 18.2401 19.8452C18.4459 20.1805 18.5607 20.5816 18.6888 20.9519C18.7315 21.0751 18.9471 21.045 18.9233 20.9071C18.9212 20.8973 18.9191 20.8861 18.917 20.8763C19.1949 19.2488 18.2695 16.775 16.5426 16.3473Z" fill="#263238"/>
<path d="M9.9234 41.1189C6.6649 59.6073 9.8149 73.4554 12.9558 75.1704C21.4104 79.7869 41.7111 70.4223 47.4385 68.5624C49.7541 67.8106 39.2023 50.1062 36.8391 51.1975C31.272 53.7693 23.4719 58.1366 23.1576 58.1044C22.5304 58.0393 21.7975 53.3213 18.5663 39.5684C15.9532 28.4419 11.2562 33.5596 9.9234 41.1189Z" fill="#F7A9A0"/>
<path d="M65.8968 42.4384C66.4764 44.761 60.6286 45.7039 60.6286 45.7039C60.6286 45.7039 62.2022 46.2114 62.9456 47.6163C63.7968 49.2242 61.6485 51.264 61.6485 51.264C61.6485 51.264 63.1353 52.1075 63.7709 53.6699C64.431 55.2911 62.5564 57.6585 62.5564 57.6585C62.5564 57.6585 63.5091 59.2055 63.0898 60.9492C62.3737 63.9312 57.8027 65.1058 55.1168 66.3917C52.2391 67.7686 47.4791 68.2747 45.3182 69.247L35.9585 52.1047C35.9585 52.1047 45.0011 42.5308 50.1615 41.0461C53.0252 40.2215 65.0113 38.8887 65.8968 42.4384Z" fill="#F7A9A0"/>
<path d="M60.5649 45.65C57.3106 45.5079 54.0283 46.1456 50.8678 46.7952C50.7978 46.8099 50.8209 46.9198 50.8916 46.9044C54.0269 46.2219 57.4205 46.3612 60.5768 45.804C60.6643 45.7893 60.6524 45.6535 60.5649 45.65Z" fill="#263238"/>
<path d="M61.5071 51.0491C60.77 51.0393 60.0315 51.2724 59.3238 51.4551C58.5615 51.6518 57.8034 51.8618 57.0481 52.0837C55.5361 52.5275 54.0346 53.0063 52.5478 53.5285C52.482 53.5516 52.5009 53.658 52.5716 53.6377C54.0794 53.1981 55.5928 52.7809 57.1174 52.405C57.8804 52.2167 58.6448 52.0354 59.4106 51.859C60.1232 51.6945 60.8883 51.5811 61.5512 51.2605C61.6499 51.2122 61.6184 51.0505 61.5071 51.0491Z" fill="#263238"/>
<path d="M62.492 57.6753C61.8515 57.641 61.1494 57.9546 60.546 58.1457C59.8614 58.3627 59.1761 58.5755 58.4887 58.7841C57.1153 59.202 55.7412 59.6192 54.3538 59.9888C54.2845 60.007 54.3076 60.1162 54.3776 60.098C55.7888 59.7298 57.2056 59.3805 58.614 58.999C59.3056 58.8121 59.9958 58.621 60.6853 58.4264C61.2712 58.2605 62.023 58.1205 62.5158 57.7432C62.5438 57.7222 62.5242 57.6767 62.492 57.6753Z" fill="#263238"/>
<path d="M36.2504 51.0484L45.9692 71.837C45.9692 71.837 15.8048 80.6388 11.7119 75.3426C7.61899 70.0471 7.90529 53.3913 9.82539 41.8686C11.7455 30.3459 16.9297 30.1254 19.1998 40.5421C21.4692 50.9588 22.8062 57.5353 23.2143 57.4765C23.6224 57.4184 36.2504 51.0484 36.2504 51.0484Z" fill="#FF7F00"/>
<path d="M32.3136 53.8428C32.2821 53.791 32.1897 53.8162 32.2121 53.8806C32.7532 55.4416 33.4812 56.9487 34.1511 58.4586C34.8448 60.0203 35.5637 61.5722 36.2917 63.1178C37.7428 66.1992 39.1596 69.3268 40.7885 72.32C40.8592 72.4502 41.0272 72.348 40.9761 72.2185C39.728 69.0741 38.2454 66.0039 36.8174 62.9372C36.1097 61.4175 35.3943 59.8985 34.653 58.3949C33.9005 56.8696 33.1921 55.2995 32.3136 53.8428Z" fill="#263238"/>
<path d="M30.0295 75.6576C29.2014 75.6338 28.3173 75.9355 27.5039 76.0797C26.6331 76.2344 25.7588 76.3723 24.8824 76.4871C23.1856 76.709 21.4727 76.8812 19.7612 76.926C18.0763 76.9701 13.9071 76.7188 12.6247 75.5561C11.5033 74.539 10.7144 72.929 10.4449 71.802C9.9794 69.856 9.6595 67.861 9.4103 65.8758C8.8811 61.6632 8.8454 57.4198 9.0148 53.1827C9.0624 52.0039 9.1352 50.8265 9.2213 49.6505C9.3088 48.4535 9.44951 47.2502 9.49011 46.0518C9.49151 46.0049 9.4194 45.9979 9.4089 46.0427C8.9728 47.9355 8.7824 49.9137 8.6102 51.8541C8.5381 50.6382 8.39251 49.4258 8.37221 48.2085C8.37081 48.1378 8.2616 48.1406 8.263 48.2113C8.2847 49.4937 8.19861 50.7733 8.24621 52.0564C8.27281 52.7788 8.3456 53.4935 8.4261 54.2075C8.3246 55.835 8.2805 57.4646 8.2959 59.0977C8.3372 63.3488 8.65781 67.7462 9.78971 71.8608C10.2874 73.671 11.0539 75.4028 12.7108 76.3716C13.6726 76.9344 15.3974 77.3131 16.6798 77.4125C19.5855 77.6379 22.5101 77.3943 25.3689 76.8616C26.1711 76.7118 26.9698 76.5445 27.765 76.3632C28.5098 76.1931 29.3722 76.0923 30.0519 75.7346C30.0904 75.7136 30.0673 75.659 30.0295 75.6576Z" fill="#263238"/>
<path d="M36.634 51.2094L36.6368 51.2143L36.6361 51.2129L36.634 51.2094Z" fill="#263238"/>
<path d="M36.2077 50.655C33.9887 51.7645 31.7599 52.8817 29.5514 54.0122C28.4601 54.5708 27.3674 55.1273 26.2775 55.6901C25.2303 56.2312 23.2283 57.3113 23.2283 57.3092C23.2038 56.8094 22.8209 55.3569 22.6095 54.421C22.3785 53.4004 22.1433 52.3805 21.8822 51.3669C21.8143 51.1037 21.7387 50.8426 21.6694 50.5801C21.6218 50.0929 21.5777 49.605 21.5329 49.1171C21.4608 48.3324 21.3922 47.5302 21.2725 46.7511C21.2683 46.7231 21.2319 46.7238 21.2291 46.7525C21.1507 47.498 21.1696 48.2505 21.2424 48.9995C20.9029 47.7731 20.5543 46.5495 20.191 45.3315C20.1791 45.2902 20.1203 45.3098 20.128 45.3504C20.5242 47.4084 20.9449 49.465 21.4174 51.5083C21.6463 52.4988 21.8997 53.4844 22.158 54.4672C22.4079 55.4185 22.9497 57.648 23.0372 57.6179C24.1796 57.2238 25.2716 56.6687 26.3615 56.1514C27.4969 55.6124 28.6253 55.0587 29.7495 54.4952C31.9307 53.4032 34.1294 52.2909 36.2364 51.0596C36.2329 51.0715 36.3792 51.3424 36.3995 51.3746C36.4555 51.4628 36.5276 51.3095 36.5017 51.215C36.4562 51.0477 36.2553 50.6312 36.2077 50.655Z" fill="#263238"/>
<path d="M55.345 71.1636H83.7699L96.2341 30.9339H67.8099L55.345 71.1636Z" fill="#263238"/>
<path d="M56.7415 71.1636H85.1664L97.6306 30.9339H69.2064L56.7415 71.1636Z" fill="#455A64"/>
<path d="M80.1733 49.7863C79.7701 51.313 78.2063 52.5513 76.6789 52.5513C75.1522 52.5513 74.2408 51.3137 74.6433 49.7863C75.0465 48.2596 76.6103 47.0213 78.1377 47.0213C79.6651 47.0213 80.5765 48.2596 80.1733 49.7863Z" fill="white"/>
<path d="M93.2563 45.0424C94.6472 47.5932 98.3215 50.7313 98.6981 52.8579C99.0383 54.778 97.471 55.5473 97.471 55.5473C97.471 55.5473 99.6662 56.493 99.69 58.4789C99.7026 59.5009 98.08 60.4179 98.08 60.4179C98.08 60.4179 99.8062 61.2523 99.7187 63.0198C99.6487 64.4282 98.0345 65.1366 98.0345 65.1366C98.0345 65.1366 99.3169 66.7088 98.7856 68.1207C97.7083 70.9837 85.6242 71.6599 83.5081 67.3129C82.5218 65.2871 85.4828 65.2822 85.4828 65.2822C85.4828 65.2822 81.224 64.2609 81.021 61.7731C80.818 59.2853 84.6645 59.5114 84.6645 59.5114C84.6645 59.5114 80.5457 58.4859 80.5954 55.8854C80.6472 53.1785 84.4566 54.0633 84.4566 54.0633C84.4566 54.0633 81.6678 52.3917 82.1613 50.41C82.9768 47.1368 89.0276 51.026 91.6477 50.2469L93.2563 45.0424Z" fill="#F7A9A0"/>
<path d="M97.7958 65.2857C97.8357 65.2801 97.8511 65.3347 97.8112 65.3473C93.8905 66.538 89.2187 66.6451 85.3218 65.3018C85.1937 65.2577 85.2098 65.0309 85.3603 65.0526C89.6415 65.6693 93.4901 65.8751 97.7958 65.2857Z" fill="#263238"/>
<path d="M98.1409 60.4403C98.1878 60.434 98.199 60.511 98.1507 60.5257C94.104 61.7311 88.8386 61.7066 84.5287 59.6297C84.381 59.5583 84.3194 59.3462 84.4965 59.4155C87.4666 60.5789 94.2671 60.9905 98.1409 60.4403Z" fill="#263238"/>
<path d="M84.1906 53.8134C88.3997 55.6453 92.7726 55.9435 97.3079 55.6047C97.3667 55.6005 97.3674 55.6845 97.3191 55.7013C95.1456 56.472 92.2322 56.3866 89.9705 56.1283C87.8047 55.8812 85.8993 55.2232 84.1262 53.9604C84.0576 53.9121 84.1003 53.7749 84.1906 53.8134Z" fill="#263238"/>
<path d="M177.489 125.218C176.901 126.805 148.089 162.62 146.127 163.291C145.385 163.55 139.924 159.658 133.459 154.767C132.063 153.712 130.628 152.613 129.177 151.489C119.745 144.202 109.909 136.25 109.909 136.25L129.113 112.236L147.853 128.136L151.97 131.623C151.97 131.623 169.134 122.845 171.365 122.339C173.588 121.842 178.077 123.629 177.489 125.218Z" fill="#F7A9A0"/>
<path d="M177.489 125.218C176.901 126.805 148.089 162.62 146.127 163.291C145.222 163.602 137.348 157.793 129.176 151.489L147.851 128.136L151.968 131.623C151.968 131.623 169.133 122.845 171.364 122.339C173.588 121.842 178.077 123.629 177.489 125.218Z" fill="white"/>
<path d="M177.489 125.218C176.901 126.805 148.089 162.62 146.127 163.291C145.385 163.55 139.924 159.658 133.459 154.767L151.969 131.623C151.969 131.623 169.134 122.845 171.364 122.34C173.588 121.841 178.077 123.629 177.489 125.218Z" fill="#FF7F00"/>
<path d="M175.644 124.578C170.667 130.463 151.147 154.669 146.674 160.865C146.638 160.915 146.671 160.942 146.712 160.895C151.773 155.17 171.095 130.806 175.742 124.658C175.84 124.527 175.749 124.454 175.644 124.578Z" fill="#263238"/>
<path d="M168.221 123.607C167.018 124.984 166.575 126.919 166.798 128.378C167.013 129.78 167.645 131.339 168.924 132.299C168.961 132.326 169.015 132.261 168.982 132.226C166.909 129.993 166.564 126.196 168.297 123.668C168.332 123.616 168.263 123.559 168.221 123.607Z" fill="#263238"/>
<path d="M154.438 129.775C152.472 132.151 151.079 135.619 151.843 138.693C151.872 138.812 152.041 138.769 152.062 138.668C152.69 135.595 153.517 132.859 154.767 129.972C154.856 129.768 154.579 129.605 154.438 129.775Z" fill="#263238"/>
<path d="M156.654 128.502C154.688 130.878 153.295 134.346 154.058 137.421C154.088 137.54 154.256 137.496 154.277 137.395C154.905 134.322 155.732 131.585 156.983 128.699C157.071 128.495 156.795 128.332 156.654 128.502Z" fill="#263238"/>
<path d="M158.869 127.229C156.903 129.605 155.51 133.073 156.274 136.147C156.303 136.266 156.473 136.223 156.493 136.121C157.121 133.048 157.948 130.312 159.198 127.425C159.287 127.222 159.01 127.059 158.869 127.229Z" fill="#263238"/>
<path d="M161.085 125.955C159.119 128.332 157.726 131.8 158.489 134.874C158.519 134.993 158.688 134.95 158.708 134.848C159.336 131.775 160.163 129.039 161.414 126.151C161.502 125.948 161.226 125.785 161.085 125.955Z" fill="#263238"/>
<path d="M142.202 154.749C140.041 157.451 144.237 160.814 146.402 158.107C148.563 155.404 144.367 152.042 142.202 154.749Z" fill="white"/>
<path d="M150.115 122.02C148.128 122.425 147.881 124.75 148.325 126.343C149.044 128.921 150.75 131.669 152.714 133.469C152.762 133.513 152.814 133.491 152.842 133.45C153.056 133.537 153.364 133.45 153.384 133.174C153.577 130.511 154.114 127.688 153.484 125.045C153.115 123.502 151.995 121.637 150.115 122.02ZM152.851 129.077C152.788 130.389 152.66 131.69 152.646 133.004C151.794 131.611 150.886 130.263 150.175 128.786C149.835 128.081 149.5 127.35 149.26 126.604C148.886 125.443 148.775 121.468 151.582 123.333C153.129 124.36 152.926 127.513 152.851 129.077Z" fill="#263238"/>
<path d="M148.801 140.156C150.806 138.322 151.946 135.685 153.281 133.373C153.42 133.133 153.214 132.888 152.988 132.841C152.987 132.79 152.957 132.742 152.892 132.752C150.257 133.14 147.303 134.456 145.26 136.187C143.999 137.256 142.898 139.319 144.316 140.769C145.656 142.141 147.631 141.227 148.801 140.156ZM146.267 140.506C142.898 140.473 145.219 137.247 146.181 136.496C146.798 136.014 147.485 135.596 148.162 135.204C149.58 134.38 151.088 133.774 152.575 133.099C151.85 134.194 151.225 135.342 150.54 136.464C149.725 137.801 148.124 140.524 146.267 140.506Z" fill="#263238"/>
<path d="M146.848 124.513L126.863 151.477L59.4253 104.682L52.9223 100.167C52.9223 100.167 51.0813 101.406 48.3093 102.939C44.4593 105.067 38.8173 107.762 33.8263 108.497C25.4543 109.736 11.4753 109.603 4.41931 100.167C-1.52369 92.2217 1.70401 81.8561 1.70401 81.8561L10.8964 77.9088C10.8964 77.9088 32.6503 59.7844 46.7413 59.2377C52.7263 58.9997 61.4413 63.5357 69.5123 68.2747C77.5763 73.0067 146.848 124.513 146.848 124.513Z" fill="#37474F"/>
<path d="M52.9223 100.167C52.9223 100.167 51.0813 101.406 48.3093 102.939C43.4093 97.0727 33.0353 86.4187 32.7203 86.0407L52.9223 100.167Z" fill="#263238"/>
<path d="M18.868 71.8412C17.5674 72.7442 16.3095 73.7032 15.0271 74.63C13.765 75.5421 12.4623 76.3982 11.2632 77.3936C10.0438 78.4058 8.8874 79.4873 7.738 80.5779C7.1836 81.1043 6.63341 81.6349 6.09721 82.1795C5.56591 82.7199 4.97161 83.2617 4.53131 83.8791C4.49001 83.9365 4.57331 84.0051 4.62721 83.9701C5.24811 83.5718 5.80601 83.0258 6.37021 82.5519C6.97921 82.0402 7.58051 81.5201 8.18671 81.0049C9.35571 80.0109 10.5478 79.0449 11.7147 78.0481C12.8732 77.0576 13.9477 75.974 15.095 74.9716C16.3235 73.8978 17.6185 72.8989 18.8946 71.8825C18.9177 71.8643 18.8946 71.823 18.868 71.8412Z" fill="#263238"/>
<path d="M142.156 123.545C140.858 124.945 139.659 126.452 138.449 127.929C137.235 129.413 136.029 130.902 134.831 132.398C132.434 135.392 130.017 138.373 127.661 141.4C126.366 143.063 125.089 144.737 123.886 146.467C123.832 146.544 123.956 146.631 124.018 146.563C126.597 143.728 128.953 140.704 131.345 137.712C133.741 134.715 136.129 131.71 138.479 128.677C139.766 127.017 141.092 125.366 142.274 123.631C142.322 123.562 142.212 123.485 142.156 123.545Z" fill="#263238"/>
<path d="M86.8107 123.82C83.4556 121.177 79.9759 118.68 76.4976 116.2C73.0361 113.732 69.5774 111.258 66.0641 108.864C65.0554 108.176 64.0383 107.503 63.0219 106.828C62.0076 106.154 60.952 105.531 59.958 104.831C59.8999 104.79 59.8488 104.886 59.9048 104.927C60.8176 105.581 61.6793 106.315 62.576 106.994C63.4321 107.642 64.2819 108.298 65.145 108.937C66.8299 110.184 68.5316 111.408 70.2305 112.637C73.6759 115.127 77.1472 117.587 80.6528 119.991C82.6436 121.357 84.6253 122.727 86.6595 124.026C86.7813 124.104 86.9262 123.911 86.8107 123.82Z" fill="#263238"/>
<path d="M108.377 95.9989C105.276 93.4292 101.953 91.1185 98.7037 88.7434C95.4165 86.3403 92.1461 83.9148 88.8456 81.5292C85.5717 79.1625 82.2978 76.7958 79.0239 74.4291C75.8501 72.1345 72.6917 69.8035 69.3394 67.7721C67.5054 66.6605 65.6238 65.6301 63.6897 64.7019C61.8116 63.8003 59.8593 62.8833 57.8503 62.317C57.7901 62.3002 57.7572 62.3877 57.8104 62.4178C59.4631 63.3404 61.1984 64.1174 62.87 65.0078C64.5227 65.8877 66.1516 66.8145 67.7525 67.7847C71.0803 69.8021 74.2219 72.0932 77.3789 74.364C83.9344 79.0785 90.4766 83.8126 97.079 88.462C100.773 91.0632 104.393 93.81 108.229 96.2005C108.35 96.2747 108.488 96.0906 108.377 95.9989Z" fill="#263238"/>
</svg>
