<svg width="27" height="15" viewBox="0 0 27 15" fill="none" xmlns="http://www.w3.org/2000/svg">
<g clip-path="url(#clip0_10_8396)">
<path d="M22.5 3V12H3V3H22.5ZM24 9.75H25.5V5.25H24V1.875C24 1.76562 23.9648 1.67578 23.8945 1.60547C23.8242 1.53516 23.7344 1.5 23.625 1.5H1.875C1.76562 1.5 1.67578 1.53516 1.60547 1.60547C1.53516 1.67578 1.5 1.76562 1.5 1.875V13.125C1.5 13.2344 1.53516 13.3242 1.60547 13.3945C1.67578 13.4648 1.76562 13.5 1.875 13.5H23.625C23.7344 13.5 23.8242 13.4648 23.8945 13.3945C23.9648 13.3242 24 13.2344 24 13.125V9.75ZM27 5.25V9.75C27 10.1641 26.8535 10.5176 26.5605 10.8105C26.2676 11.1035 25.9141 11.25 25.5 11.25V13.125C25.5 13.6406 25.3164 14.082 24.9492 14.4492C24.582 14.8164 24.1406 15 23.625 15H1.875C1.35938 15 0.917969 14.8164 0.550781 14.4492C0.183594 14.082 0 13.6406 0 13.125V1.875C0 1.35938 0.183594 0.917969 0.550781 0.550781C0.917969 0.183594 1.35938 0 1.875 0H23.625C24.1406 0 24.582 0.183594 24.9492 0.550781C25.3164 0.917969 25.5 1.35938 25.5 1.875V3.75C25.9141 3.75 26.2676 3.89648 26.5605 4.18945C26.8535 4.48242 27 4.83594 27 5.25Z" fill="black"/>
</g>
<defs>
<clipPath id="clip0_10_8396">
<rect width="27" height="15" fill="white"/>
</clipPath>
</defs>
</svg>
