<svg width="15" height="15" viewBox="0 0 15 15" fill="none" xmlns="http://www.w3.org/2000/svg">
<g clip-path="url(#clip0_10_8392)">
<path d="M13.4429 0.814453C12.9502 0.814453 12.5508 1.21386 12.5508 1.70654V13.2935C12.5508 13.7861 12.9502 14.1855 13.4429 14.1855C13.9356 14.1855 14.335 13.7861 14.335 13.2935V1.70654C14.335 1.21386 13.9356 0.814453 13.4429 0.814453ZM10.4707 4.92773C9.97883 4.92773 9.58008 5.32648 9.58008 5.81836V13.2949C9.58008 13.7868 9.97883 14.1855 10.4707 14.1855C10.9626 14.1855 11.3613 13.7868 11.3613 13.2949V5.81836C11.3613 5.32648 10.9626 4.92773 10.4707 4.92773ZM7.49707 8.01562C7.00357 8.01562 6.60352 8.41568 6.60352 8.90918V13.292C6.60352 13.7855 7.00357 14.1855 7.49707 14.1855C7.99057 14.1855 8.39063 13.7855 8.39063 13.292V8.90918C8.39063 8.41568 7.99057 8.01562 7.49707 8.01562ZM4.5249 10.0723C4.03222 10.0723 3.63281 10.4717 3.63281 10.9644V13.2935C3.63281 13.7861 4.03222 14.1855 4.5249 14.1855C5.01759 14.1855 5.41699 13.7861 5.41699 13.2935V10.9644C5.41699 10.4717 5.01759 10.0723 4.5249 10.0723ZM1.55537 11.5693C1.06317 11.5693 0.664162 11.9683 0.664162 12.4605V13.2943C0.664162 13.7865 1.06317 14.1855 1.55537 14.1855C2.04757 14.1855 2.44658 13.7865 2.44658 13.2943V12.4605C2.44658 11.9683 2.04757 11.5693 1.55537 11.5693Z" fill="black"/>
</g>
<defs>
<clipPath id="clip0_10_8392">
<rect width="15" height="15" fill="white"/>
</clipPath>
</defs>
</svg>
