<svg width="30" height="8" viewBox="0 0 30 8" fill="none" xmlns="http://www.w3.org/2000/svg">
<path d="M2.5494 0.345703C2.6621 0.345703 2.758 0.44159 2.758 0.55499V0.902191C3.3845 0.954691 3.836 1.16329 4.3057 1.51119C4.3834 1.57209 4.42751 1.62389 4.42751 1.71069C4.42751 1.83249 4.32321 1.92769 4.20141 1.92769C4.14961 1.92769 4.10551 1.91858 4.04461 1.86678C3.61901 1.52798 3.20179 1.3544 2.74119 1.3012V3.7365C4.06279 4.0144 4.6193 4.50999 4.6193 5.36189C4.6193 6.28309 3.8458 6.9355 2.7587 6.9705V7.64879C2.7587 7.76149 2.6628 7.85739 2.5501 7.85739C2.4367 7.85739 2.34079 7.76149 2.34079 7.64879V6.9614C1.58479 6.9005 0.967388 6.62259 0.384988 6.11859C0.324088 6.06609 0.289093 6.01429 0.289093 5.93519C0.289093 5.82249 0.392696 5.71819 0.506796 5.71819C0.584496 5.71819 0.636996 5.7525 0.663596 5.7791C1.1501 6.2313 1.68069 6.5001 2.35899 6.5701V4.0921C1.05489 3.8051 0.515897 3.327 0.515897 2.4576C0.515897 1.5791 1.28099 0.90989 2.34079 0.88399V0.553601C2.34009 0.440901 2.4353 0.345703 2.5494 0.345703ZM2.3576 3.649V1.27528C1.5141 1.29278 0.957605 1.79679 0.957605 2.42329C0.957605 3.01479 1.2362 3.3795 2.3576 3.649ZM2.7405 4.1796V6.57989C3.6092 6.56239 4.17479 6.05839 4.17479 5.39759C4.17479 4.79699 3.8703 4.4323 2.7405 4.1796Z" fill="black"/>
<path d="M5.7225 6.5967L8.5652 4.0319C8.904 3.719 9.0867 3.3018 9.0867 2.8671C9.0867 2.4933 8.94741 2.11951 8.67791 1.82411C8.37341 1.48461 7.94781 1.31101 7.52221 1.31101C7.13931 1.31101 6.76552 1.4412 6.46102 1.7107L6.16491 1.9802C6.07811 2.0677 5.93951 2.05861 5.86951 1.97181C5.78271 1.88501 5.79182 1.7457 5.87862 1.6757L6.17401 1.3971C6.55691 1.0583 7.04341 0.884701 7.52221 0.884701C8.05211 0.884701 8.59111 1.09331 8.98241 1.53711C9.33941 1.91931 9.50391 2.3974 9.50391 2.8671C9.50391 3.4061 9.28691 3.9451 8.85221 4.3448L6.41761 6.54419H9.2953C9.4087 6.54419 9.50391 6.6401 9.50391 6.7619C9.50391 6.8746 9.4087 6.9705 9.2953 6.9705H5.90451H5.86951C5.80861 6.9705 5.74772 6.9537 5.71272 6.9096C5.63572 6.8144 5.6357 6.6835 5.7225 6.5967Z" fill="black"/>
<path d="M10.9473 3.92759C10.9473 3.11069 11.1559 2.36309 11.5297 1.79749C11.9035 1.25849 12.4341 0.884701 13.0515 0.884701C13.6689 0.884701 14.1995 1.25849 14.5726 1.79749C14.938 2.36309 15.1641 3.11069 15.1641 3.92759C15.1641 4.74519 14.9387 5.49279 14.5726 6.04929C14.1995 6.59669 13.6689 6.9705 13.0515 6.9705C12.4341 6.9705 11.9035 6.59669 11.5297 6.04929C11.1552 5.49279 10.9473 4.74519 10.9473 3.92759ZM11.3729 3.92759C11.3729 4.67519 11.5724 5.3451 11.8853 5.8141C12.1982 6.2754 12.6161 6.5449 13.0508 6.5449C13.4855 6.5449 13.8936 6.2754 14.2156 5.8141C14.5285 5.3451 14.7371 4.67519 14.7371 3.92759C14.7371 3.18069 14.5285 2.51081 14.2156 2.04111C13.8936 1.56301 13.4855 1.31101 13.0508 1.31101C12.6161 1.31101 12.1982 1.56301 11.8853 2.04111C11.5724 2.51011 11.3729 3.17999 11.3729 3.92759Z" fill="black"/>
<path d="M17.528 6.1011C17.7716 6.1011 17.9627 6.2922 17.9627 6.5358C17.9627 6.7794 17.7716 6.9705 17.528 6.9705C17.2844 6.9705 17.0933 6.7794 17.0933 6.5358C17.0933 6.2929 17.2844 6.1011 17.528 6.1011Z" fill="black"/>
<path d="M18.7712 3.92759C18.7712 3.11069 18.9798 2.36309 19.3536 1.79749C19.7274 1.25849 20.258 0.884701 20.8754 0.884701C21.4928 0.884701 22.0234 1.25849 22.3965 1.79749C22.7619 2.36309 22.988 3.11069 22.988 3.92759C22.988 4.74519 22.7626 5.49279 22.3965 6.04929C22.0234 6.59669 21.4928 6.9705 20.8754 6.9705C20.258 6.9705 19.7274 6.59669 19.3536 6.04929C18.9798 5.49279 18.7712 4.74519 18.7712 3.92759ZM19.1975 3.92759C19.1975 4.67519 19.397 5.3451 19.7099 5.8141C20.0228 6.2754 20.4407 6.5449 20.8754 6.5449C21.3101 6.5449 21.7182 6.2754 22.0402 5.8141C22.3531 5.3451 22.5617 4.67519 22.5617 3.92759C22.5617 3.18069 22.3531 2.51081 22.0402 2.04111C21.7182 1.56301 21.3101 1.31101 20.8754 1.31101C20.4407 1.31101 20.0228 1.56301 19.7099 2.04111C19.397 2.51011 19.1975 3.17999 19.1975 3.92759Z" fill="black"/>
<path d="M24.9445 3.92759C24.9445 3.11069 25.1531 2.36309 25.5269 1.79749C25.9007 1.25849 26.4313 0.884701 27.0487 0.884701C27.6661 0.884701 28.1967 1.25849 28.5698 1.79749C28.9352 2.36309 29.1613 3.11069 29.1613 3.92759C29.1613 4.74519 28.9359 5.49279 28.5698 6.04929C28.1967 6.59669 27.6661 6.9705 27.0487 6.9705C26.4313 6.9705 25.9007 6.59669 25.5269 6.04929C25.1531 5.49279 24.9445 4.74519 24.9445 3.92759ZM25.3701 3.92759C25.3701 4.67519 25.5696 5.3451 25.8825 5.8141C26.1954 6.2754 26.6133 6.5449 27.048 6.5449C27.4827 6.5449 27.8908 6.2754 28.2128 5.8141C28.5257 5.3451 28.7343 4.67519 28.7343 3.92759C28.7343 3.18069 28.5257 2.51081 28.2128 2.04111C27.8908 1.56301 27.4827 1.31101 27.048 1.31101C26.6133 1.31101 26.1954 1.56301 25.8825 2.04111C25.5696 2.51011 25.3701 3.17999 25.3701 3.92759Z" fill="black"/>
</svg>
