<svg width="49" height="7" viewBox="0 0 49 7" fill="none" xmlns="http://www.w3.org/2000/svg">
<path d="M3.64322 1.4398L2.34332 3.24369C2.31462 3.28989 2.26841 3.3074 2.22781 3.3074H2.21591C2.16341 3.3074 2.12281 3.28989 2.09411 3.24369L0.794916 1.4461V4.78089C0.794916 4.85579 0.731212 4.9202 0.655612 4.9202C0.575112 4.9202 0.510712 4.85649 0.510712 4.78089V1.02259C0.510712 0.976391 0.533817 0.935792 0.568817 0.912692C0.568817 0.907092 0.575116 0.907094 0.580716 0.900794C0.645116 0.860194 0.731925 0.871391 0.778125 0.935091L2.22222 2.9364L3.66071 0.935091C3.70201 0.871391 3.79442 0.860194 3.85812 0.900794C3.87492 0.918294 3.88681 0.9302 3.89871 0.947C3.91061 0.9701 3.92182 0.999491 3.92182 1.02259V4.78089C3.92182 4.85579 3.85812 4.9202 3.78322 4.9202C3.70202 4.9202 3.64392 4.85649 3.64392 4.78089V1.4398H3.64322Z" fill="black"/>
<path d="M6.55173 2.0775C7.30003 2.0775 7.89783 2.7271 7.89783 3.4985C7.89783 4.2699 7.30073 4.9195 6.55173 4.9195C5.80903 4.9195 5.20633 4.2699 5.20633 3.4985C5.20633 2.7271 5.80903 2.0775 6.55173 2.0775ZM6.55173 4.6409C7.13203 4.6409 7.61852 4.1299 7.61852 3.4985C7.61852 2.8664 7.13203 2.3498 6.55173 2.3498C5.97213 2.3498 5.48494 2.8657 5.48494 3.4985C5.48424 4.1306 5.97143 4.6409 6.55173 4.6409Z" fill="black"/>
<path d="M11.2354 4.3686C10.9855 4.7046 10.5914 4.91949 10.1448 4.91949C9.37901 4.91949 8.77002 4.28109 8.77002 3.50479C8.77002 2.71589 9.37901 2.07749 10.1448 2.07749C10.5914 2.07749 10.9855 2.29799 11.2354 2.63399V0.99879C11.2354 0.92389 11.2991 0.859497 11.3803 0.859497C11.4552 0.859497 11.5196 0.92319 11.5196 0.99879V3.4467V3.50479V4.78089C11.5196 4.85579 11.4552 4.92019 11.3803 4.92019C11.2991 4.92019 11.2354 4.85649 11.2354 4.78089V4.3686ZM11.2354 3.55029V3.45789C11.2123 2.84889 10.7307 2.36169 10.1448 2.36169C9.54701 2.36169 9.05422 2.872 9.05422 3.5041C9.05422 4.1306 9.54701 4.6353 10.1448 4.6353C10.7307 4.6353 11.2123 4.15369 11.2354 3.55029Z" fill="black"/>
<path d="M12.4975 3.5041C12.4975 2.7152 13.1121 2.0768 13.8779 2.0768C14.6087 2.0768 15.189 2.65709 15.2471 3.39909V3.40469V3.4222C15.2471 3.4978 15.1827 3.54959 15.1078 3.54959H12.7761C12.8055 4.17049 13.292 4.64019 13.8779 4.64019C14.2552 4.64019 14.6031 4.44279 14.7949 4.12359C14.8355 4.05429 14.923 4.0424 14.9804 4.0774C15.0448 4.1236 15.0679 4.20479 15.0266 4.27409C14.783 4.66259 14.3602 4.91809 13.8779 4.91809C13.1121 4.91949 12.4975 4.2811 12.4975 3.5041ZM12.7936 3.27799H14.9454C14.8523 2.74459 14.4001 2.3561 13.8779 2.3561C13.3445 2.3561 12.8979 2.73899 12.7936 3.27799Z" fill="black"/>
<path d="M16.1081 2.22239C16.1081 2.14119 16.1718 2.08308 16.253 2.08308C16.323 2.08308 16.386 2.14119 16.386 2.22239V2.84889C16.3979 2.82579 16.4091 2.80269 16.4273 2.77959C16.6422 2.44289 17.0188 2.08308 17.5641 2.08308C17.639 2.08308 17.7027 2.14119 17.7027 2.22239C17.7027 2.29729 17.639 2.36169 17.5641 2.36169C17.1931 2.36169 16.9369 2.57029 16.7402 2.82579C16.5491 3.08129 16.4385 3.37109 16.3979 3.48729C16.386 3.51039 16.386 3.52229 16.386 3.53349V4.78089C16.386 4.86209 16.3223 4.92019 16.253 4.92019C16.1718 4.92019 16.1081 4.86209 16.1081 4.78089V2.22239Z" fill="black"/>
<path d="M20.6826 3.2374C20.6826 2.7558 20.2934 2.3617 19.8062 2.3617C19.3246 2.3617 18.9368 2.7558 18.9249 3.2374V4.78021V4.8033C18.9186 4.8264 18.913 4.8495 18.8955 4.867C18.8724 4.902 18.8318 4.9195 18.7919 4.9195H18.7569C18.7156 4.9076 18.6813 4.8789 18.6638 4.8439C18.6582 4.8383 18.6582 4.832 18.6582 4.8264C18.6582 4.8208 18.6519 4.8152 18.6519 4.8152V4.78021V3.2374V3.1912V2.2231C18.6519 2.1475 18.71 2.0838 18.7912 2.0838C18.8661 2.0838 18.9242 2.1475 18.9242 2.2231V2.4954C19.1328 2.2455 19.452 2.0838 19.8055 2.0838C20.4439 2.0838 20.9598 2.606 20.9598 3.2381V4.7809C20.9598 4.8621 20.8954 4.9202 20.8205 4.9202C20.7456 4.9202 20.6819 4.8621 20.6819 4.7809V3.2374H20.6826Z" fill="black"/>
<path d="M26.3799 3.0288H24.2925V4.7802C24.2925 4.8551 24.2288 4.91949 24.1476 4.91949C24.0727 4.91949 24.0083 4.8558 24.0083 4.7802V0.99879C24.0083 0.92389 24.0727 0.859497 24.1476 0.859497C24.2288 0.859497 24.2925 0.92319 24.2925 0.99879V2.75019H26.3799V0.99879C26.3799 0.92389 26.4443 0.859497 26.5192 0.859497C26.6004 0.859497 26.6641 0.92319 26.6641 0.99879V4.7802C26.6641 4.8551 26.6004 4.91949 26.5192 4.91949C26.4443 4.91949 26.3799 4.8558 26.3799 4.7802V3.0288Z" fill="black"/>
<path d="M30.4371 2.2168V4.7802C30.4371 4.8551 30.3734 4.9195 30.2978 4.9195C30.2229 4.9195 30.1592 4.8558 30.1592 4.7802V4.3567C29.9156 4.6927 29.5271 4.9195 29.0924 4.9195C28.3441 4.9195 27.7463 4.2755 27.7463 3.4985C27.7463 2.7215 28.3434 2.0775 29.0924 2.0775C29.5271 2.0775 29.9163 2.298 30.1592 2.634V2.2168C30.1592 2.1356 30.2229 2.0775 30.2978 2.0775C30.3734 2.0775 30.4371 2.1356 30.4371 2.2168ZM30.1585 3.4985C30.1585 2.8601 29.6769 2.3498 29.0917 2.3498C28.5114 2.3498 28.0242 2.8601 28.0242 3.4985C28.0242 4.1362 28.5107 4.6409 29.0917 4.6409C29.6776 4.6409 30.1585 4.1362 30.1585 3.4985Z" fill="black"/>
<path d="M33.6137 3.2374C33.6137 2.7558 33.2245 2.3617 32.7373 2.3617C32.2557 2.3617 31.8679 2.7558 31.856 3.2374V4.78021V4.8033C31.8497 4.8264 31.8441 4.8495 31.8266 4.867C31.8035 4.902 31.7629 4.9195 31.723 4.9195H31.688C31.6467 4.9076 31.6124 4.8789 31.5949 4.8439C31.5893 4.8383 31.5893 4.832 31.5893 4.8264C31.5893 4.8208 31.583 4.8152 31.583 4.8152V4.78021V3.2374V3.1912V2.2231C31.583 2.1475 31.6411 2.0838 31.7223 2.0838C31.7979 2.0838 31.8553 2.1475 31.8553 2.2231V2.4954C32.0639 2.2455 32.3831 2.0838 32.7366 2.0838C33.375 2.0838 33.8909 2.606 33.8909 3.2381V4.7809C33.8909 4.8621 33.8265 4.9202 33.7516 4.9202C33.676 4.9202 33.613 4.8621 33.613 4.7809V3.2374H33.6137Z" fill="black"/>
<path d="M37.2943 4.3686C37.0451 4.7046 36.6503 4.91949 36.2037 4.91949C35.4379 4.91949 34.8289 4.28109 34.8289 3.50479C34.8289 2.71589 35.4379 2.07749 36.2037 2.07749C36.6503 2.07749 37.0444 2.29799 37.2943 2.63399V0.99879C37.2943 0.92389 37.358 0.859497 37.4392 0.859497C37.5141 0.859497 37.5785 0.92319 37.5785 0.99879V3.4467V3.50479V4.78089C37.5785 4.85579 37.5141 4.92019 37.4392 4.92019C37.358 4.92019 37.2943 4.85649 37.2943 4.78089V4.3686ZM37.2943 3.55029V3.45789C37.2712 2.84889 36.7896 2.36169 36.2037 2.36169C35.6066 2.36169 35.1131 2.872 35.1131 3.5041C35.1131 4.1306 35.6059 4.6353 36.2037 4.6353C36.7896 4.6353 37.2705 4.15369 37.2943 3.55029Z" fill="black"/>
<path d="M38.8448 3.5622V3.5041V3.44599V0.998099C38.8448 0.923199 38.9085 0.858795 38.9841 0.858795C39.0646 0.858795 39.129 0.922499 39.129 0.998099V2.6333C39.3782 2.2973 39.773 2.0768 40.2196 2.0768C40.9854 2.0768 41.5944 2.7152 41.5944 3.5041C41.5944 4.2811 40.9854 4.9188 40.2196 4.9188C39.773 4.9188 39.3789 4.7039 39.129 4.3679V4.77949C39.129 4.85439 39.0646 4.9188 38.9841 4.9188C38.9085 4.9188 38.8448 4.85509 38.8448 4.77949V3.5622ZM39.1297 3.5041C39.1297 4.1306 39.6225 4.6353 40.2203 4.6353C40.823 4.6353 41.3109 4.1306 41.3109 3.5041C41.3109 2.872 40.8237 2.3617 40.2203 2.3617C39.6344 2.3617 39.1535 2.84889 39.1297 3.45789V3.5041Z" fill="black"/>
<path d="M45.0545 2.2168V4.7802C45.0545 4.8551 44.9908 4.9195 44.9159 4.9195C44.8403 4.9195 44.7766 4.8558 44.7766 4.7802V4.3567C44.533 4.6927 44.1445 4.9195 43.7098 4.9195C42.9615 4.9195 42.3637 4.2755 42.3637 3.4985C42.3637 2.7215 42.9615 2.0775 43.7098 2.0775C44.1445 2.0775 44.5337 2.298 44.7766 2.634V2.2168C44.7766 2.1356 44.8403 2.0775 44.9159 2.0775C44.9908 2.0775 45.0545 2.1356 45.0545 2.2168ZM44.7759 3.4985C44.7759 2.8601 44.2943 2.3498 43.7091 2.3498C43.1288 2.3498 42.6423 2.8601 42.6423 3.4985C42.6423 4.1362 43.1288 4.6409 43.7091 4.6409C44.295 4.6409 44.7759 4.1362 44.7759 3.4985Z" fill="black"/>
<path d="M48.943 4.6927C48.943 5.4291 48.3459 6.0269 47.6032 6.0269C47.3946 6.0269 47.1979 5.9744 47.0117 5.8939C46.9536 5.8533 46.9186 5.7721 46.9536 5.7084C46.9886 5.6328 47.0698 5.60411 47.1398 5.64471C47.2847 5.71471 47.4296 5.74901 47.6032 5.74901C48.1954 5.74901 48.6651 5.2793 48.6651 4.6934V4.3455C48.4271 4.6878 48.0386 4.902 47.6032 4.902C46.8605 4.902 46.2697 4.2699 46.2697 3.4873C46.2697 2.7215 46.8612 2.0775 47.6032 2.0775C48.0386 2.0775 48.4271 2.298 48.6651 2.634V2.2168C48.6651 2.1412 48.7288 2.0775 48.81 2.0775C48.88 2.0775 48.943 2.1412 48.943 2.2168V4.6927ZM48.6651 3.4866C48.6651 2.8545 48.1891 2.3554 47.6032 2.3554C47.0236 2.3554 46.5476 2.8538 46.5476 3.4866C46.5476 4.1243 47.0236 4.629 47.6032 4.629C48.1891 4.6297 48.6651 4.1243 48.6651 3.4866Z" fill="black"/>
</svg>
