<svg width="93" height="92" viewBox="0 0 93 92" fill="none" xmlns="http://www.w3.org/2000/svg">
<path d="M92.6822 0.146484H0.909393V91.9193H92.6822V0.146484Z" fill="#EBEBEB"/>
<path d="M46.7958 86.8765C67.6416 86.8765 84.5405 84.53 84.5405 81.6356C84.5405 78.7411 67.6416 76.3947 46.7958 76.3947C25.95 76.3947 9.05109 78.7411 9.05109 81.6356C9.05109 84.53 25.95 86.8765 46.7958 86.8765Z" fill="#DBDBDB"/>
<path d="M69.7068 81.3171H23.8855C11.5004 81.3171 13.4884 71.4114 16.4592 61.0143C19.43 50.6172 23.8302 34.8602 34.8972 34.8602C45.953 34.8602 46.7909 34.8602 46.7909 34.8602C46.7909 34.8602 47.6393 34.8602 58.6958 34.8602C69.7628 34.8602 74.163 50.6172 77.1338 61.0143C80.1039 71.4107 82.0919 81.3171 69.7068 81.3171Z" fill="#FF7F00"/>
<g opacity="0.1">
<path d="M33.6015 35.36C33.6015 35.6211 33.3894 35.8332 33.1283 35.8332C32.8672 35.8332 32.6551 35.6211 32.6551 35.36C32.6551 35.0982 32.8672 34.8868 33.1283 34.8868C33.3894 34.8868 33.6015 35.0989 33.6015 35.36Z" fill="black"/>
<path d="M41.4114 35.36C41.4114 35.6211 41.1993 35.8332 40.9382 35.8332C40.6764 35.8332 40.465 35.6211 40.465 35.36C40.465 35.0982 40.6771 34.8868 40.9382 34.8868C41.1993 34.8868 41.4114 35.0989 41.4114 35.36Z" fill="black"/>
<path d="M49.222 35.36C49.222 35.6211 49.0099 35.8332 48.7488 35.8332C48.4877 35.8332 48.2756 35.6211 48.2756 35.36C48.2756 35.0982 48.4877 34.8868 48.7488 34.8868C49.0099 34.8868 49.222 35.0989 49.222 35.36Z" fill="black"/>
<path d="M57.0326 35.36C57.0326 35.6211 56.8205 35.8332 56.5594 35.8332C56.2983 35.8332 56.0862 35.6211 56.0862 35.36C56.0862 35.0982 56.2983 34.8868 56.5594 34.8868C56.8205 34.8868 57.0326 35.0989 57.0326 35.36Z" fill="black"/>
<path d="M25.7909 45.3994C25.7909 45.6605 25.5788 45.8726 25.3177 45.8726C25.0566 45.8726 24.8445 45.6605 24.8445 45.3994C24.8445 45.1376 25.0566 44.9262 25.3177 44.9262C25.5788 44.9262 25.7909 45.1376 25.7909 45.3994Z" fill="black"/>
<path d="M33.1276 45.8726C33.389 45.8726 33.6008 45.6607 33.6008 45.3994C33.6008 45.138 33.389 44.9262 33.1276 44.9262C32.8663 44.9262 32.6544 45.138 32.6544 45.3994C32.6544 45.6607 32.8663 45.8726 33.1276 45.8726Z" fill="black"/>
<path d="M41.4114 45.3994C41.4114 45.6605 41.1993 45.8726 40.9382 45.8726C40.6764 45.8726 40.465 45.6605 40.465 45.3994C40.465 45.1376 40.6771 44.9262 40.9382 44.9262C41.1993 44.9262 41.4114 45.1376 41.4114 45.3994Z" fill="black"/>
<path d="M49.222 45.3994C49.222 45.6605 49.0099 45.8726 48.7488 45.8726C48.4877 45.8726 48.2756 45.6605 48.2756 45.3994C48.2756 45.1376 48.4877 44.9262 48.7488 44.9262C49.0099 44.9262 49.222 45.1376 49.222 45.3994Z" fill="black"/>
<path d="M57.0326 45.3994C57.0326 45.6605 56.8205 45.8726 56.5594 45.8726C56.2983 45.8726 56.0862 45.6605 56.0862 45.3994C56.0862 45.1376 56.2983 44.9262 56.5594 44.9262C56.8205 44.9262 57.0326 45.1376 57.0326 45.3994Z" fill="black"/>
<path d="M64.8425 45.3994C64.8425 45.6605 64.6304 45.8726 64.3693 45.8726C64.1075 45.8726 63.8961 45.6605 63.8961 45.3994C63.8961 45.1376 64.1082 44.9262 64.3693 44.9262C64.6311 44.9262 64.8425 45.1376 64.8425 45.3994Z" fill="black"/>
<path d="M29.6962 40.2516C29.6962 40.5134 29.4841 40.7248 29.223 40.7248C28.9619 40.7248 28.7498 40.5127 28.7498 40.2516C28.7498 39.9905 28.9619 39.7784 29.223 39.7784C29.4841 39.7784 29.6962 39.9898 29.6962 40.2516Z" fill="black"/>
<path d="M37.5061 40.2516C37.5061 40.5134 37.294 40.7248 37.0329 40.7248C36.7711 40.7248 36.5597 40.5127 36.5597 40.2516C36.5597 39.9905 36.7718 39.7784 37.0329 39.7784C37.2947 39.7784 37.5061 39.9898 37.5061 40.2516Z" fill="black"/>
<path d="M45.3167 40.2516C45.3167 40.5134 45.1046 40.7248 44.8435 40.7248C44.5817 40.7248 44.3703 40.5127 44.3703 40.2516C44.3703 39.9905 44.5824 39.7784 44.8435 39.7784C45.1046 39.7784 45.3167 39.9898 45.3167 40.2516Z" fill="black"/>
<path d="M53.1273 40.2516C53.1273 40.5134 52.9152 40.7248 52.6541 40.7248C52.393 40.7248 52.1809 40.5127 52.1809 40.2516C52.1809 39.9905 52.393 39.7784 52.6541 39.7784C52.9152 39.7784 53.1273 39.9898 53.1273 40.2516Z" fill="black"/>
<path d="M60.9379 40.2516C60.9379 40.5134 60.7258 40.7248 60.4647 40.7248C60.2036 40.7248 59.9915 40.5127 59.9915 40.2516C59.9915 39.9905 60.2036 39.7784 60.4647 39.7784C60.7258 39.7784 60.9379 39.9898 60.9379 40.2516Z" fill="black"/>
<path d="M68.6799 40.4868C68.6078 40.6317 68.4482 40.7255 68.2739 40.7255C68.0135 40.7255 67.8028 40.5155 67.8028 40.2544C67.8028 40.0367 67.9407 39.8631 68.129 39.798C68.3173 40.0234 68.4986 40.2481 68.6799 40.4868Z" fill="black"/>
<path d="M25.7909 55.4381C25.7909 55.6999 25.5788 55.9113 25.3177 55.9113C25.0566 55.9113 24.8445 55.6992 24.8445 55.4381C24.8445 55.177 25.0566 54.9649 25.3177 54.9649C25.5788 54.9649 25.7909 55.177 25.7909 55.4381Z" fill="black"/>
<path d="M33.1276 55.9113C33.389 55.9113 33.6008 55.6994 33.6008 55.4381C33.6008 55.1767 33.389 54.9649 33.1276 54.9649C32.8663 54.9649 32.6544 55.1767 32.6544 55.4381C32.6544 55.6994 32.8663 55.9113 33.1276 55.9113Z" fill="black"/>
<path d="M41.4114 55.4381C41.4114 55.6999 41.1993 55.9113 40.9382 55.9113C40.6764 55.9113 40.465 55.6992 40.465 55.4381C40.465 55.177 40.6771 54.9649 40.9382 54.9649C41.1993 54.9649 41.4114 55.177 41.4114 55.4381Z" fill="black"/>
<path d="M49.222 55.4381C49.222 55.6999 49.0099 55.9113 48.7488 55.9113C48.4877 55.9113 48.2756 55.6992 48.2756 55.4381C48.2756 55.177 48.4877 54.9649 48.7488 54.9649C49.0099 54.9649 49.222 55.177 49.222 55.4381Z" fill="black"/>
<path d="M57.0326 55.4381C57.0326 55.6999 56.8205 55.9113 56.5594 55.9113C56.2983 55.9113 56.0862 55.6992 56.0862 55.4381C56.0862 55.177 56.2983 54.9649 56.5594 54.9649C56.8205 54.9649 57.0326 55.177 57.0326 55.4381Z" fill="black"/>
<path d="M64.8425 55.4381C64.8425 55.6999 64.6304 55.9113 64.3693 55.9113C64.1075 55.9113 63.8961 55.6992 63.8961 55.4381C63.8961 55.177 64.1082 54.9649 64.3693 54.9649C64.6311 54.9649 64.8425 55.177 64.8425 55.4381Z" fill="black"/>
<path d="M72.1799 55.9113C72.4413 55.9113 72.6531 55.6994 72.6531 55.4381C72.6531 55.1767 72.4413 54.9649 72.1799 54.9649C71.9186 54.9649 71.7067 55.1767 71.7067 55.4381C71.7067 55.6994 71.9186 55.9113 72.1799 55.9113Z" fill="black"/>
<path d="M21.8856 50.2903C21.8856 50.5521 21.6735 50.7635 21.4124 50.7635C21.1513 50.7635 20.9392 50.5514 20.9392 50.2903C20.9392 50.0292 21.1513 49.8171 21.4124 49.8171C21.6735 49.8171 21.8856 50.0292 21.8856 50.2903Z" fill="black"/>
<path d="M29.6962 50.2903C29.6962 50.5521 29.4841 50.7635 29.223 50.7635C28.9619 50.7635 28.7498 50.5514 28.7498 50.2903C28.7498 50.0292 28.9619 49.8171 29.223 49.8171C29.4841 49.8171 29.6962 50.0292 29.6962 50.2903Z" fill="black"/>
<path d="M37.5061 50.2903C37.5061 50.5521 37.294 50.7635 37.0329 50.7635C36.7711 50.7635 36.5597 50.5514 36.5597 50.2903C36.5597 50.0292 36.7718 49.8171 37.0329 49.8171C37.2947 49.8171 37.5061 50.0292 37.5061 50.2903Z" fill="black"/>
<path d="M45.3167 50.2903C45.3167 50.5521 45.1046 50.7635 44.8435 50.7635C44.5817 50.7635 44.3703 50.5514 44.3703 50.2903C44.3703 50.0292 44.5824 49.8171 44.8435 49.8171C45.1046 49.8171 45.3167 50.0292 45.3167 50.2903Z" fill="black"/>
<path d="M53.1273 50.2903C53.1273 50.5521 52.9152 50.7635 52.6541 50.7635C52.393 50.7635 52.1809 50.5514 52.1809 50.2903C52.1809 50.0292 52.393 49.8171 52.6541 49.8171C52.9152 49.8171 53.1273 50.0292 53.1273 50.2903Z" fill="black"/>
<path d="M60.9379 50.2903C60.9379 50.5521 60.7258 50.7635 60.4647 50.7635C60.2036 50.7635 59.9915 50.5514 59.9915 50.2903C59.9915 50.0292 60.2036 49.8171 60.4647 49.8171C60.7258 49.8171 60.9379 50.0292 60.9379 50.2903Z" fill="black"/>
<path d="M68.7478 50.2903C68.7478 50.5521 68.5357 50.7635 68.2746 50.7635C68.0135 50.7635 67.8014 50.5514 67.8014 50.2903C67.8014 50.0292 68.0135 49.8171 68.2746 49.8171C68.5357 49.8171 68.7478 50.0292 68.7478 50.2903Z" fill="black"/>
<path d="M17.9803 65.4775C17.9803 65.7393 17.7682 65.9507 17.5071 65.9507C17.2453 65.9507 17.0339 65.7386 17.0339 65.4775C17.0339 65.2164 17.246 65.0043 17.5071 65.0043C17.7682 65.0043 17.9803 65.2164 17.9803 65.4775Z" fill="black"/>
<path d="M25.7909 65.4775C25.7909 65.7393 25.5788 65.9507 25.3177 65.9507C25.0566 65.9507 24.8445 65.7386 24.8445 65.4775C24.8445 65.2164 25.0566 65.0043 25.3177 65.0043C25.5788 65.0043 25.7909 65.2164 25.7909 65.4775Z" fill="black"/>
<path d="M33.1276 65.9507C33.389 65.9507 33.6008 65.7388 33.6008 65.4775C33.6008 65.2161 33.389 65.0043 33.1276 65.0043C32.8663 65.0043 32.6544 65.2161 32.6544 65.4775C32.6544 65.7388 32.8663 65.9507 33.1276 65.9507Z" fill="black"/>
<path d="M41.4114 65.4775C41.4114 65.7393 41.1993 65.9507 40.9382 65.9507C40.6764 65.9507 40.465 65.7386 40.465 65.4775C40.465 65.2164 40.6771 65.0043 40.9382 65.0043C41.1993 65.0043 41.4114 65.2164 41.4114 65.4775Z" fill="black"/>
<path d="M49.222 65.4775C49.222 65.7393 49.0099 65.9507 48.7488 65.9507C48.4877 65.9507 48.2756 65.7386 48.2756 65.4775C48.2756 65.2164 48.4877 65.0043 48.7488 65.0043C49.0099 65.0043 49.222 65.2164 49.222 65.4775Z" fill="black"/>
<path d="M57.0326 65.4775C57.0326 65.7393 56.8205 65.9507 56.5594 65.9507C56.2983 65.9507 56.0862 65.7386 56.0862 65.4775C56.0862 65.2164 56.2983 65.0043 56.5594 65.0043C56.8205 65.0043 57.0326 65.2164 57.0326 65.4775Z" fill="black"/>
<path d="M64.8425 65.4775C64.8425 65.7393 64.6304 65.9507 64.3693 65.9507C64.1075 65.9507 63.8961 65.7386 63.8961 65.4775C63.8961 65.2164 64.1082 65.0043 64.3693 65.0043C64.6311 65.0043 64.8425 65.2164 64.8425 65.4775Z" fill="black"/>
<path d="M72.1799 65.9507C72.4413 65.9507 72.6531 65.7388 72.6531 65.4775C72.6531 65.2161 72.4413 65.0043 72.1799 65.0043C71.9186 65.0043 71.7067 65.2161 71.7067 65.4775C71.7067 65.7388 71.9186 65.9507 72.1799 65.9507Z" fill="black"/>
<path d="M21.8856 60.3297C21.8856 60.5908 21.6735 60.8029 21.4124 60.8029C21.1513 60.8029 20.9392 60.5908 20.9392 60.3297C20.9392 60.0679 21.1513 59.8565 21.4124 59.8565C21.6735 59.8565 21.8856 60.0686 21.8856 60.3297Z" fill="black"/>
<path d="M29.6962 60.3297C29.6962 60.5908 29.4841 60.8029 29.223 60.8029C28.9619 60.8029 28.7498 60.5908 28.7498 60.3297C28.7498 60.0679 28.9619 59.8565 29.223 59.8565C29.4841 59.8565 29.6962 60.0686 29.6962 60.3297Z" fill="black"/>
<path d="M37.5061 60.3297C37.5061 60.5908 37.294 60.8029 37.0329 60.8029C36.7711 60.8029 36.5597 60.5908 36.5597 60.3297C36.5597 60.0679 36.7718 59.8565 37.0329 59.8565C37.2947 59.8565 37.5061 60.0686 37.5061 60.3297Z" fill="black"/>
<path d="M45.3167 60.3297C45.3167 60.5908 45.1046 60.8029 44.8435 60.8029C44.5817 60.8029 44.3703 60.5908 44.3703 60.3297C44.3703 60.0679 44.5824 59.8565 44.8435 59.8565C45.1046 59.8565 45.3167 60.0686 45.3167 60.3297Z" fill="black"/>
<path d="M53.1273 60.3297C53.1273 60.5908 52.9152 60.8029 52.6541 60.8029C52.393 60.8029 52.1809 60.5908 52.1809 60.3297C52.1809 60.0679 52.393 59.8565 52.6541 59.8565C52.9152 59.8565 53.1273 60.0686 53.1273 60.3297Z" fill="black"/>
<path d="M60.9379 60.3297C60.9379 60.5908 60.7258 60.8029 60.4647 60.8029C60.2036 60.8029 59.9915 60.5908 59.9915 60.3297C59.9915 60.0679 60.2036 59.8565 60.4647 59.8565C60.7258 59.8565 60.9379 60.0686 60.9379 60.3297Z" fill="black"/>
<path d="M68.7478 60.3297C68.7478 60.5908 68.5357 60.8029 68.2746 60.8029C68.0135 60.8029 67.8014 60.5908 67.8014 60.3297C67.8014 60.0679 68.0135 59.8565 68.2746 59.8565C68.5357 59.8565 68.7478 60.0686 68.7478 60.3297Z" fill="black"/>
<path d="M76.5584 60.3297C76.5584 60.5908 76.3463 60.8029 76.0852 60.8029C75.8241 60.8029 75.612 60.5908 75.612 60.3297C75.612 60.0679 75.8241 59.8565 76.0852 59.8565C76.3463 59.8565 76.5584 60.0686 76.5584 60.3297Z" fill="black"/>
<path d="M17.9803 75.5169C17.9803 75.7787 17.7682 75.9901 17.5071 75.9901C17.2453 75.9901 17.0339 75.778 17.0339 75.5169C17.0339 75.2558 17.246 75.0437 17.5071 75.0437C17.7682 75.043 17.9803 75.2551 17.9803 75.5169Z" fill="black"/>
<path d="M25.7909 75.5169C25.7909 75.7787 25.5788 75.9901 25.3177 75.9901C25.0566 75.9901 24.8445 75.778 24.8445 75.5169C24.8445 75.2558 25.0566 75.0437 25.3177 75.0437C25.5788 75.043 25.7909 75.2551 25.7909 75.5169Z" fill="black"/>
<path d="M33.1276 75.9901C33.389 75.9901 33.6008 75.7782 33.6008 75.5169C33.6008 75.2556 33.389 75.0437 33.1276 75.0437C32.8663 75.0437 32.6544 75.2556 32.6544 75.5169C32.6544 75.7782 32.8663 75.9901 33.1276 75.9901Z" fill="black"/>
<path d="M41.4114 75.5169C41.4114 75.7787 41.1993 75.9901 40.9382 75.9901C40.6764 75.9901 40.465 75.778 40.465 75.5169C40.465 75.2558 40.6771 75.0437 40.9382 75.0437C41.1993 75.043 41.4114 75.2551 41.4114 75.5169Z" fill="black"/>
<path d="M49.222 75.5169C49.222 75.7787 49.0099 75.9901 48.7488 75.9901C48.4877 75.9901 48.2756 75.778 48.2756 75.5169C48.2756 75.2558 48.4877 75.0437 48.7488 75.0437C49.0099 75.043 49.222 75.2551 49.222 75.5169Z" fill="black"/>
<path d="M57.0326 75.5169C57.0326 75.7787 56.8205 75.9901 56.5594 75.9901C56.2983 75.9901 56.0862 75.778 56.0862 75.5169C56.0862 75.2558 56.2983 75.0437 56.5594 75.0437C56.8205 75.043 57.0326 75.2551 57.0326 75.5169Z" fill="black"/>
<path d="M64.8425 75.5169C64.8425 75.7787 64.6304 75.9901 64.3693 75.9901C64.1075 75.9901 63.8961 75.778 63.8961 75.5169C63.8961 75.2558 64.1082 75.0437 64.3693 75.0437C64.6311 75.043 64.8425 75.2551 64.8425 75.5169Z" fill="black"/>
<path d="M72.1799 75.9901C72.4413 75.9901 72.6531 75.7782 72.6531 75.5169C72.6531 75.2556 72.4413 75.0437 72.1799 75.0437C71.9186 75.0437 71.7067 75.2556 71.7067 75.5169C71.7067 75.7782 71.9186 75.9901 72.1799 75.9901Z" fill="black"/>
<path d="M21.8856 70.3691C21.8856 70.6302 21.6735 70.8423 21.4124 70.8423C21.1513 70.8423 20.9392 70.6302 20.9392 70.3691C20.9392 70.1073 21.1513 69.8959 21.4124 69.8959C21.6735 69.8959 21.8856 70.1073 21.8856 70.3691Z" fill="black"/>
<path d="M29.6962 70.3691C29.6962 70.6302 29.4841 70.8423 29.223 70.8423C28.9619 70.8423 28.7498 70.6302 28.7498 70.3691C28.7498 70.1073 28.9619 69.8959 29.223 69.8959C29.4841 69.8952 29.6962 70.1073 29.6962 70.3691Z" fill="black"/>
<path d="M37.5061 70.3691C37.5061 70.6302 37.294 70.8423 37.0329 70.8423C36.7711 70.8423 36.5597 70.6302 36.5597 70.3691C36.5597 70.1073 36.7718 69.8959 37.0329 69.8959C37.2947 69.8952 37.5061 70.1073 37.5061 70.3691Z" fill="black"/>
<path d="M45.3167 70.3691C45.3167 70.6302 45.1046 70.8423 44.8435 70.8423C44.5817 70.8423 44.3703 70.6302 44.3703 70.3691C44.3703 70.1073 44.5824 69.8959 44.8435 69.8959C45.1046 69.8952 45.3167 70.1073 45.3167 70.3691Z" fill="black"/>
<path d="M53.1273 70.3691C53.1273 70.6302 52.9152 70.8423 52.6541 70.8423C52.393 70.8423 52.1809 70.6302 52.1809 70.3691C52.1809 70.1073 52.393 69.8959 52.6541 69.8959C52.9152 69.8959 53.1273 70.1073 53.1273 70.3691Z" fill="black"/>
<path d="M60.9379 70.3691C60.9379 70.6302 60.7258 70.8423 60.4647 70.8423C60.2036 70.8423 59.9915 70.6302 59.9915 70.3691C59.9915 70.1073 60.2036 69.8959 60.4647 69.8959C60.7258 69.8959 60.9379 70.1073 60.9379 70.3691Z" fill="black"/>
<path d="M68.7478 70.3691C68.7478 70.6302 68.5357 70.8423 68.2746 70.8423C68.0135 70.8423 67.8014 70.6302 67.8014 70.3691C67.8014 70.1073 68.0135 69.8959 68.2746 69.8959C68.5357 69.8952 68.7478 70.1073 68.7478 70.3691Z" fill="black"/>
<path d="M76.5584 70.3691C76.5584 70.6302 76.3463 70.8423 76.0852 70.8423C75.8241 70.8423 75.612 70.6302 75.612 70.3691C75.612 70.1073 75.8241 69.8959 76.0852 69.8959C76.3463 69.8952 76.5584 70.1073 76.5584 70.3691Z" fill="black"/>
<path d="M21.4124 80.881C21.6737 80.881 21.8856 80.6691 21.8856 80.4078C21.8856 80.1464 21.6737 79.9346 21.4124 79.9346C21.1511 79.9346 20.9392 80.1464 20.9392 80.4078C20.9392 80.6691 21.1511 80.881 21.4124 80.881Z" fill="black"/>
<path d="M29.6962 80.4078C29.6962 80.6689 29.4841 80.881 29.223 80.881C28.9619 80.881 28.7498 80.6689 28.7498 80.4078C28.7498 80.146 28.9619 79.9346 29.223 79.9346C29.4841 79.9346 29.6962 80.1467 29.6962 80.4078Z" fill="black"/>
<path d="M37.5061 80.4078C37.5061 80.6689 37.294 80.881 37.0329 80.881C36.7711 80.881 36.5597 80.6689 36.5597 80.4078C36.5597 80.146 36.7718 79.9346 37.0329 79.9346C37.2947 79.9346 37.5061 80.1467 37.5061 80.4078Z" fill="black"/>
<path d="M45.3167 80.4078C45.3167 80.6689 45.1046 80.881 44.8435 80.881C44.5817 80.881 44.3703 80.6689 44.3703 80.4078C44.3703 80.146 44.5824 79.9346 44.8435 79.9346C45.1046 79.9346 45.3167 80.1467 45.3167 80.4078Z" fill="black"/>
<path d="M52.6541 80.881C52.9154 80.881 53.1273 80.6691 53.1273 80.4078C53.1273 80.1464 52.9154 79.9346 52.6541 79.9346C52.3928 79.9346 52.1809 80.1464 52.1809 80.4078C52.1809 80.6691 52.3928 80.881 52.6541 80.881Z" fill="black"/>
<path d="M60.464 80.881C60.7253 80.881 60.9372 80.6691 60.9372 80.4078C60.9372 80.1464 60.7253 79.9346 60.464 79.9346C60.2026 79.9346 59.9908 80.1464 59.9908 80.4078C59.9908 80.6691 60.2026 80.881 60.464 80.881Z" fill="black"/>
<path d="M68.7478 80.4078C68.7478 80.6689 68.5357 80.881 68.2746 80.881C68.0135 80.881 67.8014 80.6689 67.8014 80.4078C67.8014 80.146 68.0135 79.9346 68.2746 79.9346C68.5357 79.9346 68.7478 80.1467 68.7478 80.4078Z" fill="black"/>
<path d="M75.99 79.943C75.9102 80.0011 75.8234 80.0515 75.7366 80.0879C75.8017 80.0151 75.8885 79.9647 75.99 79.943Z" fill="black"/>
</g>
<path opacity="0.1" d="M34.1314 44.1261C36.2287 44.1261 37.9289 42.4259 37.9289 40.3286C37.9289 38.2313 36.2287 36.5311 34.1314 36.5311C32.0341 36.5311 30.3339 38.2313 30.3339 40.3286C30.3339 42.4259 32.0341 44.1261 34.1314 44.1261Z" fill="black"/>
<path opacity="0.1" d="M59.4574 44.1261C61.5547 44.1261 63.2549 42.4259 63.2549 40.3286C63.2549 38.2313 61.5547 36.5311 59.4574 36.5311C57.3601 36.5311 55.6599 38.2313 55.6599 40.3286C55.6599 42.4259 57.3601 44.1261 59.4574 44.1261Z" fill="black"/>
<path d="M34.1314 42.9011C35.5522 42.9011 36.7039 41.7493 36.7039 40.3286C36.7039 38.9078 35.5522 37.7561 34.1314 37.7561C32.7107 37.7561 31.5589 38.9078 31.5589 40.3286C31.5589 41.7493 32.7107 42.9011 34.1314 42.9011Z" fill="#263238"/>
<path d="M59.4574 42.9011C60.8782 42.9011 62.0299 41.7493 62.0299 40.3286C62.0299 38.9078 60.8782 37.7561 59.4574 37.7561C58.0367 37.7561 56.8849 38.9078 56.8849 40.3286C56.8849 41.7493 58.0367 42.9011 59.4574 42.9011Z" fill="#263238"/>
<path d="M59.4574 40.8858C58.6573 40.8858 58.0084 40.2369 58.0084 39.4368C58.0084 38.7739 57.5513 32.1491 55.8433 25.7861C54.3859 20.3562 51.693 13.8833 47.1388 13.8833C38.7276 13.8833 35.5804 35.1017 35.5804 39.4368C35.5804 40.2369 34.9315 40.8858 34.1314 40.8858C33.3313 40.8858 32.6824 40.2369 32.6824 39.4368C32.6824 39.1526 34.4436 10.9853 47.1388 10.9853C59.4462 10.9853 60.9064 39.1526 60.9064 39.4368C60.9064 40.2369 60.2575 40.8858 59.4574 40.8858Z" fill="#FF7F00"/>
</svg>
