<svg width="141" height="250" viewBox="0 0 141 250" fill="none" xmlns="http://www.w3.org/2000/svg">
<path d="M140.9 12.2937V237.706C140.9 244.335 135.61 249.724 129.094 249.724H12.4921C5.98281 249.724 0.6922 244.335 0.6922 237.706V12.2937C0.6922 5.65069 5.98281 0.276093 12.4921 0.276093H129.094C135.61 0.276093 140.9 5.65069 140.9 12.2937Z" fill="#263238"/>
<path d="M133.525 23.6092V230.286C133.525 236.602 128.794 241.717 122.961 241.717H18.6409C12.7952 241.717 8.0639 236.602 8.0639 230.286V23.6092C8.0639 10.7341 12.7952 7.89279 18.6409 7.89279H39.5345C40.7483 7.89279 41.7388 9.26759 41.7388 10.977V11.7134C41.7388 15.7265 43.9312 15.7391 46.6311 15.7391H94.9577C97.6702 15.7391 99.85 15.7265 99.85 11.7134V10.977C99.85 9.26759 100.829 7.89279 102.054 7.89279H122.961C128.794 7.89209 133.525 11.8198 133.525 23.6092Z" fill="white"/>
<path d="M77.3856 10.7341H64.2046C63.7545 10.7341 63.3905 10.3694 63.3905 9.92C63.3905 9.4699 63.7552 9.1059 64.2046 9.1059H77.3856C77.8357 9.1059 78.1997 9.4706 78.1997 9.92C78.1997 10.3694 77.835 10.7341 77.3856 10.7341Z" fill="white"/>
</svg>
