<svg width="78" height="17" viewBox="0 0 78 17" fill="none" xmlns="http://www.w3.org/2000/svg">
<path d="M77.3063 0.0886993H0.285309V16.3105H77.3063V0.0886993Z" fill="#FF7F00"/>
<path d="M13.4544 10.119H11.3418L10.9155 11.2495C10.8378 11.4406 10.6551 11.554 10.4633 11.554C10.4024 11.554 10.3506 11.5449 10.2981 11.5281C10.0468 11.4322 9.92499 11.1543 10.0118 10.9016L11.9333 5.7811C12.011 5.59 12.2028 5.4682 12.3939 5.4766C12.5934 5.4675 12.7761 5.5893 12.8545 5.7811L14.776 10.9016C14.8628 11.1536 14.741 11.4322 14.489 11.5281C14.4456 11.5449 14.3847 11.554 14.3238 11.554C14.1327 11.554 13.95 11.4413 13.8807 11.2495L13.4544 10.119ZM13.0981 9.16279L12.3939 7.29381L11.689 9.16279H13.0981Z" fill="white"/>
<path d="M15.9674 11.0752V5.9456C15.9674 5.6761 16.176 5.46749 16.4455 5.46749H17.4717C19.1496 5.46749 20.5062 6.83249 20.5062 8.50199C20.5062 10.1883 19.1496 11.5533 17.4717 11.5533H16.4455C16.176 11.554 15.9674 11.3363 15.9674 11.0752ZM16.9327 10.5887H17.4717C18.6197 10.5796 19.5409 9.65839 19.5409 8.50269C19.5409 7.36379 18.6197 6.4335 17.4717 6.4335H16.9327V10.5887Z" fill="white"/>
<path d="M21.9566 11.0752V5.9456C21.9566 5.6761 22.1652 5.46749 22.4347 5.46749H23.4609C25.1388 5.46749 26.4954 6.83249 26.4954 8.50199C26.4954 10.1883 25.1388 11.5533 23.4609 11.5533H22.4347C22.1652 11.554 21.9566 11.3363 21.9566 11.0752ZM22.9219 10.5887H23.4609C24.6089 10.5796 25.5301 9.65839 25.5301 8.50269C25.5301 7.36379 24.6089 6.4335 23.4609 6.4335H22.9219V10.5887Z" fill="white"/>
<path d="M34.537 6.43279H33.1545V11.0752C33.1545 11.3454 32.9459 11.554 32.6764 11.554C32.4153 11.554 32.1976 11.3454 32.1976 11.0752V6.43279H30.8235C30.554 6.43279 30.3454 6.2067 30.3454 5.9456C30.3454 5.6761 30.554 5.46749 30.8235 5.46749H34.5363C34.7974 5.46749 35.0151 5.6761 35.0151 5.9456C35.0158 6.2067 34.7981 6.43279 34.537 6.43279Z" fill="white"/>
<path d="M40.7698 6.22351C41.3095 6.79751 41.6483 7.5626 41.6483 8.4229C41.6483 9.2839 41.3095 10.0574 40.7698 10.623C40.2574 11.1886 39.4923 11.5533 38.6922 11.5533C37.8578 11.5533 37.092 11.1886 36.5621 10.623C36.0231 10.0574 35.7011 9.2839 35.7011 8.4229C35.7011 7.5626 36.0231 6.79751 36.5621 6.22351C37.092 5.65021 37.8578 5.2939 38.6922 5.2939C39.4923 5.2939 40.2574 5.65021 40.7698 6.22351ZM40.6571 8.42359C40.6571 7.83209 40.4226 7.2847 40.0656 6.9018C39.7002 6.5105 39.2137 6.28439 38.6922 6.28439C38.1357 6.28439 37.6485 6.5105 37.2831 6.9018C36.9177 7.2847 36.6916 7.83209 36.6916 8.42359C36.6916 9.01509 36.9177 9.5625 37.2831 9.9363C37.6478 10.3283 38.1357 10.5628 38.6922 10.5628C39.2137 10.5628 39.7002 10.3283 40.0656 9.9363C40.4226 9.5625 40.6571 9.01509 40.6571 8.42359Z" fill="white"/>
<path d="M45.6992 8.42359C45.7083 6.70229 47.1517 5.3023 48.8905 5.2939C49.6556 5.2939 50.3514 5.5452 50.8988 5.9722C51.1081 6.1458 51.1424 6.45031 50.9856 6.66731C50.812 6.88501 50.4907 6.9193 50.2905 6.7632C49.9076 6.4503 49.4295 6.28439 48.8905 6.28439C48.2913 6.28439 47.7348 6.5287 47.326 6.9109C46.9347 7.3106 46.6911 7.83209 46.6911 8.42359C46.6911 9.01509 46.9354 9.5541 47.326 9.9363C47.7348 10.3192 48.2913 10.5628 48.8905 10.5628C49.4295 10.5628 49.8992 10.3976 50.2905 10.0847C50.4907 9.9363 50.812 9.97129 50.9856 10.1799C51.1424 10.3976 51.1081 10.7105 50.8988 10.8757C50.3514 11.3013 49.6556 11.554 48.8905 11.554C47.1524 11.554 45.7083 10.154 45.6992 8.42359Z" fill="white"/>
<path d="M55.6448 10.119H53.5322L53.1059 11.2495C53.0282 11.4406 52.8455 11.554 52.6537 11.554C52.5928 11.554 52.541 11.5449 52.4885 11.5281C52.2372 11.4322 52.1154 11.1543 52.2022 10.9016L54.1237 5.7811C54.2014 5.59 54.3932 5.4682 54.5843 5.4766C54.7838 5.4675 54.9665 5.5893 55.0449 5.7811L56.9664 10.9016C57.0532 11.1536 56.9314 11.4322 56.6794 11.5281C56.6353 11.5449 56.5751 11.554 56.5142 11.554C56.3231 11.554 56.1404 11.4413 56.0711 11.2495L55.6448 10.119ZM55.2892 9.16279L54.585 7.29381L53.8801 9.16279H55.2892Z" fill="white"/>
<path d="M62.1835 10.8323C62.2703 11.0843 62.131 11.3538 61.8783 11.4413C61.8433 11.4497 61.7747 11.4672 61.6879 11.4672C61.6879 11.4672 61.6879 11.4672 61.6788 11.4672C61.592 11.4672 61.4611 11.4497 61.34 11.3713C61.2266 11.3013 61.1314 11.1886 61.0614 11.0668C60.9396 10.8148 60.8787 10.5012 60.8787 10.0231C60.8696 9.85859 60.8346 9.7452 60.7744 9.65C60.7226 9.5541 60.6176 9.46661 60.514 9.39801C60.3306 9.27621 60.1052 9.2069 60.0268 9.1894H59.0006V11.0752C59.0006 11.3363 58.7836 11.554 58.5141 11.554C58.2446 11.554 58.036 11.337 58.036 11.0752V5.9456C58.036 5.6761 58.2446 5.46749 58.5141 5.46749C58.5141 5.46749 58.5141 5.46749 58.5232 5.46749H60.0709C61.1055 5.46749 61.9315 6.3019 61.9315 7.3365C61.9315 7.9105 61.6704 8.41519 61.2532 8.76239C61.3659 8.84919 61.4702 8.95349 61.557 9.08439C61.7306 9.33639 61.8433 9.65769 61.8433 10.0231C61.8349 10.2842 61.8608 10.4494 61.8783 10.5362C62.0183 10.5796 62.131 10.6846 62.1835 10.8323ZM60.9662 7.3365C60.9662 6.8325 60.5665 6.43279 60.0709 6.43279H59.0013V8.22411H60.0709C60.5665 8.22411 60.9662 7.8244 60.9662 7.3365Z" fill="white"/>
<path d="M67.1388 6.43279H65.7563V11.0752C65.7563 11.3454 65.5477 11.554 65.2782 11.554C65.0171 11.554 64.7994 11.3454 64.7994 11.0752V6.43279H63.4253C63.1558 6.43279 62.9472 6.2067 62.9472 5.9456C62.9472 5.6761 63.1558 5.46749 63.4253 5.46749H67.1381C67.3992 5.46749 67.6169 5.6761 67.6169 5.9456C67.6176 6.2067 67.3999 6.43279 67.1388 6.43279Z" fill="white"/>
</svg>
