<svg width="9" height="8" viewBox="0 0 9 8" fill="none" xmlns="http://www.w3.org/2000/svg">
<path d="M5.1204 6.20359L2.80341 4.03289L5.1204 1.8629L5.4795 2.2458L3.572 4.03289L5.4795 5.8214L5.1204 6.20359Z" fill="#C7C7C7"/>
<path d="M4.65141 7.9018C2.51851 7.9018 0.783203 6.1658 0.783203 4.0329C0.783203 1.9 2.51851 0.164001 4.65141 0.164001C6.78501 0.164001 8.5203 1.9 8.5203 4.0329C8.5203 6.1665 6.78501 7.9018 4.65141 7.9018ZM4.65141 0.864001C2.90421 0.864001 1.4832 2.2857 1.4832 4.0329C1.4832 5.7801 2.90421 7.2018 4.65141 7.2018C6.39861 7.2018 7.8203 5.7801 7.8203 4.0329C7.8203 2.2857 6.39861 0.864001 4.65141 0.864001Z" fill="#C7C7C7"/>
</svg>
