<svg width="17" height="17" viewBox="0 0 17 17" fill="none" xmlns="http://www.w3.org/2000/svg">
<path d="M16.678 0.1474H0.32251V16.5029H16.678V0.1474Z" fill="#EBEBEB"/>
<path d="M12.583 14.6136H4.41681C2.20971 14.6136 2.56392 12.8482 3.09312 10.9953C3.62232 9.14239 4.40702 6.33399 6.37892 6.33399C8.34942 6.33399 8.49853 6.33399 8.49853 6.33399C8.49853 6.33399 8.64971 6.33399 10.6202 6.33399C12.5928 6.33399 13.3768 9.14239 13.906 10.9953C14.4359 12.8482 14.7901 14.6136 12.583 14.6136Z" fill="#A6A6A6"/>
<g opacity="0.1">
<path d="M6.14863 6.4229C6.14863 6.4691 6.11085 6.5069 6.06395 6.5069C6.01705 6.5069 5.97925 6.4691 5.97925 6.4229C5.97925 6.376 6.01705 6.3382 6.06395 6.3382C6.11085 6.3382 6.14863 6.3767 6.14863 6.4229Z" fill="black"/>
<path d="M7.54022 6.4229C7.54022 6.4691 7.50242 6.5069 7.45552 6.5069C7.40862 6.5069 7.37152 6.4691 7.37152 6.4229C7.37152 6.376 7.40932 6.3382 7.45552 6.3382C7.50242 6.3389 7.54022 6.3767 7.54022 6.4229Z" fill="black"/>
<path d="M8.93249 6.4229C8.93249 6.4691 8.89469 6.5069 8.84779 6.5069C8.80089 6.5069 8.76379 6.4691 8.76379 6.4229C8.76379 6.376 8.80159 6.3382 8.84779 6.3382C8.89469 6.3389 8.93249 6.3767 8.93249 6.4229Z" fill="black"/>
<path d="M10.3241 6.4229C10.3241 6.4691 10.2863 6.5069 10.2394 6.5069C10.1925 6.5069 10.1547 6.4691 10.1547 6.4229C10.1547 6.376 10.1925 6.3382 10.2394 6.3382C10.2863 6.3389 10.3241 6.3767 10.3241 6.4229Z" fill="black"/>
<path d="M4.75634 8.2121C4.75634 8.2583 4.71855 8.2961 4.67235 8.2961C4.62615 8.2961 4.58765 8.2583 4.58765 8.2121C4.58765 8.1652 4.62545 8.1274 4.67235 8.1274C4.71855 8.1281 4.75634 8.1659 4.75634 8.2121Z" fill="black"/>
<path d="M6.14863 8.2121C6.14863 8.2583 6.11085 8.2961 6.06395 8.2961C6.01705 8.2961 5.97925 8.2583 5.97925 8.2121C5.97925 8.1652 6.01705 8.1274 6.06395 8.1274C6.11085 8.1274 6.14863 8.1659 6.14863 8.2121Z" fill="black"/>
<path d="M7.54022 8.2121C7.54022 8.2583 7.50242 8.2961 7.45552 8.2961C7.40862 8.2961 7.37152 8.2583 7.37152 8.2121C7.37152 8.1652 7.40932 8.1274 7.45552 8.1274C7.50242 8.1281 7.54022 8.1659 7.54022 8.2121Z" fill="black"/>
<path d="M8.93249 8.2121C8.93249 8.2583 8.89469 8.2961 8.84779 8.2961C8.80089 8.2961 8.76379 8.2583 8.76379 8.2121C8.76379 8.1652 8.80159 8.1274 8.84779 8.1274C8.89469 8.1281 8.93249 8.1659 8.93249 8.2121Z" fill="black"/>
<path d="M10.3241 8.2121C10.3241 8.2583 10.2863 8.2961 10.2394 8.2961C10.1925 8.2961 10.1547 8.2583 10.1547 8.2121C10.1547 8.1652 10.1925 8.1274 10.2394 8.1274C10.2863 8.1281 10.3241 8.1659 10.3241 8.2121Z" fill="black"/>
<path d="M11.7164 8.2121C11.7164 8.2583 11.6786 8.2961 11.6317 8.2961C11.5855 8.2961 11.5477 8.2583 11.5477 8.2121C11.5477 8.1652 11.5855 8.1274 11.6317 8.1274C11.6786 8.1281 11.7164 8.1659 11.7164 8.2121Z" fill="black"/>
<path d="M5.45279 7.2951C5.45279 7.3413 5.41499 7.3791 5.36809 7.3791C5.32119 7.3791 5.28339 7.3413 5.28339 7.2951C5.28339 7.2482 5.32119 7.2104 5.36809 7.2104C5.41499 7.2104 5.45279 7.2482 5.45279 7.2951Z" fill="black"/>
<path d="M6.84442 7.2951C6.84442 7.3413 6.80662 7.3791 6.75972 7.3791C6.71352 7.3791 6.67572 7.3413 6.67572 7.2951C6.67572 7.2482 6.71352 7.2104 6.75972 7.2104C6.80662 7.2104 6.84442 7.2482 6.84442 7.2951Z" fill="black"/>
<path d="M8.23602 7.2951C8.23602 7.3413 8.19822 7.3791 8.15132 7.3791C8.10512 7.3791 8.06732 7.3413 8.06732 7.2951C8.06732 7.2482 8.10512 7.2104 8.15132 7.2104C8.19892 7.2104 8.23602 7.2482 8.23602 7.2951Z" fill="black"/>
<path d="M9.62829 7.2951C9.62829 7.3413 9.59049 7.3791 9.54359 7.3791C9.49739 7.3791 9.45959 7.3413 9.45959 7.2951C9.45959 7.2482 9.49739 7.2104 9.54359 7.2104C9.59049 7.2104 9.62829 7.2482 9.62829 7.2951Z" fill="black"/>
<path d="M11.0199 7.2951C11.0199 7.3413 10.9821 7.3791 10.9359 7.3791C10.889 7.3791 10.8512 7.3413 10.8512 7.2951C10.8512 7.2482 10.889 7.2104 10.9359 7.2104C10.9828 7.2104 11.0199 7.2482 11.0199 7.2951Z" fill="black"/>
<path d="M12.4003 7.3371C12.3877 7.363 12.359 7.37981 12.3282 7.37981C12.282 7.37981 12.2442 7.34269 12.2442 7.29579C12.2442 7.25729 12.2687 7.22579 12.3023 7.21459C12.3352 7.25449 12.3674 7.2944 12.4003 7.3371Z" fill="black"/>
<path d="M4.75634 10.0013C4.75634 10.0475 4.71855 10.086 4.67235 10.086C4.62615 10.086 4.58765 10.0482 4.58765 10.0013C4.58765 9.9544 4.62545 9.9166 4.67235 9.9166C4.71855 9.9173 4.75634 9.9551 4.75634 10.0013Z" fill="black"/>
<path d="M6.14863 10.0013C6.14863 10.0475 6.11085 10.086 6.06395 10.086C6.01705 10.086 5.97925 10.0482 5.97925 10.0013C5.97925 9.9544 6.01705 9.9166 6.06395 9.9166C6.11085 9.9166 6.14863 9.9551 6.14863 10.0013Z" fill="black"/>
<path d="M7.54022 10.0013C7.54022 10.0475 7.50242 10.086 7.45552 10.086C7.40862 10.086 7.37152 10.0482 7.37152 10.0013C7.37152 9.9544 7.40932 9.9166 7.45552 9.9166C7.50242 9.9173 7.54022 9.9551 7.54022 10.0013Z" fill="black"/>
<path d="M8.93249 10.0013C8.93249 10.0475 8.89469 10.086 8.84779 10.086C8.80089 10.086 8.76379 10.0482 8.76379 10.0013C8.76379 9.9544 8.80159 9.9166 8.84779 9.9166C8.89469 9.9173 8.93249 9.9551 8.93249 10.0013Z" fill="black"/>
<path d="M10.3241 10.0013C10.3241 10.0475 10.2863 10.086 10.2394 10.086C10.1925 10.086 10.1547 10.0482 10.1547 10.0013C10.1547 9.9544 10.1925 9.9166 10.2394 9.9166C10.2863 9.9173 10.3241 9.9551 10.3241 10.0013Z" fill="black"/>
<path d="M11.7164 10.0013C11.7164 10.0475 11.6786 10.086 11.6317 10.086C11.5855 10.086 11.5477 10.0482 11.5477 10.0013C11.5477 9.9544 11.5855 9.9166 11.6317 9.9166C11.6786 9.9173 11.7164 9.9551 11.7164 10.0013Z" fill="black"/>
<path d="M13.108 10.0013C13.108 10.0475 13.0702 10.086 13.024 10.086C12.9771 10.086 12.9393 10.0482 12.9393 10.0013C12.9393 9.9544 12.9771 9.9166 13.024 9.9166C13.0702 9.9173 13.108 9.9551 13.108 10.0013Z" fill="black"/>
<path d="M3.97651 9.1683C4.02291 9.1683 4.06053 9.1307 4.06053 9.08431C4.06053 9.03792 4.02291 9.00029 3.97651 9.00029C3.93012 9.00029 3.89252 9.03792 3.89252 9.08431C3.89252 9.1307 3.93012 9.1683 3.97651 9.1683Z" fill="black"/>
<path d="M5.45279 9.0843C5.45279 9.1305 5.41499 9.1683 5.36809 9.1683C5.32119 9.1683 5.28339 9.1305 5.28339 9.0843C5.28339 9.0374 5.32119 8.9996 5.36809 8.9996C5.41499 8.9996 5.45279 9.0374 5.45279 9.0843Z" fill="black"/>
<path d="M6.84442 9.0843C6.84442 9.1305 6.80662 9.1683 6.75972 9.1683C6.71352 9.1683 6.67572 9.1305 6.67572 9.0843C6.67572 9.0374 6.71352 8.9996 6.75972 8.9996C6.80662 8.9996 6.84442 9.0374 6.84442 9.0843Z" fill="black"/>
<path d="M8.23602 9.0843C8.23602 9.1305 8.19822 9.1683 8.15132 9.1683C8.10512 9.1683 8.06732 9.1305 8.06732 9.0843C8.06732 9.0374 8.10512 8.9996 8.15132 8.9996C8.19892 8.9996 8.23602 9.0374 8.23602 9.0843Z" fill="black"/>
<path d="M9.62829 9.0843C9.62829 9.1305 9.59049 9.1683 9.54359 9.1683C9.49739 9.1683 9.45959 9.1305 9.45959 9.0843C9.45959 9.0374 9.49739 8.9996 9.54359 8.9996C9.59049 8.9996 9.62829 9.0374 9.62829 9.0843Z" fill="black"/>
<path d="M11.0199 9.0843C11.0199 9.1305 10.9821 9.1683 10.9359 9.1683C10.889 9.1683 10.8512 9.1305 10.8512 9.0843C10.8512 9.0374 10.889 8.9996 10.9359 8.9996C10.9828 8.9996 11.0199 9.0374 11.0199 9.0843Z" fill="black"/>
<path d="M12.4122 9.0843C12.4122 9.1305 12.3744 9.1683 12.3275 9.1683C12.2806 9.1683 12.2428 9.1305 12.2428 9.0843C12.2428 9.0374 12.2806 8.9996 12.3275 8.9996C12.3744 8.9996 12.4122 9.0374 12.4122 9.0843Z" fill="black"/>
<path d="M3.36472 11.7905C3.36472 11.8367 3.32691 11.8752 3.28001 11.8752C3.23381 11.8752 3.19531 11.8374 3.19531 11.7905C3.19531 11.7436 3.23311 11.7058 3.28001 11.7058C3.32691 11.7058 3.36472 11.7443 3.36472 11.7905Z" fill="black"/>
<path d="M4.75634 11.7905C4.75634 11.8367 4.71855 11.8752 4.67235 11.8752C4.62615 11.8752 4.58765 11.8374 4.58765 11.7905C4.58765 11.7436 4.62545 11.7058 4.67235 11.7058C4.71855 11.7058 4.75634 11.7443 4.75634 11.7905Z" fill="black"/>
<path d="M6.14863 11.7905C6.14863 11.8367 6.11085 11.8752 6.06395 11.8752C6.01705 11.8752 5.97925 11.8374 5.97925 11.7905C5.97925 11.7436 6.01705 11.7058 6.06395 11.7058C6.11085 11.7058 6.14863 11.7443 6.14863 11.7905Z" fill="black"/>
<path d="M7.54022 11.7905C7.54022 11.8367 7.50242 11.8752 7.45552 11.8752C7.40862 11.8752 7.37152 11.8374 7.37152 11.7905C7.37152 11.7436 7.40932 11.7058 7.45552 11.7058C7.50242 11.7058 7.54022 11.7443 7.54022 11.7905Z" fill="black"/>
<path d="M8.93249 11.7905C8.93249 11.8367 8.89469 11.8752 8.84779 11.8752C8.80089 11.8752 8.76379 11.8374 8.76379 11.7905C8.76379 11.7436 8.80159 11.7058 8.84779 11.7058C8.89469 11.7058 8.93249 11.7443 8.93249 11.7905Z" fill="black"/>
<path d="M10.3241 11.7905C10.3241 11.8367 10.2863 11.8752 10.2394 11.8752C10.1925 11.8752 10.1547 11.8374 10.1547 11.7905C10.1547 11.7436 10.1925 11.7058 10.2394 11.7058C10.2863 11.7058 10.3241 11.7443 10.3241 11.7905Z" fill="black"/>
<path d="M11.7164 11.7905C11.7164 11.8367 11.6786 11.8752 11.6317 11.8752C11.5855 11.8752 11.5477 11.8374 11.5477 11.7905C11.5477 11.7436 11.5855 11.7058 11.6317 11.7058C11.6786 11.7058 11.7164 11.7443 11.7164 11.7905Z" fill="black"/>
<path d="M13.108 11.7905C13.108 11.8367 13.0702 11.8752 13.024 11.8752C12.9771 11.8752 12.9393 11.8374 12.9393 11.7905C12.9393 11.7436 12.9771 11.7058 13.024 11.7058C13.0702 11.7058 13.108 11.7443 13.108 11.7905Z" fill="black"/>
<path d="M3.97651 10.9568C4.02291 10.9568 4.06053 10.9192 4.06053 10.8728C4.06053 10.8264 4.02291 10.7888 3.97651 10.7888C3.93012 10.7888 3.89252 10.8264 3.89252 10.8728C3.89252 10.9192 3.93012 10.9568 3.97651 10.9568Z" fill="black"/>
<path d="M5.45279 10.8728C5.45279 10.919 5.41499 10.9575 5.36809 10.9575C5.32119 10.9575 5.28339 10.9197 5.28339 10.8728C5.28339 10.8259 5.32119 10.7888 5.36809 10.7888C5.41499 10.7888 5.45279 10.8266 5.45279 10.8728Z" fill="black"/>
<path d="M6.84442 10.8728C6.84442 10.919 6.80662 10.9575 6.75972 10.9575C6.71352 10.9575 6.67572 10.9197 6.67572 10.8728C6.67572 10.8259 6.71352 10.7888 6.75972 10.7888C6.80662 10.7888 6.84442 10.8266 6.84442 10.8728Z" fill="black"/>
<path d="M8.23602 10.8728C8.23602 10.919 8.19822 10.9575 8.15132 10.9575C8.10512 10.9575 8.06732 10.9197 8.06732 10.8728C8.06732 10.8259 8.10512 10.7888 8.15132 10.7888C8.19892 10.7888 8.23602 10.8266 8.23602 10.8728Z" fill="black"/>
<path d="M9.62829 10.8728C9.62829 10.919 9.59049 10.9575 9.54359 10.9575C9.49739 10.9575 9.45959 10.9197 9.45959 10.8728C9.45959 10.8259 9.49739 10.7888 9.54359 10.7888C9.59049 10.7888 9.62829 10.8266 9.62829 10.8728Z" fill="black"/>
<path d="M11.0199 10.8728C11.0199 10.919 10.9821 10.9575 10.9359 10.9575C10.889 10.9575 10.8512 10.9197 10.8512 10.8728C10.8512 10.8259 10.889 10.7888 10.9359 10.7888C10.9828 10.7888 11.0199 10.8266 11.0199 10.8728Z" fill="black"/>
<path d="M12.4122 10.8728C12.4122 10.919 12.3744 10.9575 12.3275 10.9575C12.2806 10.9575 12.2428 10.9197 12.2428 10.8728C12.2428 10.8259 12.2806 10.7888 12.3275 10.7888C12.3744 10.7888 12.4122 10.8266 12.4122 10.8728Z" fill="black"/>
<path d="M13.8038 10.8728C13.8038 10.919 13.766 10.9575 13.7198 10.9575C13.6729 10.9575 13.6351 10.9197 13.6351 10.8728C13.6351 10.8259 13.6729 10.7888 13.7198 10.7888C13.766 10.7888 13.8038 10.8266 13.8038 10.8728Z" fill="black"/>
<path d="M3.36472 13.5797C3.36472 13.6259 3.32691 13.6637 3.28001 13.6637C3.23381 13.6637 3.19531 13.6259 3.19531 13.5797C3.19531 13.5328 3.23311 13.495 3.28001 13.495C3.32691 13.495 3.36472 13.5328 3.36472 13.5797Z" fill="black"/>
<path d="M4.67231 13.6637C4.71871 13.6637 4.75631 13.6261 4.75631 13.5797C4.75631 13.5333 4.71871 13.4957 4.67231 13.4957C4.62592 13.4957 4.58832 13.5333 4.58832 13.5797C4.58832 13.6261 4.62592 13.6637 4.67231 13.6637Z" fill="black"/>
<path d="M6.06394 13.6637C6.11033 13.6637 6.14793 13.6261 6.14793 13.5797C6.14793 13.5333 6.11033 13.4957 6.06394 13.4957C6.01755 13.4957 5.97992 13.5333 5.97992 13.5797C5.97992 13.6261 6.01755 13.6637 6.06394 13.6637Z" fill="black"/>
<path d="M7.45619 13.6637C7.50258 13.6637 7.54019 13.6261 7.54019 13.5797C7.54019 13.5333 7.50258 13.4957 7.45619 13.4957C7.4098 13.4957 7.37219 13.5333 7.37219 13.5797C7.37219 13.6261 7.4098 13.6637 7.45619 13.6637Z" fill="black"/>
<path d="M8.84779 13.6637C8.89418 13.6637 8.93179 13.6261 8.93179 13.5797C8.93179 13.5333 8.89418 13.4957 8.84779 13.4957C8.8014 13.4957 8.76379 13.5333 8.76379 13.5797C8.76379 13.6261 8.8014 13.6637 8.84779 13.6637Z" fill="black"/>
<path d="M10.3241 13.5797C10.3241 13.6259 10.2863 13.6637 10.2394 13.6637C10.1925 13.6637 10.1547 13.6259 10.1547 13.5797C10.1547 13.5328 10.1925 13.495 10.2394 13.495C10.2863 13.495 10.3241 13.5328 10.3241 13.5797Z" fill="black"/>
<path d="M11.6317 13.6637C11.6781 13.6637 11.7157 13.6261 11.7157 13.5797C11.7157 13.5333 11.6781 13.4957 11.6317 13.4957C11.5853 13.4957 11.5477 13.5333 11.5477 13.5797C11.5477 13.6261 11.5853 13.6637 11.6317 13.6637Z" fill="black"/>
<path d="M13.024 13.6637C13.0704 13.6637 13.108 13.6261 13.108 13.5797C13.108 13.5333 13.0704 13.4957 13.024 13.4957C12.9776 13.4957 12.94 13.5333 12.94 13.5797C12.94 13.6261 12.9776 13.6637 13.024 13.6637Z" fill="black"/>
<path d="M3.97651 12.746C4.02291 12.746 4.06053 12.7084 4.06053 12.662C4.06053 12.6156 4.02291 12.578 3.97651 12.578C3.93012 12.578 3.89252 12.6156 3.89252 12.662C3.89252 12.7084 3.93012 12.746 3.97651 12.746Z" fill="black"/>
<path d="M5.45279 12.662C5.45279 12.7082 5.41499 12.7467 5.36809 12.7467C5.32119 12.7467 5.28339 12.7089 5.28339 12.662C5.28339 12.6151 5.32119 12.5773 5.36809 12.5773C5.41499 12.578 5.45279 12.6158 5.45279 12.662Z" fill="black"/>
<path d="M6.84442 12.662C6.84442 12.7082 6.80662 12.7467 6.75972 12.7467C6.71352 12.7467 6.67572 12.7089 6.67572 12.662C6.67572 12.6151 6.71352 12.5773 6.75972 12.5773C6.80662 12.578 6.84442 12.6158 6.84442 12.662Z" fill="black"/>
<path d="M8.23602 12.662C8.23602 12.7082 8.19822 12.7467 8.15132 12.7467C8.10512 12.7467 8.06732 12.7089 8.06732 12.662C8.06732 12.6151 8.10512 12.5773 8.15132 12.5773C8.19892 12.578 8.23602 12.6158 8.23602 12.662Z" fill="black"/>
<path d="M9.62829 12.662C9.62829 12.7082 9.59049 12.7467 9.54359 12.7467C9.49739 12.7467 9.45959 12.7089 9.45959 12.662C9.45959 12.6151 9.49739 12.5773 9.54359 12.5773C9.59049 12.578 9.62829 12.6158 9.62829 12.662Z" fill="black"/>
<path d="M11.0199 12.662C11.0199 12.7082 10.9821 12.7467 10.9359 12.7467C10.889 12.7467 10.8512 12.7089 10.8512 12.662C10.8512 12.6151 10.889 12.5773 10.9359 12.5773C10.9828 12.578 11.0199 12.6158 11.0199 12.662Z" fill="black"/>
<path d="M12.4122 12.662C12.4122 12.7082 12.3744 12.7467 12.3275 12.7467C12.2806 12.7467 12.2428 12.7089 12.2428 12.662C12.2428 12.6151 12.2806 12.5773 12.3275 12.5773C12.3744 12.578 12.4122 12.6158 12.4122 12.662Z" fill="black"/>
<path d="M13.8038 12.662C13.8038 12.7082 13.766 12.7467 13.7198 12.7467C13.6729 12.7467 13.6351 12.7089 13.6351 12.662C13.6351 12.6151 13.6729 12.5773 13.7198 12.5773C13.766 12.578 13.8038 12.6158 13.8038 12.662Z" fill="black"/>
<path d="M3.97651 14.5352C4.02291 14.5352 4.06053 14.4976 4.06053 14.4512C4.06053 14.4048 4.02291 14.3672 3.97651 14.3672C3.93012 14.3672 3.89252 14.4048 3.89252 14.4512C3.89252 14.4976 3.93012 14.5352 3.97651 14.5352Z" fill="black"/>
<path d="M5.45279 14.4512C5.45279 14.4974 5.41499 14.5352 5.36809 14.5352C5.32119 14.5352 5.28339 14.4974 5.28339 14.4512C5.28339 14.4043 5.32119 14.3665 5.36809 14.3665C5.41499 14.3672 5.45279 14.405 5.45279 14.4512Z" fill="black"/>
<path d="M6.84442 14.4512C6.84442 14.4974 6.80662 14.5352 6.75972 14.5352C6.71352 14.5352 6.67572 14.4974 6.67572 14.4512C6.67572 14.4043 6.71352 14.3665 6.75972 14.3665C6.80662 14.3672 6.84442 14.405 6.84442 14.4512Z" fill="black"/>
<path d="M8.23602 14.4512C8.23602 14.4974 8.19822 14.5352 8.15132 14.5352C8.10512 14.5352 8.06732 14.4974 8.06732 14.4512C8.06732 14.4043 8.10512 14.3665 8.15132 14.3665C8.19892 14.3672 8.23602 14.405 8.23602 14.4512Z" fill="black"/>
<path d="M9.62829 14.4512C9.62829 14.4974 9.59049 14.5352 9.54359 14.5352C9.49739 14.5352 9.45959 14.4974 9.45959 14.4512C9.45959 14.4043 9.49739 14.3665 9.54359 14.3665C9.59049 14.3672 9.62829 14.405 9.62829 14.4512Z" fill="black"/>
<path d="M11.0199 14.4512C11.0199 14.4974 10.9821 14.5352 10.9359 14.5352C10.889 14.5352 10.8512 14.4974 10.8512 14.4512C10.8512 14.4043 10.889 14.3665 10.9359 14.3665C10.9828 14.3672 11.0199 14.405 11.0199 14.4512Z" fill="black"/>
<path d="M12.4122 14.4512C12.4122 14.4974 12.3744 14.5352 12.3275 14.5352C12.2806 14.5352 12.2428 14.4974 12.2428 14.4512C12.2428 14.4043 12.2806 14.3665 12.3275 14.3665C12.3744 14.3672 12.4122 14.405 12.4122 14.4512Z" fill="black"/>
<path d="M13.703 14.3686C13.689 14.3791 13.6736 14.3882 13.6575 14.3945C13.6694 14.3812 13.6848 14.3721 13.703 14.3686Z" fill="black"/>
</g>
<path opacity="0.1" d="M6.92004 7.30839C6.92004 7.68219 6.61693 7.9853 6.24313 7.9853C5.86933 7.9853 5.56622 7.68219 5.56622 7.30839C5.56622 6.93459 5.86933 6.63151 6.24313 6.63151C6.61693 6.63221 6.92004 6.93459 6.92004 7.30839Z" fill="black"/>
<path opacity="0.1" d="M11.433 7.30839C11.433 7.68219 11.1298 7.9853 10.756 7.9853C10.3822 7.9853 10.0792 7.68219 10.0792 7.30839C10.0792 6.93459 10.3822 6.63151 10.756 6.63151C11.1305 6.63221 11.433 6.93459 11.433 7.30839Z" fill="black"/>
<path d="M6.24311 7.76689C6.49633 7.76689 6.70161 7.56161 6.70161 7.30839C6.70161 7.05517 6.49633 6.84989 6.24311 6.84989C5.98988 6.84989 5.78461 7.05517 5.78461 7.30839C5.78461 7.56161 5.98988 7.76689 6.24311 7.76689Z" fill="#263238"/>
<path d="M10.7567 7.76689C11.0099 7.76689 11.2152 7.56161 11.2152 7.30839C11.2152 7.05517 11.0099 6.84989 10.7567 6.84989C10.5035 6.84989 10.2982 7.05517 10.2982 7.30839C10.2982 7.56161 10.5035 7.76689 10.7567 7.76689Z" fill="#263238"/>
<path d="M10.7568 7.40779C10.614 7.40779 10.4985 7.2923 10.4985 7.1495C10.4985 7.0312 10.4173 5.851 10.1128 4.717C9.85307 3.7496 9.37286 2.596 8.56156 2.596C7.06286 2.596 6.50147 6.3774 6.50147 7.1502C6.50147 7.293 6.38595 7.4085 6.24315 7.4085C6.10035 7.4085 5.98486 7.293 5.98486 7.1502C5.98486 7.0998 6.29846 2.07939 8.56156 2.07939C10.7547 2.07939 11.0151 7.0991 11.0151 7.1502C11.0151 7.2923 10.8989 7.40779 10.7568 7.40779Z" fill="#A6A6A6"/>
</svg>
