<svg width="8" height="8" viewBox="0 0 8 8" fill="none" xmlns="http://www.w3.org/2000/svg">
<path d="M3.47189 6.20359L3.11279 5.8214L5.01961 4.03289L3.11279 2.2458L3.47189 1.8629L5.78821 4.03289L3.47189 6.20359Z" fill="#C7C7C7"/>
<path d="M3.94022 7.9018C1.80732 7.9018 0.0720215 6.1658 0.0720215 4.0329C0.0720215 1.9 1.80732 0.164001 3.94022 0.164001C6.07382 0.164001 7.80913 1.9 7.80913 4.0329C7.80983 6.1665 6.07382 7.9018 3.94022 7.9018ZM3.94022 0.864001C2.19302 0.864001 0.772021 2.2857 0.772021 4.0329C0.772021 5.7801 2.19302 7.2018 3.94022 7.2018C5.68742 7.2018 7.10913 5.7801 7.10913 4.0329C7.10983 2.2857 5.68742 0.864001 3.94022 0.864001Z" fill="#C7C7C7"/>
</svg>
