<svg width="18" height="17" viewBox="0 0 18 17" fill="none" xmlns="http://www.w3.org/2000/svg">
<path d="M17.2635 0.1474H0.90802V16.5029H17.2635V0.1474Z" fill="#EBEBEB"/>
<path d="M13.1692 14.6136H5.00304C2.79594 14.6136 3.15012 12.8482 3.67932 10.9953C4.20852 9.14239 4.99252 6.33399 6.96512 6.33399C8.93562 6.33399 9.08473 6.33399 9.08473 6.33399C9.08473 6.33399 9.23594 6.33399 11.2064 6.33399C13.179 6.33399 13.963 9.14239 14.4922 10.9953C15.0221 12.8482 15.3763 14.6136 13.1692 14.6136Z" fill="#455A64"/>
<g opacity="0.1">
<path d="M6.7341 6.4229C6.7341 6.4691 6.6963 6.5069 6.6494 6.5069C6.6025 6.5069 6.5647 6.4691 6.5647 6.4229C6.5647 6.376 6.6025 6.3382 6.6494 6.3382C6.6963 6.3389 6.7341 6.3767 6.7341 6.4229Z" fill="black"/>
<path d="M8.12642 6.4229C8.12642 6.4691 8.08862 6.5069 8.04172 6.5069C7.99552 6.5069 7.9577 6.4691 7.9577 6.4229C7.9577 6.376 7.99552 6.3382 8.04172 6.3382C8.08862 6.3389 8.12642 6.3767 8.12642 6.4229Z" fill="black"/>
<path d="M9.518 6.4229C9.518 6.4691 9.4802 6.5069 9.4333 6.5069C9.3871 6.5069 9.3493 6.4691 9.3493 6.4229C9.3493 6.376 9.3871 6.3382 9.4333 6.3382C9.4802 6.3389 9.518 6.3767 9.518 6.4229Z" fill="black"/>
<path d="M10.9103 6.4229C10.9103 6.4691 10.8725 6.5069 10.8256 6.5069C10.7787 6.5069 10.7416 6.4691 10.7416 6.4229C10.7416 6.376 10.7794 6.3382 10.8256 6.3382C10.8725 6.3389 10.9103 6.3767 10.9103 6.4229Z" fill="black"/>
<path d="M5.34253 8.2121C5.34253 8.2583 5.30472 8.2961 5.25782 8.2961C5.21092 8.2961 5.17383 8.2583 5.17383 8.2121C5.17383 8.1652 5.21162 8.1274 5.25782 8.1274C5.30472 8.1281 5.34253 8.1659 5.34253 8.2121Z" fill="black"/>
<path d="M6.7341 8.2121C6.7341 8.2583 6.6963 8.2961 6.6494 8.2961C6.6025 8.2961 6.5647 8.2583 6.5647 8.2121C6.5647 8.1652 6.6025 8.1274 6.6494 8.1274C6.6963 8.1281 6.7341 8.1659 6.7341 8.2121Z" fill="black"/>
<path d="M8.12642 8.2121C8.12642 8.2583 8.08862 8.2961 8.04172 8.2961C7.99552 8.2961 7.9577 8.2583 7.9577 8.2121C7.9577 8.1652 7.99552 8.1274 8.04172 8.1274C8.08862 8.1281 8.12642 8.1659 8.12642 8.2121Z" fill="black"/>
<path d="M9.518 8.2121C9.518 8.2583 9.4802 8.2961 9.4333 8.2961C9.3871 8.2961 9.3493 8.2583 9.3493 8.2121C9.3493 8.1652 9.3871 8.1274 9.4333 8.1274C9.4802 8.1281 9.518 8.1659 9.518 8.2121Z" fill="black"/>
<path d="M10.9103 8.2121C10.9103 8.2583 10.8725 8.2961 10.8256 8.2961C10.7787 8.2961 10.7416 8.2583 10.7416 8.2121C10.7416 8.1652 10.7794 8.1274 10.8256 8.1274C10.8725 8.1281 10.9103 8.1659 10.9103 8.2121Z" fill="black"/>
<path d="M12.3019 8.2121C12.3019 8.2583 12.2641 8.2961 12.2179 8.2961C12.171 8.2961 12.1332 8.2583 12.1332 8.2121C12.1332 8.1652 12.171 8.1274 12.2179 8.1274C12.2641 8.1281 12.3019 8.1659 12.3019 8.2121Z" fill="black"/>
<path d="M5.9543 7.3791C6.00069 7.3791 6.03831 7.3415 6.03831 7.29511C6.03831 7.24872 6.00069 7.21109 5.9543 7.21109C5.9079 7.21109 5.8703 7.24872 5.8703 7.29511C5.8703 7.3415 5.9079 7.3791 5.9543 7.3791Z" fill="black"/>
<path d="M7.3459 7.3791C7.39229 7.3791 7.4299 7.3415 7.4299 7.29511C7.4299 7.24872 7.39229 7.21109 7.3459 7.21109C7.29951 7.21109 7.2619 7.24872 7.2619 7.29511C7.2619 7.3415 7.29951 7.3791 7.3459 7.3791Z" fill="black"/>
<path d="M8.73823 7.3791C8.78462 7.3791 8.82223 7.3415 8.82223 7.29511C8.82223 7.24872 8.78462 7.21109 8.73823 7.21109C8.69184 7.21109 8.65424 7.24872 8.65424 7.29511C8.65424 7.3415 8.69184 7.3791 8.73823 7.3791Z" fill="black"/>
<path d="M10.2145 7.2951C10.2145 7.3413 10.1767 7.3791 10.1298 7.3791C10.0829 7.3791 10.0451 7.3413 10.0451 7.2951C10.0451 7.2482 10.0829 7.2104 10.1298 7.2104C10.1767 7.2104 10.2145 7.2482 10.2145 7.2951Z" fill="black"/>
<path d="M11.6061 7.2951C11.6061 7.3413 11.5683 7.3791 11.5214 7.3791C11.4752 7.3791 11.4374 7.3413 11.4374 7.2951C11.4374 7.2482 11.4752 7.2104 11.5214 7.2104C11.5683 7.2104 11.6061 7.2482 11.6061 7.2951Z" fill="black"/>
<path d="M12.9858 7.3371C12.9732 7.363 12.9445 7.37981 12.9137 7.37981C12.8675 7.37981 12.8297 7.34269 12.8297 7.29579C12.8297 7.25729 12.8542 7.22579 12.8878 7.21459C12.9214 7.25449 12.9536 7.2944 12.9858 7.3371Z" fill="black"/>
<path d="M5.34253 10.0013C5.34253 10.0475 5.30472 10.086 5.25782 10.086C5.21092 10.086 5.17383 10.0482 5.17383 10.0013C5.17383 9.9544 5.21162 9.9166 5.25782 9.9166C5.30472 9.9173 5.34253 9.9551 5.34253 10.0013Z" fill="black"/>
<path d="M6.7341 10.0013C6.7341 10.0475 6.6963 10.086 6.6494 10.086C6.6025 10.086 6.5647 10.0482 6.5647 10.0013C6.5647 9.9544 6.6025 9.9166 6.6494 9.9166C6.6963 9.9173 6.7341 9.9551 6.7341 10.0013Z" fill="black"/>
<path d="M8.12642 10.0013C8.12642 10.0475 8.08862 10.086 8.04172 10.086C7.99552 10.086 7.9577 10.0482 7.9577 10.0013C7.9577 9.9544 7.99552 9.9166 8.04172 9.9166C8.08862 9.9173 8.12642 9.9551 8.12642 10.0013Z" fill="black"/>
<path d="M9.518 10.0013C9.518 10.0475 9.4802 10.086 9.4333 10.086C9.3871 10.086 9.3493 10.0482 9.3493 10.0013C9.3493 9.9544 9.3871 9.9166 9.4333 9.9166C9.4802 9.9173 9.518 9.9551 9.518 10.0013Z" fill="black"/>
<path d="M10.9103 10.0013C10.9103 10.0475 10.8725 10.086 10.8256 10.086C10.7787 10.086 10.7416 10.0482 10.7416 10.0013C10.7416 9.9544 10.7794 9.9166 10.8256 9.9166C10.8725 9.9173 10.9103 9.9551 10.9103 10.0013Z" fill="black"/>
<path d="M12.3019 10.0013C12.3019 10.0475 12.2641 10.086 12.2179 10.086C12.171 10.086 12.1332 10.0482 12.1332 10.0013C12.1332 9.9544 12.171 9.9166 12.2179 9.9166C12.2641 9.9173 12.3019 9.9551 12.3019 10.0013Z" fill="black"/>
<path d="M13.6942 10.0013C13.6942 10.0475 13.6564 10.086 13.6102 10.086C13.5633 10.086 13.5255 10.0482 13.5255 10.0013C13.5255 9.9544 13.5633 9.9166 13.6102 9.9166C13.6564 9.9173 13.6942 9.9551 13.6942 10.0013Z" fill="black"/>
<path d="M4.56202 9.1683C4.60842 9.1683 4.64602 9.1307 4.64602 9.08431C4.64602 9.03792 4.60842 9.00029 4.56202 9.00029C4.51563 9.00029 4.47803 9.03792 4.47803 9.08431C4.47803 9.1307 4.51563 9.1683 4.56202 9.1683Z" fill="black"/>
<path d="M5.9543 9.1683C6.00069 9.1683 6.03831 9.1307 6.03831 9.08431C6.03831 9.03792 6.00069 9.00029 5.9543 9.00029C5.9079 9.00029 5.8703 9.03792 5.8703 9.08431C5.8703 9.1307 5.9079 9.1683 5.9543 9.1683Z" fill="black"/>
<path d="M7.3459 9.1683C7.39229 9.1683 7.4299 9.1307 7.4299 9.08431C7.4299 9.03792 7.39229 9.00029 7.3459 9.00029C7.29951 9.00029 7.2619 9.03792 7.2619 9.08431C7.2619 9.1307 7.29951 9.1683 7.3459 9.1683Z" fill="black"/>
<path d="M8.73823 9.1683C8.78462 9.1683 8.82223 9.1307 8.82223 9.08431C8.82223 9.03792 8.78462 9.00029 8.73823 9.00029C8.69184 9.00029 8.65424 9.03792 8.65424 9.08431C8.65424 9.1307 8.69184 9.1683 8.73823 9.1683Z" fill="black"/>
<path d="M10.2145 9.0843C10.2145 9.1305 10.1767 9.1683 10.1298 9.1683C10.0829 9.1683 10.0451 9.1305 10.0451 9.0843C10.0451 9.0374 10.0829 8.9996 10.1298 8.9996C10.1767 8.9996 10.2145 9.0374 10.2145 9.0843Z" fill="black"/>
<path d="M11.6061 9.0843C11.6061 9.1305 11.5683 9.1683 11.5214 9.1683C11.4752 9.1683 11.4374 9.1305 11.4374 9.0843C11.4374 9.0374 11.4752 8.9996 11.5214 8.9996C11.5683 8.9996 11.6061 9.0374 11.6061 9.0843Z" fill="black"/>
<path d="M12.9977 9.0843C12.9977 9.1305 12.9599 9.1683 12.9137 9.1683C12.8668 9.1683 12.829 9.1305 12.829 9.0843C12.829 9.0374 12.8668 8.9996 12.9137 8.9996C12.9606 8.9996 12.9977 9.0374 12.9977 9.0843Z" fill="black"/>
<path d="M3.95022 11.7905C3.95022 11.8367 3.9124 11.8752 3.8662 11.8752C3.82 11.8752 3.78152 11.8374 3.78152 11.7905C3.78152 11.7436 3.8193 11.7058 3.8662 11.7058C3.9131 11.7058 3.95022 11.7443 3.95022 11.7905Z" fill="black"/>
<path d="M5.34253 11.7905C5.34253 11.8367 5.30472 11.8752 5.25782 11.8752C5.21092 11.8752 5.17383 11.8374 5.17383 11.7905C5.17383 11.7436 5.21162 11.7058 5.25782 11.7058C5.30472 11.7058 5.34253 11.7443 5.34253 11.7905Z" fill="black"/>
<path d="M6.7341 11.7905C6.7341 11.8367 6.6963 11.8752 6.6494 11.8752C6.6025 11.8752 6.5647 11.8374 6.5647 11.7905C6.5647 11.7436 6.6025 11.7058 6.6494 11.7058C6.6963 11.7058 6.7341 11.7443 6.7341 11.7905Z" fill="black"/>
<path d="M8.12642 11.7905C8.12642 11.8367 8.08862 11.8752 8.04172 11.8752C7.99552 11.8752 7.9577 11.8374 7.9577 11.7905C7.9577 11.7436 7.99552 11.7058 8.04172 11.7058C8.08862 11.7058 8.12642 11.7443 8.12642 11.7905Z" fill="black"/>
<path d="M9.518 11.7905C9.518 11.8367 9.4802 11.8752 9.4333 11.8752C9.3871 11.8752 9.3493 11.8374 9.3493 11.7905C9.3493 11.7436 9.3871 11.7058 9.4333 11.7058C9.4802 11.7058 9.518 11.7443 9.518 11.7905Z" fill="black"/>
<path d="M10.9103 11.7905C10.9103 11.8367 10.8725 11.8752 10.8256 11.8752C10.7787 11.8752 10.7416 11.8374 10.7416 11.7905C10.7416 11.7436 10.7794 11.7058 10.8256 11.7058C10.8725 11.7058 10.9103 11.7443 10.9103 11.7905Z" fill="black"/>
<path d="M12.3019 11.7905C12.3019 11.8367 12.2641 11.8752 12.2179 11.8752C12.171 11.8752 12.1332 11.8374 12.1332 11.7905C12.1332 11.7436 12.171 11.7058 12.2179 11.7058C12.2641 11.7058 12.3019 11.7443 12.3019 11.7905Z" fill="black"/>
<path d="M13.6942 11.7905C13.6942 11.8367 13.6564 11.8752 13.6102 11.8752C13.5633 11.8752 13.5255 11.8374 13.5255 11.7905C13.5255 11.7436 13.5633 11.7058 13.6102 11.7058C13.6564 11.7058 13.6942 11.7443 13.6942 11.7905Z" fill="black"/>
<path d="M4.56202 10.9568C4.60842 10.9568 4.64602 10.9192 4.64602 10.8728C4.64602 10.8264 4.60842 10.7888 4.56202 10.7888C4.51563 10.7888 4.47803 10.8264 4.47803 10.8728C4.47803 10.9192 4.51563 10.9568 4.56202 10.9568Z" fill="black"/>
<path d="M5.9543 10.9568C6.00069 10.9568 6.03831 10.9192 6.03831 10.8728C6.03831 10.8264 6.00069 10.7888 5.9543 10.7888C5.9079 10.7888 5.8703 10.8264 5.8703 10.8728C5.8703 10.9192 5.9079 10.9568 5.9543 10.9568Z" fill="black"/>
<path d="M7.3459 10.9568C7.39229 10.9568 7.4299 10.9192 7.4299 10.8728C7.4299 10.8264 7.39229 10.7888 7.3459 10.7888C7.29951 10.7888 7.2619 10.8264 7.2619 10.8728C7.2619 10.9192 7.29951 10.9568 7.3459 10.9568Z" fill="black"/>
<path d="M8.73823 10.9568C8.78462 10.9568 8.82223 10.9192 8.82223 10.8728C8.82223 10.8264 8.78462 10.7888 8.73823 10.7888C8.69184 10.7888 8.65424 10.8264 8.65424 10.8728C8.65424 10.9192 8.69184 10.9568 8.73823 10.9568Z" fill="black"/>
<path d="M10.2145 10.8728C10.2145 10.919 10.1767 10.9575 10.1298 10.9575C10.0829 10.9575 10.0451 10.9197 10.0451 10.8728C10.0451 10.8259 10.0829 10.7888 10.1298 10.7888C10.1767 10.7888 10.2145 10.8266 10.2145 10.8728Z" fill="black"/>
<path d="M11.6061 10.8728C11.6061 10.919 11.5683 10.9575 11.5214 10.9575C11.4752 10.9575 11.4374 10.9197 11.4374 10.8728C11.4374 10.8259 11.4752 10.7888 11.5214 10.7888C11.5683 10.7888 11.6061 10.8266 11.6061 10.8728Z" fill="black"/>
<path d="M12.9977 10.8728C12.9977 10.919 12.9599 10.9575 12.9137 10.9575C12.8668 10.9575 12.829 10.9197 12.829 10.8728C12.829 10.8259 12.8668 10.7888 12.9137 10.7888C12.9606 10.7888 12.9977 10.8266 12.9977 10.8728Z" fill="black"/>
<path d="M14.39 10.8728C14.39 10.919 14.3522 10.9575 14.3053 10.9575C14.2591 10.9575 14.2213 10.9197 14.2213 10.8728C14.2213 10.8259 14.2591 10.7888 14.3053 10.7888C14.3522 10.7888 14.39 10.8266 14.39 10.8728Z" fill="black"/>
<path d="M3.86619 13.6637C3.91258 13.6637 3.95021 13.6261 3.95021 13.5797C3.95021 13.5333 3.91258 13.4957 3.86619 13.4957C3.8198 13.4957 3.7822 13.5333 3.7822 13.5797C3.7822 13.6261 3.8198 13.6637 3.86619 13.6637Z" fill="black"/>
<path d="M5.25782 13.6637C5.30422 13.6637 5.34182 13.6261 5.34182 13.5797C5.34182 13.5333 5.30422 13.4957 5.25782 13.4957C5.21143 13.4957 5.17383 13.5333 5.17383 13.5797C5.17383 13.6261 5.21143 13.6637 5.25782 13.6637Z" fill="black"/>
<path d="M6.7341 13.5797C6.7341 13.6259 6.6963 13.6637 6.6494 13.6637C6.6025 13.6637 6.5647 13.6259 6.5647 13.5797C6.5647 13.5328 6.6025 13.495 6.6494 13.495C6.6963 13.495 6.7341 13.5328 6.7341 13.5797Z" fill="black"/>
<path d="M8.12642 13.5797C8.12642 13.6259 8.08862 13.6637 8.04172 13.6637C7.99552 13.6637 7.9577 13.6259 7.9577 13.5797C7.9577 13.5328 7.99552 13.495 8.04172 13.495C8.08862 13.495 8.12642 13.5328 8.12642 13.5797Z" fill="black"/>
<path d="M9.434 13.6637C9.48039 13.6637 9.518 13.6261 9.518 13.5797C9.518 13.5333 9.48039 13.4957 9.434 13.4957C9.38761 13.4957 9.35001 13.5333 9.35001 13.5797C9.35001 13.6261 9.38761 13.6637 9.434 13.6637Z" fill="black"/>
<path d="M10.8256 13.6637C10.872 13.6637 10.9096 13.6261 10.9096 13.5797C10.9096 13.5333 10.872 13.4957 10.8256 13.4957C10.7792 13.4957 10.7416 13.5333 10.7416 13.5797C10.7416 13.6261 10.7792 13.6637 10.8256 13.6637Z" fill="black"/>
<path d="M12.2179 13.6637C12.2643 13.6637 12.3019 13.6261 12.3019 13.5797C12.3019 13.5333 12.2643 13.4957 12.2179 13.4957C12.1715 13.4957 12.1339 13.5333 12.1339 13.5797C12.1339 13.6261 12.1715 13.6637 12.2179 13.6637Z" fill="black"/>
<path d="M13.6095 13.6637C13.6559 13.6637 13.6935 13.6261 13.6935 13.5797C13.6935 13.5333 13.6559 13.4957 13.6095 13.4957C13.5631 13.4957 13.5255 13.5333 13.5255 13.5797C13.5255 13.6261 13.5631 13.6637 13.6095 13.6637Z" fill="black"/>
<path d="M4.56202 12.746C4.60842 12.746 4.64602 12.7084 4.64602 12.662C4.64602 12.6156 4.60842 12.578 4.56202 12.578C4.51563 12.578 4.47803 12.6156 4.47803 12.662C4.47803 12.7084 4.51563 12.746 4.56202 12.746Z" fill="black"/>
<path d="M5.9543 12.746C6.00069 12.746 6.03831 12.7084 6.03831 12.662C6.03831 12.6156 6.00069 12.578 5.9543 12.578C5.9079 12.578 5.8703 12.6156 5.8703 12.662C5.8703 12.7084 5.9079 12.746 5.9543 12.746Z" fill="black"/>
<path d="M7.3459 12.746C7.39229 12.746 7.4299 12.7084 7.4299 12.662C7.4299 12.6156 7.39229 12.578 7.3459 12.578C7.29951 12.578 7.2619 12.6156 7.2619 12.662C7.2619 12.7084 7.29951 12.746 7.3459 12.746Z" fill="black"/>
<path d="M8.73823 12.746C8.78462 12.746 8.82223 12.7084 8.82223 12.662C8.82223 12.6156 8.78462 12.578 8.73823 12.578C8.69184 12.578 8.65424 12.6156 8.65424 12.662C8.65424 12.7084 8.69184 12.746 8.73823 12.746Z" fill="black"/>
<path d="M10.2145 12.662C10.2145 12.7082 10.1767 12.7467 10.1298 12.7467C10.0829 12.7467 10.0451 12.7089 10.0451 12.662C10.0451 12.6151 10.0829 12.5773 10.1298 12.5773C10.1767 12.578 10.2145 12.6158 10.2145 12.662Z" fill="black"/>
<path d="M11.6061 12.662C11.6061 12.7082 11.5683 12.7467 11.5214 12.7467C11.4752 12.7467 11.4374 12.7089 11.4374 12.662C11.4374 12.6151 11.4752 12.5773 11.5214 12.5773C11.5683 12.578 11.6061 12.6158 11.6061 12.662Z" fill="black"/>
<path d="M12.9977 12.662C12.9977 12.7082 12.9599 12.7467 12.9137 12.7467C12.8668 12.7467 12.829 12.7089 12.829 12.662C12.829 12.6151 12.8668 12.5773 12.9137 12.5773C12.9606 12.578 12.9977 12.6158 12.9977 12.662Z" fill="black"/>
<path d="M14.39 12.662C14.39 12.7082 14.3522 12.7467 14.3053 12.7467C14.2591 12.7467 14.2213 12.7089 14.2213 12.662C14.2213 12.6151 14.2591 12.5773 14.3053 12.5773C14.3522 12.578 14.39 12.6158 14.39 12.662Z" fill="black"/>
<path d="M4.56202 14.5352C4.60842 14.5352 4.64602 14.4976 4.64602 14.4512C4.64602 14.4048 4.60842 14.3672 4.56202 14.3672C4.51563 14.3672 4.47803 14.4048 4.47803 14.4512C4.47803 14.4976 4.51563 14.5352 4.56202 14.5352Z" fill="black"/>
<path d="M5.9543 14.5352C6.00069 14.5352 6.03831 14.4976 6.03831 14.4512C6.03831 14.4048 6.00069 14.3672 5.9543 14.3672C5.9079 14.3672 5.8703 14.4048 5.8703 14.4512C5.8703 14.4976 5.9079 14.5352 5.9543 14.5352Z" fill="black"/>
<path d="M7.3459 14.5352C7.39229 14.5352 7.4299 14.4976 7.4299 14.4512C7.4299 14.4048 7.39229 14.3672 7.3459 14.3672C7.29951 14.3672 7.2619 14.4048 7.2619 14.4512C7.2619 14.4976 7.29951 14.5352 7.3459 14.5352Z" fill="black"/>
<path d="M8.73823 14.5352C8.78462 14.5352 8.82223 14.4976 8.82223 14.4512C8.82223 14.4048 8.78462 14.3672 8.73823 14.3672C8.69184 14.3672 8.65424 14.4048 8.65424 14.4512C8.65424 14.4976 8.69184 14.5352 8.73823 14.5352Z" fill="black"/>
<path d="M10.2145 14.4512C10.2145 14.4974 10.1767 14.5352 10.1298 14.5352C10.0829 14.5352 10.0451 14.4974 10.0451 14.4512C10.0451 14.4043 10.0829 14.3665 10.1298 14.3665C10.1767 14.3672 10.2145 14.405 10.2145 14.4512Z" fill="black"/>
<path d="M11.6061 14.4512C11.6061 14.4974 11.5683 14.5352 11.5214 14.5352C11.4752 14.5352 11.4374 14.4974 11.4374 14.4512C11.4374 14.4043 11.4752 14.3665 11.5214 14.3665C11.5683 14.3672 11.6061 14.405 11.6061 14.4512Z" fill="black"/>
<path d="M12.9977 14.4512C12.9977 14.4974 12.9599 14.5352 12.9137 14.5352C12.8668 14.5352 12.829 14.4974 12.829 14.4512C12.829 14.4043 12.8668 14.3665 12.9137 14.3665C12.9606 14.3672 12.9977 14.405 12.9977 14.4512Z" fill="black"/>
<path d="M14.2885 14.3686C14.2745 14.3791 14.2591 14.3882 14.243 14.3945C14.2549 14.3812 14.2703 14.3721 14.2885 14.3686Z" fill="black"/>
</g>
<path opacity="0.1" d="M7.50553 7.30839C7.50553 7.68219 7.20244 7.9853 6.82864 7.9853C6.45484 7.9853 6.15173 7.68219 6.15173 7.30839C6.15173 6.93459 6.45484 6.63151 6.82864 6.63151C7.20244 6.63221 7.50553 6.93459 7.50553 7.30839Z" fill="black"/>
<path opacity="0.1" d="M12.0191 7.30839C12.0191 7.68219 11.7161 7.9853 11.3423 7.9853C10.9685 7.9853 10.6653 7.68219 10.6653 7.30839C10.6653 6.93459 10.9685 6.63151 11.3423 6.63151C11.7161 6.63151 12.0191 6.93459 12.0191 7.30839Z" fill="black"/>
<path d="M7.28715 7.30839C7.28715 7.56179 7.08205 7.76689 6.82865 7.76689C6.57525 7.76689 6.37015 7.56179 6.37015 7.30839C6.37015 7.05499 6.57525 6.84989 6.82865 6.84989C7.08205 6.84989 7.28715 7.05569 7.28715 7.30839Z" fill="#263238"/>
<path d="M11.3422 7.76689C11.5954 7.76689 11.8007 7.56161 11.8007 7.30839C11.8007 7.05517 11.5954 6.84989 11.3422 6.84989C11.089 6.84989 10.8837 7.05517 10.8837 7.30839C10.8837 7.56161 11.089 7.76689 11.3422 7.76689Z" fill="#263238"/>
<path d="M11.3423 7.40779C11.1995 7.40779 11.0839 7.2923 11.0839 7.1495C11.0839 7.0312 11.0027 5.851 10.6982 4.717C10.4385 3.7496 9.95834 2.596 9.14704 2.596C7.64834 2.596 7.08695 6.3774 7.08695 7.1502C7.08695 7.293 6.97146 7.4085 6.82866 7.4085C6.68586 7.4085 6.57034 7.293 6.57034 7.1502C6.57034 7.0998 6.88394 2.07939 9.14704 2.07939C11.3401 2.07939 11.6005 7.0991 11.6005 7.1502C11.6005 7.2923 11.4851 7.40779 11.3423 7.40779Z" fill="#455A64"/>
</svg>
