<svg width="42" height="42" viewBox="0 0 42 42" fill="none" xmlns="http://www.w3.org/2000/svg">
<circle cx="21" cy="21" r="21" fill="#FBF4F4"/>
<g clip-path="url(#clip0_26_139)">
<path d="M13 17H17V13H13V17ZM19 29H23V25H19V29ZM13 29H17V25H13V29ZM13 23H17V19H13V23ZM19 23H23V19H19V23ZM25 13V17H29V13H25ZM19 17H23V13H19V17ZM25 23H29V19H25V23ZM25 29H29V25H25V29Z" fill="#FF7F00"/>
</g>
<defs>
<clipPath id="clip0_26_139">
<rect width="24" height="24" fill="white" transform="translate(9 9)"/>
</clipPath>
</defs>
</svg>
