<svg width="24" height="25" viewBox="0 0 24 25" fill="none" xmlns="http://www.w3.org/2000/svg">
<g clip-path="url(#clip0_25_134)">
<path d="M12 12.3692C14.21 12.3692 16 10.5241 16 8.24612C16 5.96812 14.21 4.12305 12 4.12305C9.79 4.12305 8 5.96812 8 8.24612C8 10.5241 9.79 12.3692 12 12.3692ZM12 14.4307C9.33 14.4307 4 15.812 4 18.5538V20.6154H20V18.5538C20 15.812 14.67 14.4307 12 14.4307Z" fill="#808080"/>
</g>
<defs>
<clipPath id="clip0_25_134">
<path d="M0 12C0 5.37258 5.37258 0 12 0C18.6274 0 24 5.37258 24 12V24.7385H0V12Z" fill="white"/>
</clipPath>
</defs>
</svg>
