<svg width="30" height="30" viewBox="0 0 30 30" fill="none" xmlns="http://www.w3.org/2000/svg">
<g opacity="0.75">
<path d="M20.9051 18.5156C19.616 20.7492 17.4609 22.0312 15 22.0312C12.5391 22.0312 10.3875 20.7504 9.09493 18.5156C8.91649 18.1932 8.87175 17.8136 8.97034 17.4585C9.06893 17.1034 9.30296 16.8012 9.62209 16.6169C9.94122 16.4326 10.3199 16.381 10.6768 16.4731C11.0336 16.5652 11.34 16.7937 11.5301 17.1094C11.9859 17.898 13.043 19.2187 15 19.2187C16.957 19.2187 18.0141 17.8969 18.4699 17.1094C18.5604 16.9459 18.6825 16.8021 18.8292 16.6864C18.9758 16.5706 19.1441 16.4853 19.3241 16.4353C19.5041 16.3853 19.6923 16.3717 19.8777 16.3953C20.063 16.4188 20.2418 16.4791 20.4036 16.5725C20.5654 16.6659 20.7069 16.7907 20.82 16.9394C20.933 17.0882 21.0153 17.258 21.062 17.4389C21.1086 17.6198 21.1188 17.8082 21.0919 17.993C21.065 18.1779 21.0014 18.3556 20.9051 18.5156ZM27.6563 15C27.6563 17.5032 26.914 19.9501 25.5233 22.0314C24.1326 24.1127 22.156 25.7349 19.8433 26.6928C17.5307 27.6508 14.986 27.9014 12.5309 27.4131C10.0758 26.9247 7.82069 25.7193 6.05069 23.9493C4.28068 22.1793 3.07529 19.9242 2.58694 17.4691C2.0986 15.014 2.34923 12.4693 3.30716 10.1567C4.26508 7.84403 5.88726 5.8674 7.96857 4.47671C10.0499 3.08603 12.4968 2.34375 15 2.34375C18.3555 2.34747 21.5725 3.68209 23.9452 6.05479C26.3179 8.42749 27.6525 11.6445 27.6563 15ZM24.8438 15C24.8438 13.0531 24.2664 11.1499 23.1848 9.53111C22.1031 7.91231 20.5658 6.65061 18.767 5.90556C16.9683 5.16051 14.9891 4.96557 13.0796 5.34539C11.1701 5.72522 9.4161 6.66274 8.03942 8.03942C6.66275 9.41609 5.72522 11.1701 5.3454 13.0796C4.96558 14.9891 5.16052 16.9683 5.90557 18.767C6.65062 20.5657 7.91231 22.1031 9.53111 23.1848C11.1499 24.2664 13.0531 24.8437 15 24.8437C17.6099 24.841 20.112 23.803 21.9575 21.9575C23.803 20.112 24.841 17.6099 24.8438 15ZM10.7813 14.5312C11.1521 14.5312 11.5146 14.4213 11.8229 14.2153C12.1313 14.0092 12.3716 13.7164 12.5135 13.3738C12.6554 13.0312 12.6926 12.6542 12.6202 12.2905C12.5479 11.9267 12.3693 11.5926 12.1071 11.3304C11.8449 11.0682 11.5108 10.8896 11.147 10.8173C10.7833 10.7449 10.4063 10.7821 10.0637 10.924C9.72111 11.0659 9.42828 11.3062 9.22225 11.6146C9.01622 11.9229 8.90626 12.2854 8.90626 12.6562C8.90626 13.1535 9.1038 13.6304 9.45543 13.9821C9.80706 14.3337 10.284 14.5312 10.7813 14.5312ZM19.2188 10.7812C18.8479 10.7812 18.4854 10.8912 18.1771 11.0972C17.8687 11.3033 17.6284 11.5961 17.4865 11.9387C17.3446 12.2813 17.3074 12.6583 17.3798 13.022C17.4521 13.3858 17.6307 13.7199 17.8929 13.9821C18.1552 14.2443 18.4892 14.4229 18.853 14.4952C19.2167 14.5676 19.5937 14.5304 19.9363 14.3885C20.2789 14.2466 20.5717 14.0063 20.7778 13.6979C20.9838 13.3896 21.0938 13.0271 21.0938 12.6562C21.0938 12.159 20.8962 11.6821 20.5446 11.3304C20.1929 10.9788 19.716 10.7812 19.2188 10.7812Z" fill="white"/>
</g>
</svg>
