<svg width="45" height="86" viewBox="0 0 45 86" fill="none" xmlns="http://www.w3.org/2000/svg">
<path d="M43.5157 23.1671C34.961 34.7535 26.0402 48.1998 23.8681 62.7297C23.8422 62.9495 24.1943 63.0216 24.2454 62.8032C25.2387 58.8181 26.4952 54.9478 28.0289 51.1699C33.6534 49.6222 39.1736 48.3503 42.1276 42.7678C45.1404 37.0292 44.7575 29.5469 44.1849 23.2959C44.1443 22.9613 43.69 22.9445 43.5157 23.1671Z" fill="#FF7F00"/>
<path d="M28.1135 51.0607C31.9565 42.4367 36.8909 33.777 43.1615 26.6853C43.2035 26.6377 43.2692 26.7063 43.2308 26.7546C39.1252 31.8051 36.0053 37.3064 32.9582 42.9029C35.7911 40.0273 38.895 37.4513 41.5781 34.4021C41.6306 34.3426 41.7138 34.4287 41.6641 34.4882C38.9992 37.6851 36.0894 41.1599 32.6195 43.5259C31.6871 45.243 30.749 46.9657 29.797 48.6877C30.0301 48.5575 30.271 48.4413 30.5104 48.323C30.5524 48.302 30.5894 48.365 30.5474 48.386C30.2828 48.5197 30.021 48.6611 29.748 48.7773C29.2972 49.5921 28.8506 50.4076 28.3872 51.221C28.2836 51.4016 28.0323 51.2427 28.1135 51.0607Z" fill="#263238"/>
<path d="M30.9724 48.0521C33.2649 46.7375 35.4761 45.3249 37.5397 43.668C37.5957 43.6225 37.6769 43.7002 37.6202 43.7485C35.5937 45.4642 33.4335 47 31.0675 48.2131C30.9604 48.2677 30.8674 48.1123 30.9724 48.0521Z" fill="#263238"/>
<path d="M22.8783 60.5702C22.8958 60.7466 23.1947 60.7431 23.1912 60.5555C23.236 55.771 23.1954 50.9634 23.2675 46.1572C24.4932 43.6834 27.1245 42.3142 28.9536 40.3318C30.2731 38.901 31.4015 37.2875 32.3661 35.5802C34.6285 31.5321 35.8535 26.9807 36.3253 22.3803C36.8307 17.2619 34.8882 0.372996 32.7308 0.959596C31.6115 1.2634 27.9911 9.62909 27.0307 12.3941C25.4578 16.9434 24.3511 21.6579 23.6252 26.4151C21.8773 37.6767 22.0229 49.2386 22.8783 60.5702Z" fill="#FF7F00"/>
<path d="M22.844 39.9286C22.851 39.9223 22.8587 39.916 22.8657 39.9097C23.1275 33.8554 24.4918 27.7416 25.7686 21.8693C27.1441 15.5434 28.752 9.5871 32.007 3.9444C32.0679 3.8394 32.2226 3.9318 32.1687 4.0389C29.9532 8.4041 28.3698 13.0381 27.1574 17.7974C27.3751 17.4558 27.6404 17.1331 27.8665 16.8104C27.9561 16.6837 28.1654 16.802 28.0772 16.9336C27.758 17.4103 27.4696 17.9661 27.0601 18.37C27.0468 18.3833 27.0321 18.3854 27.0174 18.3896C25.8967 22.9109 25.0924 27.5358 24.4043 32.1495C24.4561 32.0907 24.5058 32.0277 24.5576 31.971C24.5926 31.9332 24.6521 31.9815 24.6276 32.0249C24.5429 32.1782 24.447 32.3301 24.3532 32.482C24.0067 34.8235 23.6847 37.1608 23.3613 39.4771C27.5312 35.9134 31.0914 31.7127 33.0997 26.5369C33.1088 26.5131 33.148 26.5229 33.1389 26.5481C31.1712 31.9171 28.0695 36.689 23.2948 39.9461C23.2073 40.5705 23.1205 41.1949 23.0316 41.8158C23.0134 41.9446 22.8076 41.911 22.8083 41.7857C22.8104 41.2341 22.837 40.6811 22.858 40.1288C22.8006 40.0777 22.7719 39.9888 22.844 39.9286Z" fill="#263238"/>
<path d="M24.8082 31.1562C27.9946 26.4011 30.9703 21.7825 33.302 16.5262C33.3279 16.4681 33.4287 16.5094 33.4056 16.5703C31.4407 21.793 28.689 27.085 24.9671 31.2794C24.8922 31.3648 24.7438 31.2528 24.8082 31.1562Z" fill="#263238"/>
<path d="M29.0425 15.3516C30.3627 13.0164 31.7543 10.7435 32.9968 8.36211C33.0318 8.29561 33.1235 8.35441 33.0948 8.41951C32.0525 10.8534 30.8065 13.3251 29.2462 15.4706C29.1587 15.591 28.9662 15.4867 29.0425 15.3516Z" fill="#263238"/>
<path d="M28.5273 16.3673C28.5539 16.3673 28.5539 16.4079 28.5273 16.4079C28.5014 16.4086 28.5014 16.3673 28.5273 16.3673Z" fill="#263238"/>
<path d="M19.6401 46.7319C19.5589 49.9022 19.2159 53.0732 18.5222 56.1588C18.5712 56.4997 18.6202 56.8399 18.6706 57.1906C19.6702 53.7557 20.1924 50.2361 20.3569 46.6829C20.4115 46.5842 20.4339 46.4778 20.3716 46.3581C20.3716 46.3581 20.3716 46.3581 20.3709 46.3476C20.5515 41.603 20.1112 36.8052 19.3146 32.1103C17.8334 23.3169 14.5959 14.8777 8.46248 8.2865C8.26788 8.0835 7.88009 8.18849 7.78489 8.42649C5.31039 14.7188 6.17348 22.2277 8.28188 28.5053C9.42918 31.887 11.0665 35.1343 13.1455 38.0414C15.249 40.9989 17.9314 43.5014 19.6401 46.7319Z" fill="#FF7F00"/>
<path d="M9.1877 11.2321C14.9998 20.6646 19.0437 31.8485 19.5379 42.9918C19.5463 43.1892 19.2145 43.241 19.1865 43.0394C19.0486 42.0384 18.896 41.0458 18.7357 40.0581C18.7322 40.0553 18.7287 40.0574 18.7259 40.0546C16.3214 37.7516 13.8532 35.3219 12.1312 32.4442C12.1011 32.3938 12.1739 32.3343 12.2138 32.3805C14.3061 34.771 16.2577 37.2203 18.6195 39.3525C18.203 36.8885 17.7102 34.4644 17.1264 32.0753C16.9703 31.8968 16.8191 31.7141 16.6665 31.5349C16.5657 31.4166 16.7337 31.2444 16.8387 31.362C16.8849 31.4138 16.9318 31.4656 16.9787 31.5167C16.1555 28.2365 15.1503 25.0249 13.94 21.8686C12.4602 20.1039 10.8061 18.5786 9.7281 16.4527C9.7015 16.4009 9.77219 16.361 9.80509 16.4079C10.6717 17.6238 11.5096 18.8467 12.4931 19.9751C12.8844 20.4245 13.3142 20.8445 13.7209 21.2834C12.3986 17.915 10.8285 14.6117 8.96228 11.3651C8.87968 11.2174 9.1002 11.0893 9.1877 11.2321Z" fill="#263238"/>
<path d="M10.363 22.8682C12.2418 25.3966 14.3824 27.8088 16.1289 30.4219C16.1793 30.4968 16.0701 30.5738 16.0078 30.5157C13.7636 28.4108 11.8652 25.5359 10.237 22.9424C10.1852 22.8605 10.3084 22.794 10.363 22.8682Z" fill="#263238"/>
<path d="M16.3921 31.0071L16.4719 31.0869C16.5272 31.1422 16.4411 31.229 16.3858 31.173L16.3053 31.0932C16.25 31.0379 16.3361 30.9518 16.3921 31.0071Z" fill="#263238"/>
<path d="M0.0814229 29.3656C0.548323 34.2187 3.10122 40.0154 6.21482 43.7555C7.59452 45.4096 9.26823 46.6752 11.1883 47.637C13.3422 48.7024 15.5976 49.9302 17.8264 50.8045C18.868 53.4638 19.6653 56.2498 20.1763 59.1527C20.2484 58.9098 20.3198 58.6564 20.3912 58.4135C18.9611 46.1264 11.0098 35.6243 0.839507 28.8826C0.474807 28.639 0.0415229 28.9505 0.0814229 29.3656Z" fill="#FF7F00"/>
<path d="M3.5954 32.9958C3.524 32.9328 3.62061 32.804 3.69901 32.8621C9.08831 36.8542 13.9449 42.6761 16.6581 48.8326C16.7323 49.0006 16.5013 49.1483 16.4054 48.9803C15.9329 48.1522 15.4506 47.3458 14.9606 46.5548C14.9578 46.5541 14.9564 46.5562 14.9536 46.5562C12.6324 46.1194 10.4337 44.4856 8.71101 42.9344C8.66411 42.8924 8.73341 42.8238 8.78031 42.8658C9.67981 43.6589 10.6451 44.3841 11.7175 44.9287C12.6639 45.4096 13.6824 45.712 14.6673 46.097C13.807 44.7313 12.9103 43.4223 11.9744 42.1518C9.4761 41.3006 7.0975 39.7662 4.9982 38.2297C4.9324 38.1814 4.99049 38.0729 5.06399 38.117C7.20389 39.405 9.31439 40.539 11.5481 41.5834C10.1404 39.7193 8.61721 37.9539 6.97011 36.2459C6.18121 35.8294 5.38111 35.4108 4.61671 34.9649C4.55441 34.9285 4.595 34.8221 4.6664 34.8459C5.2754 35.0489 5.89561 35.3681 6.47241 35.7335C5.55331 34.8053 4.6076 33.8897 3.5954 32.9958Z" fill="#263238"/>
<path d="M3.8117 37.2385C3.9517 37.3281 4.07912 37.4079 4.20302 37.5178C4.24012 37.5507 4.19251 37.599 4.15401 37.5822C4.00491 37.5171 3.8831 37.4387 3.7459 37.3512C3.6759 37.3057 3.741 37.193 3.8117 37.2385Z" fill="#263238"/>
<path d="M36.2637 85.7604H8.39459L10.6451 60.3819L11.1386 54.7847H33.5197L34.0139 60.3819L36.2637 85.7604Z" fill="#455A64"/>
<path d="M34.0139 60.3819H10.6451L11.1386 54.7847H33.5197L34.0139 60.3819Z" fill="#263238"/>
<path d="M34.8532 50.8717H9.80579V56.4108H34.8532V50.8717Z" fill="#455A64"/>
</svg>
