<svg width="151" height="131" viewBox="0 0 151 131" fill="none" xmlns="http://www.w3.org/2000/svg">
<path d="M26.203 130.359L128.943 130.801C153.915 111.192 156.494 82.141 138.679 64.5311C127.897 53.8792 114.206 56.0282 101.168 54.3342C101.155 54.3342 101.143 54.3279 101.131 54.3279C96.5901 53.7364 92.136 52.6773 87.9066 50.4471C74.4834 43.3645 66.915 26.659 55.6219 12.6058C54.2142 10.8432 52.7442 9.1303 51.1993 7.4797C41.9117 -2.4372 23.4275 -2.7599 13.7591 11.182C-10.8067 46.6055 0.446508 99.3302 26.203 130.359Z" fill="#C7C7C7"/>
<path d="M23.9231 49.3075C26.6139 91.4587 75.2933 107.193 105.697 94.5674C132.133 83.5858 123.481 58.5265 101.169 54.3342C101.156 54.3342 101.144 54.3279 101.132 54.3279C96.5908 53.7364 92.1367 52.6773 87.9073 50.4471C74.4841 43.3645 66.9157 26.659 55.6226 12.6058C38.7981 3.86702 21.9484 18.4431 23.9231 49.3075Z" fill="#DBDBDB"/>
</svg>
