<svg width="15" height="15" viewBox="0 0 15 15" fill="none" xmlns="http://www.w3.org/2000/svg">
<path d="M0.431244 4.37314C2.43068 2.75334 4.92677 1.87121 7.49999 1.87501C10.1781 1.87501 12.6375 2.81064 14.5687 4.37314L13.3906 5.83126C11.7243 4.48164 9.64428 3.74672 7.49999 3.75001C5.26874 3.75001 3.21874 4.53001 1.60937 5.83126L0.431244 4.37314ZM2.39437 6.80439C3.8385 5.63439 5.64139 4.99722 7.49999 5.00001C9.35848 4.99725 11.1613 5.63417 12.6056 6.80376L11.4269 8.26251C10.3161 7.36278 8.92945 6.87283 7.49999 6.87501C6.01249 6.87501 4.64562 7.39501 3.57249 8.26251L2.39437 6.80439ZM4.35812 9.23564C5.24675 8.51553 6.35622 8.12334 7.49999 8.12501C8.68999 8.12501 9.78312 8.54064 10.6419 9.23501L9.46374 10.6938C8.90827 10.2438 8.21483 9.99885 7.49999 10C6.75624 10 6.07312 10.26 5.53624 10.6938L4.35812 9.23564ZM6.32187 11.6669C6.65505 11.3968 7.07106 11.2496 7.49999 11.25C7.94624 11.25 8.35624 11.4063 8.67812 11.6663L7.49999 13.125L6.32187 11.6669Z" fill="black"/>
</svg>
