<svg width="24" height="24" viewBox="0 0 24 24" fill="none" xmlns="http://www.w3.org/2000/svg">
<g clip-path="url(#clip0_202_210)">
<path d="M5.54667 14.4183L4.73974 17.4306L1.79044 17.493C0.909037 15.8582 0.409088 13.9878 0.409088 12.0001C0.409088 10.0781 0.876528 8.26552 1.7051 6.66956H1.70573L4.33143 7.15094L5.48165 9.76089C5.24091 10.4627 5.1097 11.2161 5.1097 12.0001C5.10979 12.851 5.26391 13.6662 5.54667 14.4183Z" fill="#FBBB00"/>
<path d="M23.3883 9.83435C23.5214 10.5355 23.5908 11.2596 23.5908 11.9997C23.5908 12.8295 23.5036 13.639 23.3374 14.4198C22.7731 17.0768 21.2988 19.3969 19.2564 21.0387L19.2557 21.0381L15.9485 20.8693L15.4804 17.9474C16.8357 17.1526 17.8948 15.9088 18.4527 14.4198H12.2547V9.83435H18.5431H23.3883Z" fill="#518EF8"/>
<path d="M19.2553 21.0384L19.2559 21.039C17.2696 22.6356 14.7463 23.5909 11.9995 23.5909C7.5854 23.5909 3.74768 21.1237 1.78995 17.493L5.54617 14.4182C6.52502 17.0306 9.04509 18.8903 11.9995 18.8903C13.2694 18.8903 14.4591 18.547 15.4799 17.9477L19.2553 21.0384Z" fill="#28B446"/>
<path d="M19.3983 3.0775L15.6434 6.15163C14.5868 5.49122 13.3379 5.10971 11.9999 5.10971C8.9786 5.10971 6.41139 7.05468 5.48159 9.76075L1.70562 6.66942H1.70499C3.63406 2.95014 7.52018 0.409058 11.9999 0.409058C14.8123 0.409058 17.3909 1.41086 19.3983 3.0775Z" fill="#F14336"/>
</g>
<defs>
<clipPath id="clip0_202_210">
<rect width="23.1818" height="23.1818" fill="white" transform="translate(0.409088 0.409058)"/>
</clipPath>
</defs>
</svg>
