<svg width="22" height="17" viewBox="0 0 22 17" fill="none" xmlns="http://www.w3.org/2000/svg">
<path opacity="0.75" d="M21.1315 10.4643H16.4542V14.4334C16.4542 14.5134 16.4542 14.5867 16.4542 14.6633C16.4542 14.73 16.4542 14.7933 16.4512 14.86C16.4491 15.0029 16.4354 15.1454 16.41 15.2865C16.3823 15.4267 16.3323 15.5625 16.2614 15.6898C16.1888 15.8169 16.0941 15.9328 15.9806 16.033C15.8667 16.1332 15.7366 16.2175 15.5948 16.283C15.4511 16.3457 15.2985 16.3906 15.1413 16.4163C14.9836 16.4385 14.8244 16.4507 14.6648 16.4529C14.5905 16.4529 14.5184 16.4563 14.4457 16.4563H8.42866C8.35438 16.4563 8.2827 16.4529 8.20954 16.4529C8.04995 16.4507 7.89072 16.4385 7.73304 16.4163C7.57594 16.3906 7.4235 16.3457 7.27993 16.283C7.13807 16.2175 7.00799 16.1332 6.89405 16.033C6.78057 15.9329 6.68577 15.817 6.61328 15.6898C6.54239 15.5625 6.49236 15.4267 6.46472 15.2865C6.43917 15.1455 6.42527 15.0029 6.42312 14.86C6.42312 14.7933 6.42015 14.73 6.42015 14.6633C6.42015 14.5867 6.42015 14.5134 6.42015 14.4334V10.4643H1.66888C1.18829 10.4643 0.571773 9.53451 1.14892 9.01796C1.63954 8.58139 9.35047 1.68295 10.9642 0.246611C11.0828 0.115848 11.2503 0.0282062 11.4355 0H11.4481C11.6084 0.00779799 11.7571 0.0769809 11.8567 0.189957C13.4704 1.6263 21.2077 8.58139 21.6987 9.01796C22.2762 9.53451 21.7926 10.4643 21.1315 10.4643Z" fill="#FBFBFB"/>
</svg>
