<svg width="24" height="25" viewBox="0 0 24 25" fill="none" xmlns="http://www.w3.org/2000/svg">
<g clip-path="url(#clip0_25_128)">
<path d="M7 18.5538C5.9 18.5538 5.01 19.4815 5.01 20.6154C5.01 21.7492 5.9 22.6769 7 22.6769C8.1 22.6769 9 21.7492 9 20.6154C9 19.4815 8.1 18.5538 7 18.5538ZM1 2.06152V4.12306H3L6.6 11.9466L5.25 14.472C5.09 14.7606 5 15.1008 5 15.4615C5 16.5954 5.9 17.5231 7 17.5231H19V15.4615H7.42C7.28 15.4615 7.17 15.3481 7.17 15.2038L7.2 15.0801L8.1 13.4H15.55C16.3 13.4 16.96 12.9774 17.3 12.3383L20.88 5.6486C20.96 5.50429 21 5.32906 21 5.15383C21 4.58691 20.55 4.12306 20 4.12306H5.21L4.27 2.06152H1ZM17 18.5538C15.9 18.5538 15.01 19.4815 15.01 20.6154C15.01 21.7492 15.9 22.6769 17 22.6769C18.1 22.6769 19 21.7492 19 20.6154C19 19.4815 18.1 18.5538 17 18.5538Z" fill="#808080"/>
</g>
<defs>
<clipPath id="clip0_25_128">
<path d="M0 12C0 5.37258 5.37258 0 12 0C18.6274 0 24 5.37258 24 12V24.7385H0V12Z" fill="white"/>
</clipPath>
</defs>
</svg>
